<mxfile host="app.diagrams.net" agent="Mozilla/5.0 (Windows NT 10.0; Win64; x64) AppleWebKit/537.36 (KHTML, like Gecko) Chrome/141.0.0.0 Safari/537.36 Edg/141.0.0.0" version="28.2.8">
  <diagram name="Page-1" id="8xaPtmBYCvLnHCA0hOJs">
    <mxGraphModel dx="1034" dy="570" grid="1" gridSize="10" guides="1" tooltips="1" connect="1" arrows="1" fold="1" page="1" pageScale="1" pageWidth="850" pageHeight="1100" math="0" shadow="0">
      <root>
        <mxCell id="0" />
        <mxCell id="1" parent="0" />
        <mxCell id="bNeFM68Or8PcbVmSaTlK-8" value="" style="rounded=0;whiteSpace=wrap;html=1;" vertex="1" parent="1">
          <mxGeometry x="40" y="240" width="520" height="310" as="geometry" />
        </mxCell>
        <mxCell id="bNeFM68Or8PcbVmSaTlK-51" value="" style="rounded=0;whiteSpace=wrap;html=1;" vertex="1" parent="1">
          <mxGeometry x="50" y="260" width="290" height="280" as="geometry" />
        </mxCell>
        <mxCell id="bNeFM68Or8PcbVmSaTlK-47" value="" style="ellipse;shape=cloud;whiteSpace=wrap;html=1;" vertex="1" parent="1">
          <mxGeometry x="30" y="30" width="360" height="170" as="geometry" />
        </mxCell>
        <mxCell id="bNeFM68Or8PcbVmSaTlK-3" value="&lt;b&gt;Shop management System&lt;/b&gt;" style="text;html=1;whiteSpace=wrap;strokeColor=none;fillColor=none;align=center;verticalAlign=middle;rounded=0;fontSize=14;fontColor=light-dark(#000000,#FFFF00);" vertex="1" parent="1">
          <mxGeometry x="105" y="10" width="190" height="40" as="geometry" />
        </mxCell>
        <mxCell id="bNeFM68Or8PcbVmSaTlK-5" value="" style="shape=image;verticalLabelPosition=bottom;labelBackgroundColor=default;verticalAlign=top;aspect=fixed;imageAspect=0;image=data:image/png,iVBORw0KGgoAAAANSUhEUgAAAQsAAAEsCAYAAADU/JbcAAAAAXNSR0IArs4c6QAAAARnQU1BAACxjwv8YQUAAAAJcEhZcwAAEnQAABJ0Ad5mH3gAAGlXSURBVHhe7f13eCPpeacL328VcgYJ5tzd7JzDTE8OkmY00sgaaZRsWV45Ha+99p7N/q71WUvrtc9+3t3Px9+u7XWULVmyLdvKkidpcu6ezrmb7G7mDJLIqeo9fwDksNEkCIBsEiTrHo10CQUQqPSr532ikFJKDJYFXeroMkNGz6BLDSl1jIO7HEgECopQUBQVkzCjCBUhRP4bDe4gwhCLpaFLnZQWJ5aOMJ0YYzI+xkR8iFgqRCwdRpda/kcMysAkzDgsXlxWLwFHIz5bLV5bNTaTA7NqRWAIx53GEIsy0fQMsXSYqcQYQ+EbDIav0z99lYnYCEkthq5raDnrwmDpCKGgChOqYsJhdlHrbKHFu5V6dzsN7nbc1irsJpdhbdxBDLEoEV1qRFMhxmMDXJs4zc3JiwyEukhkYqS1JJqeQRqLjzuKEAomxYxZseKyemn1bmNT1R42+ffgd9RhMzkMS+MOYIhFkUgkqUyc8dggl8fe4+LoOwxHekhkomS0tCEQq4QQCmbFjNPipdnTyZ76++is3o/XFsCkWPLfbrAEDLEoAl1qhJOT3Jy6yOnBV7g6cYpYKuuPMESiMhAIVMWE1xZgd9097Kt/kEbPZmNpsowYYrEIGT3NRGyQsyNvcmboVUYivaQyCUMkKhSBwG5x0+Lp5Ejzh9gWOIzbWoUilPy3GpSIIRYFSGtJRiK9HBt4njNDrzGdGEeXOhhCUfGoiok6Zyt3tTzO/vqH8NlrUISa/zaDEjDEYgHSWpLB8HXe6fsnzg2/RTg1aUQ21hiKUKh2NHJX82McavogVfY6QzCWgGGbzYOmZxiO9PBO3zOcG37TEIo1ii51xmODHO9/gZODLzGVGDfO4xIwxCIPXepMxkc4MfgiF0YMi2KtI6XOWGyA9wZ+zMXRd4mmwxjGdHkYYjEHiSSRiXBh9B3ODb/JdHLCuLDWAVLqjER6OTn4Ir3Tl0nryfy3GBSBIRZz0PUMA6HrnB95i2B82BCKdYSUOn3TV7kw8jZTibGco9qgFAyxyCGlTig5ycXRdxgMX0fTM/lvMVjjJDMJLo+9R3fwHIlM1Ah/l4ghFjnSeoqbUxfpmjhNNBXK32ywLpAE48NcHH2H0Ugfum4U+ZWCIRa5DM1gfITLY8cZjfYblaLrGE3PcHPyAt3BM0TTIWOpWQIbXiwkkpSWoDt4lhvB8yTS0fy3GKwzQskgF0ffZTjSQ0am8zcbLMCGFwtdaoxEerk8epyJ+LCxjt0ASCnpm77G5bHjhBNBIzReJBtaLKSUxFIhLo+9lw2paan8txisU5KZGJdGj9EzfZmkljBS+ItgQ4uFJrOh0q7gaULJoHHBbCAkktFoH5fHjjGVGDVCqUWwYcVCSp1QYoIr4ycYCt0wQqUbkIyWomviLDcnLxmh1CLYsGKR0dP0Tl+hK3iaaNoIlW5EJJLJxCjnR95iIjZshFIXYUOKhS41xmODXBo7xmi417AqNjCalubG5Hmujp8kmp42QqkF2HBika3/iNEdPJvN5NNi+W8x2EBIJNFUiPOjbzEUvkFGN5zcC7HhxELXNUYjvVwdP8lkfMR4khigS53B0HWujJ0gnJwyQqkLsKHEQiKJpUN0Bc/SO33FeIoY5Mham5fGjtEfukpKS+S/wWCjiYWWqyq9MnaCUMIoPzd4n2zfi0HOj75NKBk0Uv7nYcOIhZRyNlTaH7pqODUNbiOtJbg6fpLu4DmSmbiRd5PHhhGLtJ6kZ+oyV8dPEE8bMXWD25FSMp2Y4NTQKwTjw2iGdXELG0IspNSZiA1xZfw9xqIDRraewYLoeoa+qStcHjtOPB0xHipz2BBikdTi3Jy8SFfwDCnNMC8NFkYiiafDnB1+k7Fov7FcncO6F4uZqtJLY8eYjI0YVgWgCBWLasNuduEwu7GbXVhUmzGIJ4cmNQbD3ZwZep1YOmxYFznW/dyQaGqaY/3P8eL1vye8wRvwKkLFarJT7Wig0bMZv60Wk2ImrSUIxkfoD3UxFR8jpcU3vKgKoRBwNvL0rl+js/oAZmNu6voWC01m6Jo4y3PXvsqNyQsb2KQUmBQTAUcTu+vuZXf9vQQcTVhVGwhASpJanJFIH+dH3uLC6DsEY0Nk9I3dGMasWtlddy8f3/HP8dtqEBvc8lq3YiGRTMZHeaPne7zV84MN7awyqzaaPZt5oP0pdtTchc3sQhEKgvcHBkskutRIZuJcGH2b125+l4HpaxtaMIQQeKwBntz28+xveAiryZ7/lg3FupXKtJakf/oqV8dOkMjENqxQqMJEg6udB9s/yZ66+3FYPKhCvUUomJlCLkw4zC721T/IQ+2foNrRsKHH/UkpiaSmODn4EsH4yIZP1FqXYiGlZDI+MttncaOeZIHAZfWzu/4edtUdxWqy3yYStyOwqFZ21d7Drtqj2EzO/DdsKDQ9w82pi1wYfYtEJrqhI2nrUiySWowbkxe5On6K9Aau/1AVMw3uNrYHjmA1OfI3F0BgNTk42Pgo1Y6GDb5WlyQzcU4NvsJIpG8D+73WoVjoUmM43MO5kTeYSoxt2ApCgcBmctDg3kStq6UIi+JWFKHQ4O6gzbcNi2rN37yh0KXGaKSPE4MvEklt3J4X604sIqlpuoKn6Zm6jLaBnXMIsJmdBJyNZS8lFEWl3t2BRbXlb9pwpPQkl8eOc3Pywoa1VteVWGT0NMPhm1wee49YaqMn0wjMigWbyVmiTfE+ApFN1lpfl0lZSKkzHR/nzPAbTG/QWanr6CqQhJITXB47zkCoe2NbFTkEApMw579cIhtZcG8lpSW4HjzLtYlTpDdgz4t1IxYpLUn/9DWuTJxcU52aBQJFKChCzf17a/7DUlGUyjjFM/upKmbMqhWTYl72fb3TSCTh1BRnh99gLDaw4apSK+NKWiK61JiIDXFu5C1G14jHWiAwq1Z89hqaPZ1srtrD5qo9NHs68dvrMKvWNXUjFUIRCk6Ll0bPJrZU72Nn7d1sqzlMq28bXlsNZsWyZvY1rSXpm77KhZG3N9xSd11kcMbSYU4PvcqL3X/HRGyo4vMqFKHisnhp9nayqWoPDa4O7JZsVmUsFWYocpObwQv0Tl8hnJwsa3+EUGhwtfPEti+yt+7+ssKfutQ41v8cP7r8F0wnJ/I3F0E2Z6PG2czWwAHa/TupstdjUW1oMsN0YoKBUBfdE2fpnb5MLB1ZE9Erk2Km1budD2/9Z2yu3rth6kbUL3/5y1/Of3EtockMw+Eejvc/R3/FpycLVMVEjbOZ/Q0PcW/rk+ypu48Gzyaq7XX47bXUOJtp8myiwd2BWbUQSgSJl7GsEkLgtvjoDOynztWKEKU/uSWSgVA318ZPkdTi+ZsXxaraaffv5IH2j3Ok+THavDvw2QO4rT481ipqnc00uTupc7UAEElNkdISFS8YutRJ6QksJiuN7k3YTI6yju9ao/THTYURS4XomjhN79QV0loyf3PFIBBYTDaaPZ3c2/pRHmz/BJuq9mA1OXImePZfIRRsJhct3m080PYUdzU/js9es2bM9BkUoVLvaeeB9qfYX/8QHmt17oa69V+b2cGmqj08sukz3NP6JI3uTZhVa2575RJLR+gaP0PP5MUNE0pd02KR0VMMhW9yYfQdQslgyU/flUIgsJmdbK7ay0Mdn+Rw04eoctTlv+0WhBC4rVUcaHyYLVX7MK+xXAe31c/e+gfYFjicu/kLE3A0cm/rkzzU8TQd/l1YTbaKFshsg98Bzo++vWHqRtasWEgpCSWDXBx7l+HwzYpt6y+EwGFxsy1wiAfbnmJ33b24rb6inpyKUPDZathWcxiPraqoz1QCQijUOltytSXFp5m7LF72NzzEQx1PszVwcI7VVZkkMzFuTF7g2sSpDdHgd82KRUpP0Dt1havjJ4mlw/mbKwIhFFwWPztrj/JA+1N0Bg7ksimLvwFUxUyrdytVtto108nKrFiodTVT62zO37QoFtXGjpojPNT+SToD+3NJZcUfr5VmOjHGpdFjjER70db5rNS1cfXloUuNyfgol8berdjoR1YofOyuu4cH2p+iw7+7rLRpJfd3XFYfJsWUv7kisZrs+O31mMqMEpgUCx1Vu3mo/emKF4y0lmIg1MXVsZNE06F1XTeyJsUiqcW5ETzP9eCFnPlXWQgEDrOL7TWHubf1SZo9nZiU8jMpRS5pqxSLZDURuajPUjArVjqqdvNg+yfpDBwosrx+dQgnJ7kyfoKBUBcZWcnRuKWx5sRCkxnGY4NcGH2byYp0LAmsZgebq/Zxd/MTNHk2L0koQKLrGmk9VbEO3HxSepJwYmLJIVBzzsKYiRwV4yhdDTJ6msFwN5fGjhFJTi55vyuVNSYWkng6yqXRY/RNX6vIUKlZtdDq3cZ9rU/S7t+BuiShyMb0g4lRphPjFZ5D8j6pTIKRaB+hshK5bsWsWGj37+DB9k/S4t26ROG9c8TSYbqD57g+eX7dhlLXlFhk9AxDoetcGjtGuAJDpapiotbVwj0tH6WjaveypGyntSTXg2eZjI+umSeWLjXGov10TZxdlupMi2pnU9Vu7mv7GFWOhop09EopGY30cWn0GMHYcAVavEun8o76AkgpiaamuTj2DiOR3op7ygqh4LfVcnfz42yrOYxVXXrYL6On6A91ZesQ0qH8zRXNVHyMsyNvMBy+uSyCYVUdbAtkfUDu2QSvyiKVidMzlR1mtR5DqWtGLDJ6ip6py1wZP0k8VVmhUoHI5gg0Psz+hodxmt1LvJglaT1F/3QXr934Nj3Tl0lra8u0TWlJro2f5I2e7zES6VlyhaYQAqfFy/76B9nf8GBZkaU7jUQSjI1weew4o9G+dRdKXRNiIaVOJDXF2eHXGY8OLvnCW27Mqo0O/y6ONH0Ij7WqrKKtGSSSlJaga+IUz3d9ncvj75FIR/PftgaQRFIhTg69zLNXv8r14FnS2tKctIpQ8NlruKflI2yu2rvkiMudIJ17qF0dP7nuusqXf1WvIGk9xYXRd7g+eY5kJpa/eVVRhEqts5m7mz9MwNG4pNb5UurEUmFODb3KM1e/ypXxE8TTkfy3rSEksVSI86Nv8+zVr3J+9M0l9xpRhErA2cx9bT9Btb1+ScJ8pwgng1waO07P1KU10S6hWCrvSOcx4yw7N/Im04nxJV1oy41A4Lb6Odj0KJur92FSy0tCYkYo0mHeG3iBl6//PX3TVysy2lMOaS3JjckL/Ljrbzk1+DLR5NSSzqNFtdDu28XBpg9WZHm4LnUGQl1cGX8vW7O0DD6bSqCixULm2rBfGH2HwdD1ilu3W0w2Ovy7OdDwEPYlZBlml1nTHB94gTd7f8BwuGddPZGYyUUIXefl6//AicGXiCxJMAROi4eDDQ+zuWpPRS5HEuko3cGz9E5dWjeh1IoWC13X6A91cXH0XSKpqfzNq4oiFKrs9RxqfDRXfl3eodSlTjg1xYnBF3mr94eMRfrXZdiNXELdaLSf129+l5NLFAxFKFQ5Grin9Um8tsor4ZdIhsM9XJwNpa5966K8K3wFkFISz0Q4P/IWI5HeinvS2s1uttccob1qZ9nLDyl1oqkpTg29wtu9P2Is0o8mK2s/l5uZ0u43e77PxdF3SaTL92FklyM72FN3T0Vmd2ZzZM5xY/ICKW3th1IrViwyeopr46e4On6CeIVVlaqKebYE22n2lPVUk2TF8OzwG7zd88OsIK5zoZhBSj1nYXyHqxMnSWXK7ZSdG89Ydx+1rpaKS9aSSCbiQ1wYfZuh8I01H0qtrKObQ5c6k4lRzo28yXhsqMJMOIHT7GFb4CAN7o4y048lqUyCa+OnOTbw/Iacx6pLjYFQF2/e/D6901fK7kdiUsw0uNvZVXdPiSMaVwZNz9AzdZlrE6fXfFVqBYqFJK1lb6Te6Ss5861yMClm6t1t7Kq7F6fFU1YlaEZPMxDq4r2BF+iburLhhGIGTWp0Bc/wbt8zjEb7y15quiw+dgSOUO9qW1Lo+k4RTga5On6SwVB3xWUel0LFiYWeM1EvjR1jKj5WYUqc9cJvDRyk2lFf1oWZHVswzOnhV7k2cXpNXzzLQUZPc3bkDc4Ov0EkNVWWFakIlRpnM9trjlTkXNZsKLWbq+MnCSWXXo27WlSUWGTX8VEujR2jP3SVtF5ZeQYmxUTA0Ui7b2dZ80Mlklg6zJXx97gw8g7xzFpOuFo+EukYJwdepHvyHKkyJ305LR62VO8j4GysON8FQDwd5srECXqnr6zZUGpFHVVNz9A3dZXLY8eZTgQrzKoAm8lJu38ntc6WsnwVGS2ba3Bh5B0mYoMVt3+rh2Qk2sepwZeZiA2WtSxThEqNo4mt1QcxVah1MRLu5dLoMcbL3MfVpmLEIltVOsXF0bcZCt8se/16p1CEitceoMO/C4fFnb95UaTUCSUnuDT2LjemLpRlbq9npNS5NnEqWyiYjpQVZnRavLT6tuOzBsrOe7mTpLUkXcEz3Jy8sOS099WgYo5oRk/RHTxPd/B82RfLncSsZgfK1Lvby6p4TGnJbNXs2AmS6cqqb6kUEukop4deYTjSQ6aMh4VZtVLvaqfJuxlVVF5Wp0QyFR/l0ujxiswdWoyKEAspdSYTI1wZP854bKAiTTS7yUW7bycuiy9/06LoUmcyPsLV8ROMRPvW3BNlpdClTt/0NS6NHSOaCpV1nLz2AK3e7VhNtrIiVXcaTc9wc+oi14PniK2xUGpFiEVKS3Bt/BTXg+dJVFhVKbkOWFWOOpq9W8pybKa1JP2hLq5PnidTYfUtlYYuNS6OvstomU9eh8lFo2cTfnsdypJ6itwZJJJwcpKLo+8yFL6xpqJhqy4WutQZjvRyaew9gvGRigwrWdTs2EGvNVCyp11KnenEONeD55iIDZf1tNxISKkzHh3gysQJYunSp5TPdCzLznct7VytFLrU6Q91c2U2lFraPq4Wq3w0JbF0iEuj7y4pi+9OYzM5qHe3YzOXblVk9Ayj0T5uTF6o2P2rNLKW5mmCsSH0MlKkffZaWr3byvItrQySRCaave6nLq+ZupFVFQtN1+ibvkZX8EyuhXrlHTBVMeGz1VDjaMRa4sWXzasI0Tt9mbHYQEVaTZWILnVGor30TV8tK+/CZrJT42zGb6utWOtCSp3x2CBXxk8wmRhFr8BrP59VO5KS7KzSK+Pv5YpsSl+frgQmxUzA2YTXXlNyW38pdYLxEXqmLhu+ihJJZuJ0B8+WtRQBgd9eW5HFZXNJaQmuTpziRjAbSq1062LVjqSmZ7gxeZ5r46fK9nyvBCbFQpW9DntZjs0UE7FBRiP9hlVRIrrU6Jm6wkRsCK0MJ6DL4qPKUV+ywK8kUkom4yOcHXmDsWh/xeferIpYSCRj0QEujh7LHaTS16UrgRAKDrOLakcjVpM9f3NBpJRE0yGGwjeIpqYrVgwrlZleHzemZkZUlnb8bCYn1Y7GslsIrBS6rtEzdYkr4yeIVPh1sipikczEuDZxkhuT50iWsSZdKRSh4DB78NtrSm6uItGJJKcYCt8sa91tAGk9Te/UZZJavORbyKJaqbLX4rH6lziW4c4ikcRSYc6PvMVgqLssK2qlWHGxkEiGwje4Mn6SqcR4RZvnilDxWKtwWrwlZwRqeobp5DhBI1xaNjJXoTudmCg5KiKEgtPswWHxIlb+Mi8JXWoMR3q5OHaMUHKyZCtqpVjxoxhLhbg6cYq+Cg6VzqAIFY+tGqta2hKE3JCgqfgY02u4JHm10aUkkppiNNpLRpZ+rTjMHtwWb0VbFjOkMjEujx3P9XCprGrrGVZULCSSvumrXB49TjhRmaHSuahCxWP1lywWEkhqMSbjI6QyldW8Z20hSWXijEeHcp3dS7teLCY7Lou/Irt/56NLnYnYEGeGXmM6MZ6/uSJYUbGYio9xaew4g+EbFTdVbD5UxYTL4sdsKi2/AilJpGME4yPoGFbFUtBkhqnEKJqeKVEqwG5y4M6JfSU7OWfIaCm6J85wbeJ0RQ6XWjGx0GSGvunLdAfP5qaKlXrqVx6TYsZt9WNRSnVuZvME1lIqb6WiS51QIpgt6S7xWJpVCw6Lu6LDp3ORZJddF0beJhivvPEBKyYW04kJuoPnGa3gUOlcFKFgN7uwmZ0oSqnt8yTJTKziQ2FrgZk+ILF0pGTfjxAqFtWGWTHDGvBbkCsP6Jm+TM/Upcob1Zn/wp1iIjbEQKiLdNlt31cWIRQsig2TMJdswEopSWqJbH5FiU9Dg1uRQCITI5WJlyy8AoHN5MBqcpZ8DlcPSTwdoWfqEtF0KH/jqrIiYpHRU4xF+rKTmdbIGl4gsJjsqCVbFdklV1KL5cqPS7vADW5FSp20liShxUu2LMgtJc2qpSJ7WyyEpmcYDN1gKj5aUVb4ColFmon4EJHUVFknfDWYyd7MRkJKudAkGT1FNBWqqBO9ltGlji61ki0LIJdjUcr5W310qTGVGCMYH6momqkVEYukFmcqMV5RO14Moky7QEqZvbiNJciyoMtsNmw54mtRbdhMjjURDZlLSkswGR8hIysno3NFxCKVSRBKTqyZJYhBZSHJLkXKEV+Tasl2Yl9bWoGmZ5jMhYwrhRURi4yeJp6OlXWyDZbG0sNvlXGXybIWIaAg1kQGZz5S6sRS4Yqaj7oiYqHpmbK82QZLQEpSWoJocqrs4y5z/UMrwSIUQilLtnTkmnxI6WjEM9GK8vGtjFjkogOVtOMbgYQWYyI+XHYTZF3PMBLpzaVarx6KUHGY3WU1sklpCZKZtWfV6rpOPB2uqEzn0o9+GWQdfmtNKCSa1JAlP1UFilAxK5b8DSuKRBJPRxkMXWciNpS/eVEkkon4UK6waXVzYwQCu9lVVou8tJYkXcFl3wshs8ZhRVH60d8g6FInmgqRyiRKjomYFAsuqw/TKguGnmsWfG3idG4/iieZiXF66FUmoqs9x0WgKiZUoZYV0ZDoyFX9/euHFRELIUTOhCz9ZK8mmsyUZREpioJFtWE1rW4Bk0QylRjjzPBrXB5/r2gLIZmJcWX8JKeHXiOaDudvXlGEEFhNuWNZhmWRzCRIrkF/maDyMtRLP/plYFLM2EzONeWV1nWNaCpEUouV3HlZILCqdlwWz6qfcU3P0D99jddvfocrY+8RK7AO1mV2ny+NHefl699kNNK7ylZF9lg6zN4yK0claS2RFckSz+Fqo+Sa95STQXynWBGxUIQJi2or42SvHjLXwCaZiZdsxmZrEpz47HUoK3OICzIzkPeZq3/F270/YjDURSg5QTwdIZmJE0uHmU5O0D/dxbv9z/BPV77CzcmLFTEtSxEKHqsfp8VTsmWR0dMkMrEFxbGSURQVm9lVEdfPDCvyS0yKGYfZtaYsC3IXWyQ1XUbnIoHV5MBrraqYfdb0DAPhbp7v+jrfuvC/eL7rG7zb/yynhl7hnb5n+HHX3/Kdi3/Ec9f+mpFIb1nLrzuBIlTc1iosqq3kcYQpLUk0Har4jmzzIYSCy+Ito+L5zrEiYmE12fDYqlFE5ex4MWh6munEOEmtxG5XIjvFzGevraguTVJmKxpvBC/wxs3v8cMrf8F3L/4RP7ryF7x+89tcnzxLPB2pqPW9qpjw2+tQhblkn1cyEyOUmCClJSpqn4rBJMz4bKXPqrmTrIhYWFQbXmug5Ka3q42mZ5hOjJXcV0AgMKtW/LY6XBZvxS2/JNnalVRuCZLWkuhSr7hcBCEUbCYntc4WTGrpN008HSGcnKyI5VSpWFQbfnttNlW9QlgRsTArVgLORlwWX8XdOIXQpcZ0YiKbSVfik8msWPDba/Db60teaxtkEQh8tgC1rqaybpp4Jko0Hao4EVwMRahU2euostdX1AN2Ra5iRVGpdTZT42xaU0sRXepEUtOEk5Mlz3NQhILb6ifgaFhT+1xJqEKl1tWKw+QuWXAzeppQMkhkCenuq4VJMdPg2YTXVlNW1uqdYkV+iUBQ7WikybsFm9lR8tpztZBSJ5YOEYyPkCwxqQkhcJg91Lpac9PM1sY+VxIWk50O/y5sZlfJFmlKSzARGyKcmlxTYVOBwGnx0u7fidPizt+8qqyIWAC4rD42V+2h1tlaUWpZCIkkkYkxER0sy29hMzlpcHdQZa+rmKjIWkEIBb+9lmZPJ5YSp8EBxNNRgrEhEunYmrIsVMVMu38nrd6tJY+guNOs2F2rChPN3q10Vu/HYXavmSdtRk8TjA8Ty4RLXvuaFBMBRyPN3s41I5CVgkmY6PDtwmOrLnkJAhBOTTIRGy45R2Y1EULgtVWzu/aeivR1reiv8Vir2F5zmCbvlooKKRZC09OMx4aYjI2W3LVICAWvrZp2384159xdXUTWEq3ei93sLPm4aTLDRGwoO3S75ELA1cOi2tgaOEhH1W5sJQ7iXglWVCwEgkbPJrYHDuOzBkq+CFaDmZZuI9Gekpci5C6ARs9mWr3bKu5JUakoQqXFu5UGd0dZ1bvxdITRSC+hZOVPvZtBESo1jmb21N2Hx1pdkZb3il+9dpObrYGDtPl3YCl10tcqkdRiDIVvECujqGpm7d1RtRunxVuRF0FlIXBa3GwLHMZrC5S1fJtOjDMQ6kYr0RJcLQQCm9nJrrqjNHs7c93IK4/Sz8QSEUJQ42xmW+AQVfb6si6GlSatJRkM3WAiOlRyCFUgcJjdtPl20OTZsib2dzVRhKDFu412/05sptIjZxk9xWi0n5FIT8WkrC+GIlSaPZvZFjhU0cvVVblyraqdLdX72Vy1F6vJkb+54tBzU7F6pi8TK2MGpSpM1Lla6Kzeh9PiKfkG2Eg4zB721N9LwNFYVn5KNBViINTFdGJ8TXRmEwjcVh976h6gwd2BqYJ9easiFkII/PZattccod7VVtZFsdIkMjF6pi4xlRgruWxbiGzsvLP6AB3+3UYYdQGEUNgWOMRm/95cbkppSCmZTIzSO3WFdMnFf6uDqpjYVLWXzdV7sJtdFf0gWRWxIHeQ2nzb6aw+gNvqr1jTa4aMnmYk0kv/9LXSE7Rypmadq4XdtfdQ62yu+P1deQQ1jib21t+P315X1gMkkYkxGOpmMHx9TSxBhFAIOJvYVXuUantDxS9RV+3XCQQui49tNYdpdG+q+FCqzEVFbkyeJ5wMlmziCgRWk5NNVXvYUXMEm9mV/5YNjUW1saf+Plp92zGXkYQFEEpNcG3iNLFUaE0kYllUG53V+2n1bc8txyv7AbJqYgHZmpEm9yY6Awfw2gK5UXOVS0qL0zt9leFID+kyeiQoQuCz17Cz9ihtvu0Vv78rhRCCrYH97K2/H6+tuqwnbNYJfZ3rwfMVNZhnIWYszW2Bw/httWXt80qzqr8wGzJysb3mCG2+HVhM5T1RVgpd6kzFR7k2cYpYKlxyI19ypestvq0caHiYenfrhl+OCCGoc7VypPlxGt2by25yHEpOcHnseNbqK/m8rCwi1618Z83dtHg7y7akVppVFQtyT9saRxPba45Q7aj8dVsiE6M7eJaBcHdZ8zQEAofJzfaaI+yrfzCbzrxhBUPgtdZwT8tH2VK1r+y8m5SWoH/6Gt0TZ9dECz1FUWn1bqUzcBC3xb9mHN4VcGcKLKqVLdX72Fy1t+I9wrrUmIgNcXb4NUJl+C7IObY8tmr2NTzIztq7sZmd+W/ZENhMdg40PsTuunuzPTbLOu+SUDLI+ZG3mUyMlnU+VhKBwGsLsKP2burdbahlNPVZLSpALLI3j88aYFvgELXOFtQyPOErSTIT40bwIjcmz5Mssr1+PqpQqHE2c1fz42yvOYKljFDhWsZmcrC77j4ONX4gl5xX3jlPagluBM9zbeL0mui1qSpmOvy72OTfg8PsLlMgV4eKEAtmSnN9O9lctRdnBbaim4sudSYTI5wdfoOp+GiZYbqs/6LZ08nRlifYUrW3rDqItYhFtbK77l7ub/sJGjwdZUfCpNSZio9xauiVnJVX4b4KIah21LMtcIgaZ1PFPxTzqRixmElc2ll7N/Xu9rIvoJUipSXpnbrMpbFjJMpou0fOJLWYbHT4d/Ng+yfoDOxf9cFEdxaB1WRnT/393N/2cVq8WzEr5Tr3JLF0mLPDb3A9eH5N9NmcrSr171oTodJ8KkYsmAmlejrZUXMkG0qtYMePlDrTyQlODr1M3/TVssN12fwLO5uq9vBQ+9NsCxzCZnasQ8HIThbbVXsPD7Q9RYtv25KiABk9Te/UFY4PPE8iEykjMrWyKEKhwdXB9poj+NdITVQ+FfWLszeOjZ21d9Pq3baEp87KoOkZRsK9HOt/junkeJnLkZn9drCpai8f2Pw5dtXei6OMoTqVihAKLquXAw2P8MimT9Pq27akJZeUOlOJcY4NPM9EbKjs476S2M1uttceyYZKy2g+XAlU3NWoCJVqRwM7a4/it9dV/A2TzMTomjjNqcFXyl6OMGdJ0uzp5LEtn+fulg/jt9VWVHfnclCFSpW9nntaPsIHNn+WZk9n2bkU5FodRtNhTg29wqXRd8mUEb5eaRSh0urbRmf1flwWf8Vf0wtRkb/arFjoDOyn3b+z4voQ5iORhBJBTg2+zPXgudzFW75gmFUrta4WHun4NI9s/jT17vacub7WliUCs2qhydvJBzZ/lofan6bG2bJkX1RKS9IdPMPbvT8qa0TDauC1VbMtcGhNlDUUQv3yl7/85fwXVxshsjeNSTExEL5OJFXZ7dwlOolMlEhqikbPJlwW35LWpEIoWFUbDe4Oal2txNMRYukQGT1d0cdhBkWouCxettfexYc2f55ddUexW9xLOibkln2D4eu8cO3rDIVvlFz9uxqoioltgUMcaf4QVY616auYoSLFgtwN47FWEU4FGY30ZidhVzBabgJ5MhOl0bM52ztyCReGECI3uq+Wdv9O7GYnkdQ0aT1VcgOelUIIBYfZRYOngwfan+LBjk9kW+OpliU7bHWpMx4b4MXrf8fViVNlZc+uNAJBrauFoy0fYUv1/rIGJVUSlSsWCBRFwao6GArfYDpRvgNxpcjIdG6ojU69uw2r6lhSREcgUISKzeSkybMltySxkMjEyOjpsiMwy40Q2VqHWlcr+xse5OH2p9lddw9O8/IM9tWlzlRilDd7vs+pwZdzvVAr38KymRzsrr+P/Q0PZTtgLeFaqAQqVizI1Y04zC6SmRjDkR4S6Wj+WyoMSUpLEEpOYFGzIxstqm3JF8mslWGrpd2/iwZ3O4pQ0aSWm1Gqr4KQZn+T0+yh3t3G3voHeLDjk+yvf5CAMztucKn7TS7yEU4GOdb/LO/2P0s0Pb0mlmJCCFq8W7mr+TFafdvWtK9iBiErPO1NlxojkV5+dOUvuDz2XsUvR5gzdu/+9o+zr/4B3JaqZblxyDlUNT1DMhOjP9TFlfET9E1dYSI+TCwVIpGJ3lHhmLF0nBYP1Y4G2nw72Bo4QJNnM1bVgaqoy+aMlbnxkScHX+LVG98iGB++o/u2nLgsXu5pfZL72z6OzxZY0pK0Uqh4sSBXVXhq6BVe7P47RiN9a8OxJUzUudu4v+1j7K1/cNmrCyUSXddIaDGCsWEGw9cZDF1nMNTNdHKCSGqaRDqay2xc2ik2qRbsJidOsxeP1U+Tt5MGdzvNnk4CzkbMinXZn5xSSiKpSc4Mv8GbPd9nONJTsb6afFTFzNbq/Ty6+XNsrtq75n0VM6wJsZjJlnzu2l9zavDlslryrwaqYqLe1c49rR9hX/1DeKzLZ2HMIJFIqaPpGkktxmR8lLFcd+ux6ADh5CTR1DQpLUlKT5LWEmi6Nq8prwgFgYJZtWBV7dhMDuxmF15bgICziXpXGwFnI15rAJvJgaqYyi4AK4SUknAyyJmRN3iz53uMRvrWRDr3DFX2eh7a9Enubn4CexlzWiuVNSEW5DohXR0/ybPXvkZ/6FrFOPcWY0YwjrZ+hH31D+C13rk09hnh0KVGRk+T1pKEk5NMxkcJpyaJpkMk0zGSWpxUfh9RIbCoNiyqFZvJicvqx2P147FW4bUFZq0HRSgIodyxG0BKSTA+wumhlznW/zyj0f41Y1GQq//YXXcvH9j8ORo9m9dcsVgh1oxYSCkJpyZ5/eZ3eKfvn5hOBJdsXq8UqmKi1tnKkeYPsb/+wVy8/c5fRFnxkOhSQ0qJREdKiSYzZPTULdaFgoJJsaAIFSEEQigoKAghcrkBd0Yc5iKlZCTay3sDL3By4CWC8ZE1seScQSBo8Gzi4Y6n2d/wUFlzTyqZNSMW5IqHeqYu8ey1r3F94mxZfTBXC1WYqHLUs6/+QfY3PkiDe9OS6iOWynzLkDtlLRRDRk8zGLrOu/3PcH7krTURKs/HbnZxoPERHun4NDXOphV5IKwka8pFa1JMNLjb2VlzV64qde38/Jlhve8NvMBrN75D98Rp4qvoexHz/LNaxNIhLo8d58Xrf8fJwZeZWoNCoSom6lxtbA8coarMUQaVztq52wBy1ZlbA4do9W3HopbXs3G10KXGdHKC8yNv8fKNf+TU0KtMxkfmfcpvFIKxYY73P8+L3d/k4ui72Tb+a0woAJwWD53V++nw71w30Y981phYZM35akc9u+ruoXoJ7dhWCyl14ukI3RNnefXGt3j95ne5MXmBpBbPf+u6JqUluDF5nldvfovXbn6XnqmLJDOxNSmcJsVMk3sL22uOZLu8rSGLtxTWlM9iBil1xmODvHLjHzkx8BKxdCj/LWuCbMGVjzb/dvbU3ce2wKHc5PC1JYClIKXORHyEq+PvcW7kLXomLxFNr01rYoYqRwMPtH2cu1s+XPEtIZfCmhQLcqXKV8dP8FzX1+mfvramwmtzEQjMqo0aZxNbAwfYUXMXLb6tOEyeOxZiXQ0kklgqxM2pi1wYeZtrE6cJxofJaGujknYhLKqNHbV38diWn17zJeiLsWbFQkrJdGKcN3u/z1u9PyScnMx/yxoiG550mN00uNvZFjjEluoDNLjbsZlmitHWpnBIKUlqMQbDN7g8dpwrYycYifTc8bT0lUAIQa2zhUc3fZYDDQ9jM6+vUGk+a1YsyIXbbk5e5IXub9A1cWbNTM5eCIFAUVQ81ioa3B1sqtrDlqp9NHo2YVXta0g0JLqUJDJRhsM36Q6eoWviLAOhbiKpqZxIrNnLbha72cX+hgf54OafotrRuKZ7VRTDmhYLgEhqmhODP84WGsXWTqFRIYQQqMKE21pFvauVTVV7affvoMW7Datqz16UYnXDnfOh57JH4+kwfdPXuB48R+/0FUYivYSTk2hrpHlPMaiKiSbPFh7v/ALbA4eX1Hx4rbDmxUKTGkPh67zY/U3Oj7xJMrN+ogozouG0eKl2NNDs3UKHfzeN7k34bLVYVGs203IVLY4ZgUhm4kwlRhkK36A7eI6B6S6C8RFi6RCanlk3IjGD0+LjntaP8GD7J/Baq9dtBGQua14sAOLpCOdG3uTH3X+7ZqpSS0GQTb+2mRz47DVU2etp9W6lwd1BjbMFv6MOs2KZLQS7k45RKfVsxavUSWtJxmIDjEX7GQx10x/qYio+xlRijGQmPvve9YZJsdDh38kT236Wdt/6zavIZ12IhS41xqIDvHrjW5wYfJF4OpL/lnVBVjSy3bNcFh8uiw+/vZaAs5GAo4k6VyvVjgYcFk+2+UzOcfp+IreYNUDmX8Lkbu3cf8ms9yFbVyJ1MnqaaGqa8dggo9F+xqMDjEb7mIyPEklNEU9H0KS2psOgiyPw2qp5eNOnONr8RHZkw7zHcv2xLsSCOVWpz3d9nd7pq2s2lFosM8KhKmYsqg272YnT7MFl9eOzZa0Pn60Gr60au9mFRbXeUjk6tweFzAluWk9mRUFLk9ZTJLU4sVSYcCrIVHyUYHwkW8GanCSejhDPRElm4mgykxsduC4upYJYVCvba47w5PZfoNbZsq5zYvJZN2IBMJUY463eH/Jmz/dzvTDXza4tgkCI95crFtWGzeTArFqxqnZMigWbyYHD7MJiyv5/u9k5J11ektKSxNMRdKmRyMSIpcIkMjFSeoKMliKZyZW2a6nsMk/OHN2NcoyzPqSAo5EPd/4z9jY8UPFjKpabdSUWmp7h5tRFXuj6BtfGT62pqtTlRswuObJGsiJMqIqKIlQUoeT+dyaBKFvGPuOI1KWOpqezpe0AuUtk44jv/FhNDg41PspjnV/Ab6vZEE7NuawrsQCIpKZ4b+DHvNT9TaYT4xv+Al+Y91faG81CKAdFKNS62nhqxy/RWX0Qs7p67QVWi3UnjQ6zm01Ve+io2oVJ3Rhe6vKQs/8YQrE4FtXGzpq7afZu3TDRj3zWnVgoQqXO2cre+gfw2+rWfVadwZ1HFSr17g4ONT2K07y+anZKYV3eSRaTjVbvNrbXHsG8xnpeGFQWAoHN7OJQ06PUOJvWdaHYYqxLsRAIfPZadtTcRYO7Y81PIjdYPVTFRId/Nztr7saywaIf+axLsQAwK2aaPJvZXnNoXbVjN1g5BAoeWzUHGx/O9RlZt7dLUazjvRe4rX62Vh+k2duJukGdUgblYzFZ6aw+wOaqfavaXLlSWMdikW3B1+DuYFftUdxWP2J9767BMqIIhWpHI4caH8Vl9W24nIr5WPdHwJ4LpW6u2ovFZDg7DRZHILCZnOypu5dGz+YNGyrNZ92LhSIUapxN7Kg5QsDRsOHXnQaLowiVZm8nu2rvwWF2G/6uHBvizrGqdlp929lctQ/rOpsSZbC8CAROi4c9dfdR42ze0KHSfDaEWAih4LfXsTVwkHpXm2FdGCyIqpjoqNrN1sABbGanYVXMYcPcNWbFQot3K1sDh3BuoB4EBsUjhILPVsu++gfx2+tQjYfKLWyYoyGEwGOtYmvgIK3e7YbTyiCP7BT5HTWHafftzCVgGQ+UuWwYsQBQFDXbar/mED57jWFdGMyiCIU6Vyu76u7FY6sylqrzsKGOiEDMVqW2+XYYoVQDmA2VOthZczeNntWdbl/JbCixILcurXE00Rk4SLW9wUi2MUAIhRbvNrbWHMxVlRrXxHxsuKMicpPYN/t3s7l6H3aTM/8tBhsIkSsL2F13L/WuNkyGVbEgG04syK1Pqxz1bK85Qr273Yilb2BMqpnNVXvprN6XTcDaoL0qimFDigWAKsy0eLawtfoALovP8HxvQIRQqLLXs7vuHvyOesOpuQgb9ugIkTU/OwMHaPJswWRYFxsOi2qdDaVnO3UbD4xCbFixAFCUbFVqZ2A/XpsRSt1ICKFQ72pne81hvHajV0UxbOgjNBNK3VZ9iHb/TiOUuoFwmF3srL2bZs9WLMr6H2q8HGxosYBshWGNs5ntNYepdjQaPS82ALOh0sBBPFa/ESotEuMoAWbVyib/bjZX7cFuduVvNlhn+GwBdtUepc7VimL4qorGEItcKNVnq2F7zZHsBbSB5lduNFTFzKaqPWzKPRgMP1XxGGKRw6RYaPVuZ0tgPy6rL3+zwbpAEHA0sKPmLmocTajGQ6EkDLHIIYTAZfGyu/YeWjydRn3AOsRmcrCj9m42Ve3BajJCpaViiMUcVEWl3tXOnvr7qXY0GuG0dYQiVNr9O9lddy++DTjUeDkwjtgtCGwmOztqjrC/4UHjolonKEKl0bOZw00fpMXTaaT3l4lxJ+QhhILXFuBg46PsbXgQr7XaEIw1jCJU6lwt3NX8GNsDh7GZjFZ55WLcBfOgCJWAs5G7mz/M/oaH8NlqjAjJGsSkmKlztXJ3yxPsq38wN//DEIpyEVJKmf+iQZaMnmYs2seJwZc4M/QawfgwGS2NxDhklYwQArNio8Hdzt0tH2Z33b2GhbgMGGKxCJqeIRgf4eLoO5wZfp2h8HXi6Qi61PPfalABqIoJl8VHm287BxsfpTNXVWxYFEvHEIsi0KVGJDVN3/RVzg6/zrWJU4QSE6S1lGFlVAhCCKyqnWpHAztrj842szHa+S8fhlgUiUSS1pIEYyNcmzjF5bFjDISvE01Nk8okDNFYJRShYDU58FiraPPtYGft3XT4d+O2+o0O7suMIRYlokuNeDpCMD7C9eB5eqYu0h+6RjQVIpmJk9aShnDcYYRQsKq2WZFo9W2nw7+Ldv8uPNYqrCa7YU3cAQyxKJOsaEQJJ4OMRHsZCt2gL3SN8egAiUyUjJ5G0zOGcCwTAoFJMWNWrTgsHuqcLbR4t1LvbqfG2YzL4sVqchgicQcxxGKJSKmT1lMkM3FCySDTiTEm46NE09PE01F0qeV/xKBkBKpiwml247T4qHbU47FW4bL4sZhsmBSzIRIrgCEWy4hEoksdXWpIqWf/zX+TQVkIBEIIFKGgCBUhFEMgVhhDLAwMDIrCEAuDZUciZ302ilAwKRajKG8dYIiFwbKS1pL0TF3i2sRpphPj2M0uWn3b2Vp9EKfFk/92gzWEIRYGy0ZGT3N84Hle6PobgrFhpNQRQsFhdnO4+UN8uPNncJjd+R8zWCMYtqHBMiEZCt/guatfYzw6kHXyInPZr1O81fMDTg2+bISS1zCGWBgsC7qUXBh9m2B8JH8TACktwXsDP0bTM/mbDNYIhlgYLA9SZzTSl//qLUwnJ0hpifyXDdYIhlgYLA9C4LEF8l+9BbvJafQ2XcMYYmGwLAihsC1wELvZmb8JcqXju2qPYjLEYs1iiIXBsiAQdPh3c0/rkzgtnluyKy2qjW2BQxxt+YjRV2INY4RODZYRSSwd4fTQq5wdfp1oKoxZtbC5ai93Nz9OtbPRSNFewxhiYbDszJTxJzNxTKoFh9llLD/WAYZYGBgYFIXhszAwMCgKQywMDAyKYoMuQ25NOs663JbL8Zb92+U48iQSKfXZzuGKUO5Y3waJLHm/Z45asb8n+x3FvXeGcj6T5f1zWup+LQcSia5rSN7v+i6Y6b1R2m/J9kGRCJSSP3sn2RBioUmNlJYgkY4QS0dIZKKktSTkLnyzasNmcmAzO7Cqjmz3JWEu+kTJXDPfqcQY04kJpNRwWnxU2euyE7AW+DsSSUZLE8+ECSeniKQmCScniaZCswVYHqsfl9WPy+LFZnJhVi1l3kxZx2M4OUkwPkIyE8NmclBlr8dl9c9bQi6RpDIJoulpwslJEpkYIHGavVQ56rGbXbf9FokkmpomGBsmlg5jNTnw2Wrw2qoXHNSkSY1QYoKpxBgpLYHT7KHKUYfd5F7w2Om5cxpLR4inwyQysdlzqiombKoDh8WN3ezGqtrvyMjCjJ4mkYkRTU0RSgaZio8RSU0jBEgpsZtd+O11eG0B3BYfNpOz4O9I6ymmE+OMRfqJZ8J4rNW5loG+gp9bKda1WGT0FOHkJP3T17g6cYr+6WuEkkFi6TCZXBt/IRQsqhWbyYnL4qPW1UyTZwutvu1U2+txmD2Y1IXbtkkk8Vy48M2e7zMRG0KXOl5bNbvr7uWhjqfx2gK3fH5GXCZiQ1wZf48rYycZjfYRSU3N/i7Itrc3KRbcVj8BRyNbqvaxveYI1Y4GbCZHSUNzND1Dz9RlXuj6On2hayTTMWxmJ62+7Ty+5adp9m6dFQyJJJmJMxy5yfnht+gKniEYGyGeiSAAl9XPrtqjfGDzZ/HZame/Q0rJcKSHH3f/DdcmThPPiUWju4MPbP5JOqv33yYYmp7h6sRJXr7+9wyGrpPSErgsPrbWHOIDmz5LwNF4y35mBW+K/tA1royfoGfqEuHkJPF0hLSWAiQmxYzN5MRt9dPg7qAzsJ9N/j14bQFMimnJVkf2wTDOjcnzXB47zkDoOqHk+GyX9+z5E7kHkQWfrYZmbye7ao/S4d+F21p1W+fxlBbn4ugxXrnxjwyHb5LWU9hMTtr9O/nQ5p+kxbsVdZW7la9LsdClTjQ1zZXxE7zT908MhLrnDAYqvLtCKKjChNPiodG9iV1199BZvZ8qez0W1Xbbky6tJTk99BrfvfS/CScnb/n7NpODI82P8bHtv4jNlM1s1GSGUCLIyaGXONb3HOOxgaKmnAkEqmLGZw+wPXCEe1o/Qp2rDYtqy3/rbUipMxrt52unfpv+0DXmnnJFqLR4t/IzB36DGmczutSYiA3zTt8/8d7Aj5lOjM/bR9SsWrin5aM8tfOXZ8OioWSQb5z+r1weP4G8ZQiToNbVzM8c+L9o9W6b87rk5uRFvnb6/2YiOnjLMVCFid319/LZPf92NskrmYlxY/ICr938NtcnL5AoosfpzMOgybOFe1ufZGftUZxmd0lCO4MuNaaTE5wffot3+55lNNZHMhPP29f5EULBZnLQ5tvOA+2fYEvVvtmZJrrUuTZxin84//uMRQdu+XuKUNlctZfP7PnX1Llalix0S0H98pe//OX8F9cyutQYjfbzfNdf8+qNf2Q43ENKK2WuR7asOpmJMREbpGviNNcmThFLhfHaqrGbHLc8HUPJCZ7t+hqDoeu3CVFGzxBNTdHh302VvY60nmIw1M33L/8p7/Y9s+CNuBC61IilwwyEu7k6cQpVMWdFzGRb0PIB0GSad/ue4cTgS7dd2DPLBpvJwaaq3fRNX+XbF/6AU0MvE0uHFjxuutSYTkywp/5+nBYvUkoujL7Dyzf+Yd59iqbCCAG7ao/OCm5Gz/Bc19e5NnHqtu+R6ATjw9S72mhwtxNNh3ir94f84PKf0R/qIl30OZVoeobJ+BjdwTOEEhM0ebdkO4EvsMSZj7SWpHfqCt+79L95p+8ZJuPDZPSsJVMckoyeYiI+TPfEGTSZodbZikW1kdaSvND9DbqDZ287dhJJLB2iztVKo2fLvMvFlWL1vvkOoOcqH7936Y853v8CkdR0kRfU/EgkKS3BYOgGL13/O7557vfoD3XN3nASSTg5yUikd4GLRhJNhemZukRaS3E9eI5vnvs9Lo6+s6TqS03PMBbp50dX/oIfXvlzJuOjBfczraXpmbp024U4gy41bkxeoD/UxTfP/R5dE6fJ6On8t91GPBMhGMuWpEt0eiYvFShBl1wPniOtp2ZfSWtJBkJdsIBxm9aS3Jy6QDg5yY+7/obnr/11zie0+JP8diTRVIhj/c/x3Yt/RDgZLPrvJDNxzo++zd+c/V2ujJ0gmYkVPN6FkFJnKjHOy9f/gWeu/RVTiTGiqWnGIv0LHru0liQYH0FfYPtKsY7EQjKdGOe5a3/N1bETOdVfLiQpLcnNyQu8dvM7JGdudAkpLUlGW/jGyj6Bx+kLXeHbF/6A/ulrC960pSBzvpL3Bn7M9y79MVMFBEOTaWLpcP7Ls0gkU4lxnrn6VwyGuhf8O7eT7badRaLLwhdz9li9f1509AVvkBkiqWne6Pk+b/b+YNbBuhQyeprzI2/z0vVvvn8eC5DSEpweeoVvX/gDxnJNfZaDRCbKiYEf8+OuvyGUDBacnSsBTV98qXqnWTdikdbSnBl+lUtjx255et2OQBEqZsWCWbVmZ04Uadpl9AzD4Z6cb2IuC59EXeoE4yP86PJfMBzpWfYTntaSnB95ix9c/nOiqen8zUUhpWQiNsTV8ZNF/z6BwGOtIuBozN9UkPy/vthCoGfyEq/c+EeSmcVv7GLJ6CmO97/A9eC5gmKl6Rmujp/iR1e/QihZrkWzMMlMnBODL3Js4LklWZorRXF3yRpgMj7CycGXiaUj+ZsgF1mwmZzUu9vYU38f97c/xUMdT3Ok+TG2VO2lxtmM0+ItOLBG5J7CpaDJDJdGj3Nj8sJtF5vITdlymN347LUEHI0EHI14bQHsZlfR4bIZwXiz5weLCOXCZPRUUUsPcr/bbnZxtOXD+Ow1+ZuXlZkwb77MzBw7s2rBrFpQFdOC520+oqlpXr/5HZJaLH8T5M7zSKSX71/+E0KJ4C1O4YVQhIrVZMdrq6bG2UStq4UaZzM+W032fM4TOo6nIxzrf56x6ED+popjXURDdKlxvP8FvnPxj4ilQ/mbs09BWzX3tj7JocZH8dlrUUX2RpTopLUUoWSQwXA3l8feo3viDKFkkKSWuOUGN6tWDjY+ytO7fhWbyYmUku7gWb5y4ktEUlNzvrEwAoFJteC1BdhStZfO6gMEnE1YVTvkfAGjkT6ujL/HzcmLhJLBRW9kgcBrC/DFQ79Jh3/3LTdOJDXFV058ia6JM7d8phQUoc6GmN1WP0eaHuNo6xOzUR5dZvj2hT/ktZvfyf/oLNWOBv7d/X8y2+U7mg7xh2//GwZKWPqYFDNOi5cqex31rjYcFg8SSSgRZDTaSzA2QiwdLmq54LR4+IXD/4UO/+7bQrrxTJR/PP/7nBp8ddElrSIU7GYXDe5N7Ky5izb/DlwWHybFjK5rRNNhBsJdXB49Ts/UZaKpabRFlmxzUYTKI5s+zRNbv1hU9OtOsS7EIqUl+MHlP+ONnu+jzXNTWU12Htn0GR7d9BlsJseCxq/MjSKciA1xcfRdTg6+TDA+REZPY1IstPq28bFtv0iTdwsCUZZYKELBafGwt/4B7mv9CWpdLZgVy21LIV3qpLQ4Q+EbvHT9H7g6foL4AlbTDKpiYkfNEb6w/zewm12zry9FLBSh4rL4aPZuYUfNXbT6tuG31+GxVt1yg62EWDjMbrbVHObe1idpdG/CZnai5IzjmUjRzcmLvN7zXW5MXpjNu1gIRSg81PE0H93287fchFLqXBh7l2+c/q9EU7c/fOaiKiZqnS08sunT7Ky9G6fZi6qot11jutRIpKPcmLzAS9f/nt6py0VH6SpFLNZF6DSRiXJ84HlGwj35mwDw2Wp4dNNnqHU233YS5yJEdqam2+qn1beNHbVHaPZsodnTyeHmD3Ff209Q42y+JXw1GR/h1NArRa05FaHit9fxxNYv8vCmT1PlqENV5s8UnUnI8tkCdAYOYlGtDIS6Z7MU50NKnWg6RLt/JwFn0+zrKS3BqaFXFmymOz8Cq8lOZ/V+Prb9F3m442k2Ve2dk5V6q7hJdC6NZZ+cC+Ewu7m39WNYVCsAaT3J8f7n5vEB3Y7T4uWxzs/z4S1foN7VjtVkRxVqbpyhks3aNDmoc7WwNXCASGqK0UhvQQtDIlGFiQOND2HO/SaApBbjB5f+NOtjKuCnUBUTbb4dfG7vv2Vb4BB2syt3bcx3PhXMqpWAs4kt1ftIaQlGo31kCvhMZhBCocO/i87q/UUvTe8E68JnkdEzJHPZc/OhCjV3kG8/iQthUswEHI0caHiERzZ9hv31D1Flrys7zi1E1iH4se2/yJHmx3Lm++K/RwgFl8XL/W0f50ObfwqrKbtUWYhEJsbbff+0qOlcCIHAYXZxf9vH+en9/x921N6F3ewue9+Xilmx8ED7U9zf9hQOi2decZ1BCCUnyD9Lq2/7bcuLfCYToyQz8TkWiGQwdJ2eqUJh4KxV0uLZymd2/2uaPJtvy8hcCEUoBBwNfHjrz3Cg8eFZ4VwLrM7ZX2HCqSluBC/kXRTFIXLDeAtdoMVgMzm5t+1J9tTdV3IjGIHAZnZyV8uH2VN3f8EbQNc1eqeuMBUfy99UJNnv+uCWn+SJrf8Mt7WqJMfhnaDVt50H2z+BWS3+uPltNTy86VOLmu2JTIxQ8n0HpqZrXBo/vqil6LFW8+T2X6DO1VrwfMyPwG2t4oObf4q2IgStUlgXYqEqWefbQhd1Ih3l9Zvf4b2BHxNOThV8YtwJVKHS6t3GPa1P3mLulkL2ae/m0U2fxW3152+eRSKJpKa4OXUxf1NRmBQTBxoe4f62p7DkHK6riUmxcFfL4zjM7gXP73wIobC5ai+1rubblkxzyWgpYunwrFWa1OJcGTtR0KGsKiYONX2AVt+2spcFAkG1o54HOz6Jy+rL31yRLHwU1xAW1UaVo37BEyfJ5hH84PKf8g/nf5/L4+8xncjOsCiUDLNc2MwuDjV9AI9l4Zu8GBShUONs5GDjIwVvAE1Pc32eUO1iCKFQ52rjQ1t+MucIXn3cVh+dVfsL7u9C2ExOOvy75w1ZziBzQ5xnxGI6Mc5EbLDgdeGxVnG46YOz0atyydZ97Fkz1kXpZ6ACMSlmWrxbsRa4wCWSWDrMmeHX+dqp3+EvT/5nXr7+D/ROXSaUDOaEY2FnWLkIBNX2erYGDpZ1wedjVq3sqbuv4IWqS42hUHfJORcW1cqDHZ+gytGQv2nV8Ntr8diqS7IqZlAVU8nLhGB8uKBVIRC0eLfhtdUsy/l0mD3sqDmyqC+qElj63lYAWYXeS5Nn86JOOCl14ukwN4LnePbqV/nT9/4jXznxJV7s/jtuTJ4nlJwgpSVLfiovhKqYqHO34V6iVTHDjAPPY6vO3zRLVhgjufTo4hBCUGWvY2fN3WXdmHcKrzWw6DldCIHAbfUXfVNLKZmMj6HrCz80FKHS4d+JdRFfSLEoQqXZuxWXxZu/qeIo7iiuAXy2Gu5p+WjRDjmJRJMZIskprgfP8dy1v+bP3/tP/OWJ/8yrN/6RkUgfiUy0oDlaDNk4fDOmEpxzhZjxXdTMCY3ehsyuvbMO3eJQhMrWwKGCIrQaZI/b4udzISxq4YrcuUh0JuMj6HO6XeWjKiqNns0LLnnLwWOtxmmpfL/FuhELVTGxq+4oD3d8CqfFW/TTZAZdakRTIbqD5/inq3/JHx/7dX54+c8ZCmcbsiwUll0Mk2LBb68r+oItBkUo+Oc0nclHAhktXVL41KRY6Kzev6y/c60hZbYpUaE8RZNqwWerLfn6KoTN5MRpdi9JFFeC5dvjCsBmcnJv65N8ZNvPUmWvLzr2fSvZ/gfB+DBv9vyAr5z4Eq/e+BbR1HRZVoaay4BcToRQFlnjZntyaEX7YLK1HnWu1vwNG4oZv1ah8LpZsZZch7IYJsWUTc7L31BhrCuxALCbXdzd/GG+cOA/srvu3tkc/XJOriYzjEUHeL7rG3z7wh8wlRgtWTAkct4U9KUgkbBI3oecbci7OAKwqnbspvdTxDcqi+VlSCmRRYtwsSwsTpXEuhMLchGDDv8ufnLvv+eLB3+TI82P4bPXzDZMLVU4kpkYZ4Zf5/uX/oRI6tbWeYuh6Rrh1OLpzKUgpSSaLFSOLjArluItKyGwmRxl54CsFwQCc4F8HXLXQn6B4VJJZhIkMpGyl7orxboUC3In3m520Rk4wKd2/Ut+5e7/wdO7f4199Q/Odqaer4BrIdJakoujx3jj5vdyBUrFkdFTjEcLx+1LJaOnGY8N5r88i8iFk0u7+Sv7Ql0JRK7Ir9A1oUmNsUj/sp7PaGp60YK1SmDho7JOmHla1LlauavpMX5q33/g147+Hj+z/ze4t+1jNLg7cJjdmJTFW+wnMzHOjrzBaLQ/f9OCZPQ0I9FeUlrxkYlCSCmJpUIE48P5m95HZFO2rerCeScGt5Ot22gqmJehywx9oasFczFKQUpJMD5MpMzGRSvJuheLuQih5LI9G9hZd5Sndvwyv3L3f+OLB3+Tu1sex2sPFKzbkEgm46NcnThZ9JNFSp2RSC8TsaH8TWWhS43hyHzdut5H5LpYFXaCGsyH315TMCyqS50bwfPEM4XbBRRLRk9xdeLUvH1YKo0NJRZzEWTL0T3WarbVHOaTO3+VXzz8O+xveKhgdmRKSzAUulH0k0UimU5McGb49aI/U4iUluDk4IsFS9WzpdPbczMyDErBb6vNzmQpYGWORHoZCHUvucZIIhmPDXJl7L2SlrarxYYVi7nMLFWavZ18fMcvcaj5gws+XWRuJkkpEY6UFuf00KuMRvoKxvAXQ9OzJvDlsRP5m27Botro8O+u+Lh9JeK0eGnz7UBRFl6KxDMRXr/5nSV3j09mYhzrf25NtNRjvYjFTFepWDqcnUylvz/VqxRmzPcD9Q/hMGe7Oc2HJrWSbnopJRPRQZ7v+nrBWRyF0KXOZGKUH135SkGTVQgFn62GRs/m/E0GRWBSzOypvw+zsrBzWEpJ18QZ3ht4gVQZbQ/IjSq8NPYeJwZeXLQcvlJY82Kh6RlGIj18/9Kf8ZUTX+Jrp36bt3p+QCgZLNNMzPbHXDjsmA1LFvKYz0daT3Fx9B2evfY14ulwSaG37DiBMX505c/pnbyUv/kWTIqZbTWHlz0RbKMgcl2pXFZfwR4mKS3By9f/nrMjbxRsvDQfaS1J98QZ/unKV5hOTuRvrlhKu+IrkJFoH39//v/hzZ7vc3X8JBdG3+EHl/+Ur536bS6MvkMsHc6JRnEnU5MZJmKDC/a7FELgtHjK8gckMjHe6XuGb134X0zEhha1gGRuJupYdIBvXfgDTg+9XjArUwiB11bNXc2PlV18ZZAtXrur+bGC1gW5cY3fu/jHvN7zXSKzfVIWPp+a1IilI5wYfIl/OP/7jEb7SnporDZr+oqSUnJ57Bh9U1dv6Zac0pJ0jZ/mb878Ln996v/m3MibhJKTpLREdgkxzwmVSNJ6ipFID+/0PZtrP387ZsVKwNG4oE9jMZKZGCcHX+EvTvwmb/f+kOn4WG4CeLYVf0ZPk9aSJDJRJuMjvNX7I75y4kucH3lzUT+JSbGwp+5+6pwbO217qaiKiUONH6DKUb+o6IaSQZ69+lW+fua/cmnsGOHkFMncRPe0niKtJUlm4kSSU3RNnOZvz/43vnPxDxmLDq4poWDtN+yVnBh8iZ6pi/MKQFpPMR4d4NLYMS6Pv8dYNJtMoyomdKllb0w9RUpLEkpMcHroVZ65+lX6pq4sWHnos9XwQPsnqM71fCilYe8MUuqEk1NcmzjN+ZG36Z26zHhsgLFoH/2ha1weO847fc/w4+6/5czQa9kBN/Ps31wUodLgbucTO38FZ16582INe2cskiPNj5XUum4ud6phb5NnM3vq7iuY+1CI8dgAp4deXTASpSom9jc8dFsjZrvZic3k4FoRoxw1mWEiOsj50be4MPYOvVOXGQxf5+bURbqDZzk5+CKv3PhH3uz5/qJNl+djZmlkNOxdIk6LByU3A2Q+JJJEJkrv1GVeu/ltvnryP/P/vPkv+IN3/g1/evw/8mfHf4P/fezf8/9/+//kOxf/kL7pKwvOdFAVM22+HTSV4DwUZLt0q7f5QLJLjJFID6cGX+aZq3/FP174n3zrwv/iuWt/zenBVxiPDhRVOSpEtm/DR7f9HFWO+vzNBmWgCJU9dfdzqPHRojJhJZJkJs7AdBfvDfyY57u+wbNXv8pz1/6ad/ueo3fqMvF05DZrYiYSd/v1cSvZUvvVvV1X99uXiMj1WfTbaxc1F5mNmiQJJycZDF3nevAc3cGz9E5dYToxXvAJIhD47bXc3fL+YJ1iMClmdtbezSb/rgXbu8mZKlE9g6Zn0BdYKs2HQOAwe/jg5p9ke+BwwfwAg9Kwm118sPOn2VK9v2CyXj4SiZQ6utRz4jD/uRQInBYvR1s+gqdAX1UhcjUrBRyuK8Hid1iF0+Hfxce2/wL17o5slOIO3CwCgcPi5mjLE2yq2lPaSROCgKOBj+/8ZVp822YnoS0H2VoGLx/a/FPc0/rRBZ9OIrcPhRBCWfQ9i7LIx2//+6KMz9wp5v8eny3A07t+le01hwo2hS4VkatdeqjjaTr8Owu2dFSFCcfsTJLVY3W/fRmwqDb21j/AFw/+Jg+0P4XbVlV2Sfp8KLkb8oH2T3B/20+UNedBESpNni18eve/YnPVntxTamm/T1VMVNnr+MSuX+GB9qcKllariqVgByyBwGXxFWVuL4zArCz8G4BsvcqcFHQFZZGIQ9ZqWsq5NCmWguKuCDVn4s+PQFDjbOIze/4N97Q+OWeQUPkoQsVrC/DRbT/Pva1PMh4bIp6O5r9tFqvJnusAt7TvXSqr++3LhCJU6l1tfGTbz/Pzh/4zR1uewGevwaxay3aMidwEqXp3Ox/f8c95dNNnCyZqLYaaE4zP7fv33Nf2MRxmVxlWhkAVKnaziz119/GzB7/EocYPLHqTm3O5FwuZ0ibFzLbAoSU5z4RQ2FK9b8Hfogjltu+wmGxsrtqzYLak3exka+BAyTktc6lztVLtaJj3BhcIAs5G6l1t825/H4HPVsOT236BT+3+P2l0b8ai2hb5zO0oudqkdv9OfnLvv+doyxPo6FwPnivYXNlucuGxVhUUvZVgjUdDbkVVTPjtNXQGDrGz5m6qHHWk9WwIC0TuYAtubxwjELkxeCbFjNVkJ+Bo4r62n+CJrV9kS2DfghbFYtEQVTHR7tvBtprDCJE1PTdX7aHdv5N4Jko0V22Y/4tmEEKgChMm1YzD7GJLYD8f3fpzPLzpU1Q7Goq6kYRQ8FkDjMX6CcaHkOiz+2xRrWyvOcxjnV8oaJ0shkDgtVYTSU0xFLmZ87lIRG7aeZt/Jz+x45dwzJnBqgiFKkc9N6cuZlOnc84/IRSsqo27mh/nntaPlh2hIdfbxGXx0R08R2Z29mlWdJ1WL09s/SKtvm0FneQzmBQz9e52dtYdxW+rJZKaJqUlECK7//knUSBQhIqqmLGoVuo9HXxg8+d4fMtPZ+flCoWLo+9wrP/ZBfulCgStvm0cbv5QSb6yO8G6GIy8ELrUSGbiBOPDDIVvMBDqZiTSy1R8lEg6dMvF6bJ4qXY00OjeRJtvO42ezbgt/oJP22IGI5tVKw+1f5Kf2PFLt7ye9Z7HGA730BU8Q8/UJYbDN3MTwLO/K9uSz0u9u4N23042Ve2m1tWK1WQv2TSXSEKJcd7q/RGnhl4lno7gtvjY3/AQR1ueKLhMKYV4OsJbfT/kxMBLhJNBbCYnO2vv4sH2T86Gm+cikYxH+3m953tcGj1GMhPHawtwuOmDHGl+LCcupe1rPpqeoSt4hrd6fsCN3PClFk8n97Y9ydbqgwtaQ1LqaDKDLnUEAlUxz1oTMz1bh8LXuTF5iYFQF2PRPqLp0GwpgN3kpNrZSJNnCx2+nbT4tuGyeFGEipSS8dgAf3P2v3EjeH7BKmaTYuZDWz7PBzZ/bklivhysa7GYi0Si61ru5Of6U87susg+aVRhQlVMRS9dliIWc9GlnkvISpHMxMjo6dmL02Z2YhLZHo2lmr3zoekZUnoSXddQFRWzalswSlMuutRIagl0PYMiVMyqtUD6PJDre5rSkrN5MOWY+YWRpLUUKT05a+0UStvXpUYwPsLx/ucZiw3gNHvY3/AQzZ4tty1vZyJZmdy1lb2usmMvVcWEafbcZUVPlzqh5ATfu/THnB1+vWDFqc9ey+f3/Xp27swSRXOpbBixuBMsl1hUEjLXM1TLzc7IXvDLI1RrBSklfdNX+duz/53h8E00mZm1PrcFDnO05QmavZ1YVCuKMBV9bLIPhRTDkZs8e/VrXBkvXJquCJUDjY/wyZ3/ouDIypXCEIslsN7EIptZOsmrN7/NQKgbicRnC3Bv65M0e7cuuwVSqaS0ZK626O3bihEFCnazk0bPZrYGDrC95ggBRyNmxYoilHksFTlrOY5G+jg19DJnh9/IzidZYOkxg9dWw+f2/lt21NyFIpRZC0aX+qwvS1HUFbM4DLFYAutJLCSScHKSP3/v/6Jn6vKcTEOB2+rj8/t+nZ21R/M+tT6ZSozxe2/8ClOJwpPoZ8KufnstVfZ6fPYAXlvN7GAjyfstEMeiA4xF+0lkYgVzKmYwKxbub3+Kxzu/gMPsJq0l6cqljk8mRrGpDrbXHOFAwyM4zK55RGr5McRiCawnsdD0DC90/w3PXPnL27JHBYI6dzv/4YE/XcT3sD4IJYP83hu/kqulKf72ELkI061kLYtSUIWJbTWHeXrXrxJwNqHpGV6/+V1e6PpGrldn9jeZFSs76+7mkzt/Fb994aFTy0X+nhlsUDSZ4er4iduEgpzVEYwNMRrpy9+0LnGY3eyoPVJyyHYmbf/Wf0sUCsVEe9UuPrrt5wg4GhEIhsI3s2XwqalbxCutJ7kw8g4nBn5823LpTmCIxTJQKFlGIFAKhF8rBSklU/Hx/JdnkblmxRsBk2Lmg5t/ana6ebHRsaUgcgVlu2qP8qldv0aTJ5uHIZF0TZwilJjI/wjMafi7XA2EC2GIxRIQApwWN/YCyTJm1ULVCpiIS0UiSWrz9/CYIZvMtTGodtTzk3v/PZ/b8+/YXnMEe5kDqhZjJkTut9fx4c4v8Knd/4pGz+b3IywSgvHhghmeU/GxglGV5cIQiyUh8FgDbA0cmvfpowgFv72OzVX78jdVJPMtQTYu2YrQg02P8sWD/4lfPPI7PND+CerdbVhN9tlwcjniIYSCKkyYVSs1ziYe6fgU/8eR3+GRTZ/FZwvc9jezw5oXFupSqpSXgiEWS8RudnFP60fp8O+aTb6ZScbx2+t4ZNOnqXE25X/MYI0gENhMTrZU7+fj23+Jf3H0/8fPH/otPrTlp9hecwSfvRabyZlLPMv2blUVM6qSTfAzKebZBDCLasNl8dHi3cq9bU/y+X2/zi/f/d/5yLafo9GzueKdx0Y0ZBnQpc5EbIjTQ69wffI8uq5R62rlQOPDtHm3F0wZrxQSmRi/9fJPEUkuHNX52YNfYnfdvfmbNiQzCVbZ9odjhBLjRNMhYukwiTktGVWh4jB7sJtduCw+qhz1uC0+LGp2GvtiqexSSr557n/wVu+P8jfNUuts4VeO/g+q7HX5m5YVQyyWmRnvtxDiNnOykilHLKTU0dGRUt5iBmdDiAKF+ZKUlo4k21wm+736LQZ49qhnv1+UuUwolpnv16X+/v7PuZ1mihOX8jsMsTCoOEoRC13qZLQU/aFrdAfPMR4bYCqRjaQIwG2totbZRLt/F22+nZhKqLcpxExNTzgZpHviLEPhG0wns0/0mavYZfbitQdodHewuWofLosvV++zPKI1Ex7V9AxD4ZvcnLrIaKSPqcTYbKc1RSh4rFVUOxpo8W6l1bcdq2pHFaaCkbO5ZL9HR9cz/MP53+edvmfy3zJLwNnEL9/1u/jstYhZkVr+zE5DLAygaLH4TbYFDnN14iQvdn+T3qnLWefbvM41gUW1Uutq4d7WJznS9BgWUzazsVSklKT0JBdG3ub4wPPcCF4gmYkt2CuV3GhKu9nJJv9u7m39WLbXhrK01nS61IikpjjW//zshLmkFl/Q+ShEtv+q11bNrtp7uK/1YwScTYtGVaTUCSWDnBh8kZuTl+iZulgwbG012WnxbcOiWjErVpo9nRxu+iBV9rpltewMsTCAosTCwmd2/2uuT57nvYEfl9ShWlVUOvy7+cyef02ds62kG1aXGv3T1/je5T/h5uTFkr53BotqY1vNYT667eeoc7WW0XQoW7F6fOAFXrr+Tcajg0WlbM9FIHBZ/dzd8mEe7vgUbotvwRt5PDbI357571wPnisgiAujCJVW33Z+at9/oN7Vlr+5bAyxMIAixAIELouHaKq88YsAta5mfu7Qb9Hg7ij4ZJ1B0zOcGHyR7136Y8LJW7MXy8Fnq+HJ7T/PwcZHF+wadjuSeDrKdy/9EScHX1lwnkyxKEJlU9VuPrnzV2/Np8ghpeRHV/6Cl67/fVGd3RdCVUw8tuWnebzzZ277jnJZnr9isAGQSx4EPBrp5y9P/taC2Yhz0aXGG73f5x/O/35urkj53zvDVGKMb53/A04MvFiwk/tcEpkYXzv12xzrf37JQkFuv7omzvKNM7/LQKhrniWMzPk/yhcKAF3XCCcny7JMFsIQC4MlMxOBKIaR8E2+e/F/L3IRSy6NHuNHl/98wXZzc3n/+xf/DfFMhO9e+mOuB88vupTI6Gm+d+lPuDp+sqjai+KPg2Qg1M13Lv4hE/HhPCHMDudeas6FIlScFu+ythUwxMKgLATZfgpui592/y7qPdlRDMWYvKeHX6V74uyCVkooGeRbF/7XokIhcslvNa5mOqp2U2WvxaSYF/QFzBBNTfPti39ALB3O3zSLlJJLY8c5NfhKwVRrcn02LaqNJu8W2vw7cVuz7RgLC4fkevAcr938DsnM+/1bhRAcaX6MRs+mbESjSP/OjFDNREJafds52PjwskShZjB8FgZQlM/ifYRQqHO18PiWn2Fr4CAW1YYuNSbjo7x281u80/fMotWWu+vu5RcO/5fbLmYpJT+4/Ke8dP3vCz75VcXEwcZHeajjaQL2BlTFTEZPMx4b4NUb3+L00GsFTXmB4Mntv8DDmz6NeR7/RSwd5n++/a8YCl9noVtEIHBYPHxg02fZ3/gwLrMXIQQpLcG1iTO82P23DIS6C+6H2+Ln5w7/Fpurds9aRlJKRqK9vNf/PD1TlxkK3yCUDOZ/dBazaqXB3YFFteK1Bejw72JP3f34bDVFi00xrKvu3gblk9HTvHrzWwt2KZ9BIGjz7eDnD/82m6v3YjXZs+nMqgW31c/2miNoUuNG8Hz+R28hGB/mSPPjt3T7Bggng/zduf9BUlvYqhBC4cntv8BHtn6RakfDbI9Pi2rFZ6thZ91RkJKe6csFb9RgbIQjTR+6ZZZJFsnFsXc51vdcQcFxWX387MEvcbDxUVwWLyY1m+5tNdlpcLezs/YoQ+HrBOMjC1pRaS2JEAqdc6aeCZGd47Kl+gD7Gx5iLNbPQKgr/6OzVDvq+dlDX+aB9qfYX/8gHf5d2M2uZRUKjGWIQak4zG4+t/ffUb3ATFWTYuHDnT/Dpqo9+ZtuIaNnuDj69m0Ovktjx4lnFh64A7Cz5i4eaPs4VpMjfxPkukx9cMtPssm/+zbLZS4T8SG6g2du80doUue1G98pKJyqUPmJ7f8Hm6p2L5DOnx13+fEdv0yVff5jBdnkqyvj7zERG87fhJKbM7KY30GQfZ9FteWm0i2vSMxgiIVB0ShC5Z62J2lwd+RvugWzauWRzZ/JfzkPSXfw/C1PXF3qnBt5o+ASRlXMfGTrzy3aFt+i2ni882cKvk9KneP9L9zmkwglJhiJ9Ba0SmrdreyouWvREGyDu4Pd9fcWdFhOJ8YZjtxccLlTKRhiYVA0qmLiYMMjRZm3OwJHcFq8+S/fwkik5xaxkFLn5uSl26yNuTS426lzty7qxARo8+/AY/UXdDSOxQbQ8sKo4eRkweUHCPbXP4Q9bwk1H4pQONz4gYLHQtc1BkPXSeulJ5ytJIsfcQODHE6Lh0bP5vyX50VVTLR4t+a/fAuT8ZFbooZTibGCEQqAVu+2gkuLuZhEdmzj/MuELKFEkMwtyxBJf+jabUuTuShCYUfNXZgXGE6Uj99eW7CVv0QyGL5eVnbqSmKIhUFRCKHQ4OooKjRKbh29WB+PRCZ2i2URSk4sknwlqHe1FbQU5iIENLg3FbRCEpkIMm+5MbrIEsRmcmQ7ahf5O2wm56KjB6fio3miVXksfBQNDOYgcoOKi0UIgW0BB+Rc4nMsiZSWKCwVAjy26qKWQVkEHqsfpcBNLaUklg7PipYE4pnogtELcj6ZQtZKPtnmNwv7LMhFowovfVYfQywMimah6MNS0Ob4J+Lp6CKWxZ0hlAre4icJJycLOlnvBJqeuc3RWmkYYmFQFBKIpUP5Lxek0Lp/Btccx5/L4lvUtF/2m1hAla3+lqVKlaN+Ub/IckuaSTVjLRC5qQQMsTAoDlnaKAAp9Vzdw8Lk97ewmArfLFLCeGyg6BCjlJLR6AB6ga7kijDd8jtEbvp5oaVOIhMracmQ1OIkC+RsAFjUbBPgSsYQC4OikEjGogO39JcshJ4Lgxaiyl53S/6Q31a7iGUhGQ73FLz58+mbvoyeG/I8H06LJ8+KEDS4NxVMhEppCSbjY0VbOfF0dJEoj6Da0VAwF6MSMMTCoGjSWpJrE6fyX56Xm1MXmM612luIurzIhtPiwW+vKygYNycvoBexvCFXYdo9cQ6tQGQjW+F5q7Oy3tVa8Ckvpc7JgRcLZnjOZSh8I1dmPz8CaPZsKZhAVgkYYmFQNJqe4eXuv1/UEadJjR93/d0iK/tsjclcYRAobK85XHAJMBkf5fzIWwVDm+QsoQsjb5NYJHU8O8Lh1ixMv71u3uKyuVwef2/B+bZzSWtJ3ur94S1Rn3wsJjtNni1lWxaSbAPjO40hFgZFI5HcmLrAc9e+tuDFKaXOj7u+waWxd/M33YKqqOyoOZKNh+YQQrC77t6CzkWJ5NlrXyOaKuxsnU6M8U9X/7JgopOqmLmr+cO3CYPN7GRH7V0Fb95QYoKXu7+5iBhJzo28SXfwbMElS8DRQJ2rNf/losno6ZKdz+VgiIVBSWh6hpe6/56/PfvfGY3eOih5OjHB9y79Mc9e+1rBmwOg3beTWmfLbUuOzVX7qHW13vb6XEYivXz99H9lIjY0bz7ERGyQr5/+XSbjo/Nun6HF20mNs+m2pC2B4IG2TxTME5FI3u57htdufHtewdClzrnht/jB5T8rKGyKUDjU+AG8tur8TbOYVettv3EusXSIofDNWUsukYkyGu1jMjG66HkoBaOfhQGU2M+CnBXgMHsIOBqpcTUTTYXon76abb236AUq+OKh/8SBhkfmFYUzQ6/x1VP/pWDrO4FClaOeoy1P0OHfhcPiJpQI0jN1iXf7n80KRYHfoSomfuHQf2F77V3zOjM1PcPXTv8OZ4dfLxgCNilm2v27ONL8GPWuNlRFJRgb4fzIW5wfeYt4OlJQsOpcbfz8od+i3j1/Y12J5IWub/Ds1a8ViMBkK1xbfduJpKYIxoZIaUlMipn9DQ/y2JYvFEw3LxZDLAygDLGYYe7NXuimmEubbwe/ds/vY1mgtiKjp/mrk7/F+ZE3F30yCqFgViyoiimXBZkuKBIz7Gt4kM/v+/WCadhj0QH+8J1/SzA+UtD/IhAoioop1yksrSXR9Myix8OsWvnU7n/JXU2PL5gRKpEc73+eb134n7mktYWZORdzv9esWvjQls/zoS0/Pa8olsLCto2BQRHIOf8Ug83k4JO7/gVmdWEHokkx8/Suf7nocoScjySlJYinI4sOEJ6h3t3OJ3b+yqIZqQFHA0/v/jWcFnf+pluQSDQ9QzITI56OZAVrkeOhCIW7mh9nX/2DCwoFOQGoc7VhVQv/Vuaci7mktTTdE2cLOliLxRALA8hdlA5T4ZuikMOvGBSh8vEd/5x2385FRcBvr+FnD36JWtftfo2lUOdq42cPfgnfojkdWatlZ+3dfHzHP8dp8eRvLhtFKBxu/hBPbP1iUWXuAUcj9e72/JeLRJKR6UUttGIwxMIAcjdG1QLdr8jVhXzhwG/gsVblbyoKk2rhqZ2/zN0tHy7orJtLvbudX7rr/8vWwMGiq10XQiDYUXsXv3D4t6hztRX991Rh4kjTY3xh/29kHbJFfm4hrCYHH9j8OT6+/ZdxL9JrYwaH2cU9rR/FbSnd76AIhXpXO/YCy61iMXpwGkDOYWlSLJwdfuM2U1YRKkdbn+DRTZ9hW+AIY7F+JmJDt7ynEI2eTXx+369zoOGRkqwTgcBudrGn7j58thrGov3EM6Wb09WORh7v/Bme2PpF/La6ooViBkUoVDsa2F13LxmZZiI6tGiuST6KUNlcvZend/0adzU/jsPsLEooyJ2bgKMBk2qmf/oqqQLh4LkIBO3+nXx028/htdXkby4Zw8FpMEtKS/Dsta/y+o3vzjbMVRUze+vv57N7/g0OsxspJfF0mHMjb/Fu/zP0TV+bd/iORbXR6tvGocYPsK/hQZxmz5KeyrrUiaSmuDDyNqeHX2VguotwcvI2YSN3c3ms1TR7O9lbdz87ao7gtlUv2cE345uYiA1xcvAlLo0dYzh8k0QmPq8D1KSYqXY00u7fyeGmD9Ls7cRucpUsVjOktRTdwTO8fvO73Jg8v+B0OLNiodbVwu66+zja8gR+e+kCOR+GWBjcQlpLMR4bYCDUhS51al2t1Lvabss50KVOSosTSU0zlRhjIvq+peGxVVPjbMJp9mI12QomWZWKLnXSepJYOkwsFWIyPkI0HZ69Vx0WFz5bHS6LF4fFjVmxIIRS9FO8GCQSXddJajHi6TCTiTGm4mOzIdasWFXht9fhMLuwm125CepLv2FnHLqRVIipxChTiXEyWtbKUYSC11aNz16Dw+zBbnZlZ48s074bYmFwGxI5W9kpEAXTryWS7H/ev4wEgBDLdpHOT+4b5a3P1ve/e/b/3WEkMm//WYFjMN9x5w5/ryEWBgYGRbF0u8jAwGBDYIiFgYFBURhiYWBgUBSGWBgYGBSFIRYGBgZFYYiFgYFBURhiYWBgUBSGWBgYGBSFIRYGBgZFYYiFgYFBUfy/SsY7h/sQY4MAAAAASUVORK5CYII=;" vertex="1" parent="1">
          <mxGeometry x="118.8" y="75" width="71.2" height="80" as="geometry" />
        </mxCell>
        <mxCell id="bNeFM68Or8PcbVmSaTlK-7" value="" style="shape=image;verticalLabelPosition=bottom;labelBackgroundColor=default;verticalAlign=top;aspect=fixed;imageAspect=0;image=data:image/png,iVBORw0KGgoAAAANSUhEUgAAAPYAAACxCAYAAAD3T0AcAAAAAXNSR0IArs4c6QAAAARnQU1BAACxjwv8YQUAAAAJcEhZcwAAEnQAABJ0Ad5mH3gAACh2SURBVHhe7Z13fJRV1sd/0ye9kN5DSAgtEEpAmiDdCFIVBVwR1q7v6u6yll3FfdddV/dd26qruNgWRJCq9C69BEILgRBCSEjvZSYzmfL+kWQyz52Z53mmT4b7/Xz4OHPuTUxgfs8599xzzxXo9Xo9KBSKVyEkDRQKpedDhU2heCFU2BSKF0KFTaF4IVTYFIoXQoVNoXghVNgUihdChU2heCFU2BSKF0KFTaF4IVTYFIoXQoVNoXghAnoIhOIIPjl+AZ+duIgrlbUAgECZFGOSYzCjbxJmpCehT69g8ksoToQKm2I3ghUfkCYTZqQnYUbfJDw0OA2R/r7kMMXBUGFT7OKpjfvxxalLpNkiCcEBeH7MEDw3ejB8JWJymOIgqLApNnOrvgnJf1tteP/m5JGYkBIPADhUWIIfL90whOYkA6PC8NzoDDw9KoMcojgAKmyKzXxx6hKe2rgfADCzf29se3wWOQVfn83DNzl5OFRYSg4BnQ+DlVPvIc0UO6FZcYrN+BiF0mlhIYyxLh4f3h8Hn5qPzb+aialpieQw3tp3CkvX78Gt+iZyiGIH1GNTbOZ0SQVGfrwOADAyIQonn19ITjHh85OX8H+/5KCgpoFhFwkF8JdK4C+Vwl8mQYCs47/T0pIwNS0BQ2MjGPMp7FBhU+xi4uc/GsLsL+dPwbKsAeQUE6pblHhuywFsuFhADlmkX0QopqQmYM7APpiQEkcOUwiosCl28f6Rc3j5p18AAFEBftj/5Dz0jwwlp5ll+Ya9+M+ZK6SZkwkpcViQkYYFGakI9/MhhylU2BR7aVapMWXVJpy6XQEAmD0gBZt/NZOcZpHd14pxorgMGr0eNa1K1LQqUatoQ3WLElUtClS3KskvMZAUEog3p4zC48P7k0N3PVTYFLs5WFiCKas2Q6vTAQD+fv9YrJgwnJxmM1+cuoQvTl1CTmkVOQR0JujenDIKSSGB5NBdCxU2xSG8dzgHK7YfAQBIRELsf3IexiXHktPsYs/1Yvz3XD6+O3eVHKLem4AKm+IwHl6zA+svXAcAjEqIxq7lcxAkl5LT7ObU7Qp8ePQ8vs+9Rg5R790JFTbFYdysa8S0LzfjRudW1tIRA7B6wRRymsPYlncTHx3Nxf4btxl26r0B0cqVK1eSRgrFFkJ85OgdGmTwpLll1QjzlSMrIYqc6hD6hofgsWH9EBfkj9O3K9CqbgcANLSpsPVKIZpVakwzUxRzN0CFTXEoaeEh8JNKsLegw4terqjB/IxUBMll5FQGLep2nCmpxM3aRsQHB0AoEJBTLDI0NgJT0xJxs64RhbWNBvuJ4nJcrazD5NQERpXc3QANxSlOYeqqTQZxPz96MD6ePZGcwuDfJy/imU0HAACTUxOw5Vcz4SeVkNM4+f32I/jH4RyGLTk0EFsfn4VBUWEMuzdDa8UpTuH39w4zvF5z/hrrfjQAPD0qw7Am3ldwGwv+u52cwov3ssfh24XTGGe+i+qakPHP/2LXtWLGXG+GhuIUp5DSKxjXqutxuaIWbRoN+kWEIpOj3js7PRkHC0twu6EZN2oaMD45FsmhQeQ0TgZHh5sNzdecz0e7VodJfTqOlnoz1GNTnMa9vbv3sbfn32KMmUMiEuKjBycY3uvsWCVmRIdh9/I5WJCRyrD/9cBp3Pf5RobNG6HCpjiNCb27D2v8fPUminkczcyMjcDM/r0RIJNidFIMOWw16xdnm4j7YGEJHli9lWHzNqiwKU4jPSIUoxKiAQAqjZaX1waANyaPxFcPTXVY6yRz4t6eX4SFa3YwbN4EFTbFqWT3Sza8/jnvJmPMEsPjIjFvUB/SbBfrF2fjkSF9GbYfLlzHC1sOMmzeAhU2xak8YCTsnddu4XKF+R5ormDtozPw2/Hd2XoA+NfxC/jzvlMMmzdAhU1xKkNiwhlZ6K1XChnjruYfD4zD06MGMWxv7jmBf5/k32m1J0CFTXE6D/TrbXi9jWc47kw+mzsJoxM71v5dPLNpP7a4+aHjSKiwKU5nzsAU+HdWkZ0uqbDYsdSV7F4+B/4yZmXbW3tPokGpYth6KlTYFKeTGBKIhUaJK0/w2v4yKXYvn8Ow5ZZV4619Jxm2ngoVNsUlPDw4zfB6zfl83KzrrghzF6MTY/DZ3PsYtg+OnPeKkJwKm+ISJqcmYHxnR5WqFgU+OHKenOIWnh6VYZJM84aQnAqb4jIeH9Hd+ODjY7k4dquMMe4u/jxtNOM2UG8IyamwKS5j6fABjAowT/Ha4X4+eHn8UIatp4fkVNgUl/LqxBGGDPmPlwrwwVHPEPcz92RgUp8Ehq0nh+RU2BSXkhkbgdcmZRnev7TtsMd4RtJr55ZV44Mj5xi2ngIVNsXlvDpxBOOCPk/xjPenJ2HpcOYVRatOX0F5cyvD1hOgwqa4hb9OH2N4nVtWbWij5G5eHj8UAbLulsllTS34/MRFxpyeABU2xS0Mi4vAm5NHGt5fqahhjLuLgVG98PK4TIZt1ekrnK2dPA0qbIrb2Hj5huH1tL5JjDF38kTWQIT6yg3vy5parLoZ1BOgwqa4hVO3KwxHOPuGh+Ae4lCGO0kIDsBS4rKBDRc7bjjpKVBhU9zCL0V3DK9n9u8+/eUpPDFiIKQikeH9ocJSjzi8whcqbIpb2JFfZHg90+hYp6fQPzIUS40q5QBg3QXTu8I8FSpsistpVbcbvF9WfBTGG3Uz9SQeG9qP8X71mStu7QBjDVTYFJdjLI6s+EjGmCcxOikGcwd2915r1+rwn9OXGXM8FSpsisu5ZLS1NSzOc4UNAEtIr332CuMSAk+FCpvicow99oSU7t7jnsjsgSkYa9TfvKlNjdVnrjDmeCJU2BSX0yXspJDAHnFB/WPE1td/Tl9GWVMLw+ZpUGFTXE5XKJ4U6vmiRmc4nhbWfV67skWB1WfyjKd4HFTYFJdT1aIgTR6NXCwy8dqrz1xBQ5v7D65YggqbQuHBkqH9ECyXGd4X1TV6dIacCpvi8bx3OAf1bj7WmRAcgMeGm+5rqzRahs1ToMKmeDQ78m9hxfYj+OOuY+SQyyG3vvIq6zw2Q06FTXEbJQ3NpIlBg1KF1zsFveFiASrc3PBgeFwko40yOr22J0KFTXEbpY3sW0Zv7TuJ3LJqAEB1qxLf5Fwlp7icJcOYXvtsaSXWns9n2DwBKmyKy+lq9avSaC02MNhzvdiki+k3Z/Og1uoYNleTnZ5sUlTzrQc8cEiosCkuJzM23PDaUjje5amNuVpVh6/Puj/0XZyZzni/+3ox9lwvZtjcDRU2xeUMiYkwvDYnYADIKa0iTUCn13Y3y7IGYkY6s+PLax6Q3DOGCpvictLDQwyvD9woYYx1cfRWdyMGY44Xl+PHS+5vU/TqxBGM9zmlVbh/9RbcqG1g2N0FFTbF5fSLDDW8Pl1SwRgDgJu1jShr6s6Axwb648mR3fdrfXPW/WvaccmxJuLemX8Lo//1A57bfABH3Xx9ERU2xeX0iwhFRnQYAKCgpgGXiQ6l5+4ww/DU8GCGsH++ehObjRohuovXJmUhM7Z7WYHO7P2nJy5i3Kfr8cBXW92WMafCprgF42KPH4kOoPnV9Yz3/SNCMSwugiHuzzyg17e/VIJdy+Zg3qDu+8iM2X61CIu+34WRH6/Dd+dcG2VQYVPcwpJh/RDp7wuYuW2jkFin9o/sBQAMYe8tuI3vc93fgyzC3wc/LsnGkWcfwm/GZWJITHfGv4vTJRV4bN1uTPtyM37Ku0kOOwXRypUrV5JGCsXZ+EslqGxR4HhxOZpVavhLJZiQEg90XrFbVNdkmPvi2Ez06RWMmEA/lDe1IqczVK9qUWLpCOaVPO4iITgA0/sm4elRGZg9IAXp4aFQa7W4Vd/9exTWNuL73GtQa7UmFwA6GuqxKW7DOBx/a98prOv0wOTedkpokOH1c6MHIybQHwBwpOgOvvKAfW2SITHh+M24TBx4aj6OPvsQXho3FAnBAYbxvx04g8lfbDSbOHQUAr1eryeNFIqrWLnnBN7ad8rwfmBUGApq6g2nptIjQnD1d78y+grghwvXsXDNDgDAiPhInH7hEca4J9KiascXpy7h1Z3HoNZ2/G4BMgn+NmMsnhs9mJxuNzQUp7iVCSnxyKusRV5lHdDZhEGr6/Y1vx45yCRsHRjVCwIAh26WoqypFTqdHhP7dITxnopULMI9idG4t3ccrlfXo6SxBWqtDjvyb6GorhETUuLhIxGTX2YzVNgUt7MgI40h7i5mpCfhtfuyGPdodTEhJQ4lDc04X1aNX4ruYExSDFJ6dYfsnkpiSCAezUxHi7odp253hOIXymtw+GYphsSEG5YZ9kJDcYrH8PXZPHyfew1xQf6ID/LHyqn3kFNMmLJqE/YV3MaohCgceGq+Q72es/nvuXy8uvMo45TbD4vvx0MZzKOhtkCFTenxLPp+F9aez8fv7x2Od7PHksMezbXqery68xij4ObZezLwyZz7GPOshQqb4hW8uvMY3jl4Blsfn4VZHnjJHxerz1zBu4fO4lpncU64nw+q3nyKnMYbKmyK1/D0pv04UVyOHctmI9ZBa1VXUtOqxLObDxju4o4N9EfpH5eT03hBhU3xKmZ/8xNEAgE2PvYAOdRj+MOOo3j30FmgM0l48Kn55BROqLApXsdTG/fjZl0j9v56LjnkMdyobcCNmgY0KFVoaFOhQalCvVKFOkVbxx9lm+FG0uVZA7Fq/mTyW7BChU3xSnJKqzD8o7XQv/sbcsjlNLWpcbqkovNPJU7dLkdFs3WXJhx8ar5JSyY2qLApXktZUyuGfbgG5X96khxyCceLy/Dp8YvYee0W6hRt5LBFREIh0sNDkBEdhmFxERgWG4lhcREIkEnJqRahwqZ4PX/Zfwp/nDSSNDud5L+tZhwCMUdmTDgGRYehX0Rox5/IUKSFdXeYsRUqbArFSby49RA+PpZreB/qK8fUtERMTU3AtL5JiAn0Y8x3JPR0F4XiJJZnDWS870qMLR0xwKmiBhU2heI8MqLD8F72OIZtz/Vi/GHHUYbNGdBQnEJxMo+t223SGmlSnwSsWzQDYX4+DLujoMKmUJyMol2D7NVbDPvSXQyM6oU3Jo/CggzzPdPsgQqbQnEBxfVNePDrbbhQzuzICgBLhw/Aa5NGGK4+cgRU2BSKi6hTtOGNPSfwyfEL5BCiAnzx2n1ZeGHMEHLIJqiwKRQX833uNbyx5wRu1JjeGrJiwnD8/X77j55SYVMobuB2QzPe3n8aX5y6RA5h8dB++G7hNNJsFVTYFIobySmtwhenLpkIPDEkELdefYJhswYqbArFA8gprcLnpy5hlZHAfSRiKN5+njGPL1TYFIoHcfRWGf51LBc/XLgOAIgL8kfJ69Y3W6DCplA8kB35RXjn4FkcKbqDwdHhyH1pETmFFSpsb0Wnga76EjRlJ6FvKYVeWQd9Wx30eh0EsmAI5MEQyIIhihgCYcQQCANiye/gGjRt0JadgK6lDPrWcuhayqFvKQcACPyjIfSPhsAvGkL/GIhi7gHEpq2IvRW1VovXdx3HPw7nYGxyLI48s4CcYhGrhT3mkx9wvLjjL56LVfMnmxTCO5ryplbE/GUVaTbL7+4dZlK7621oCraiPX8dtGUnoVc1ksMWEfbqD3HiRIhTZkIUnUUOOxRtzWVo7xyH9vZBaIp2k8OsiJOnQZQwEaLY0RCFOe6zpdg0C9pSyzXcorix8J27jTS7hI2XbuD1XceQGBKI3cvnkMNmsfoQSGUL/84Pq05dJk0Oh8wmslFhdKOjt9GetxaKDdOg3LkUmqLdVokaAHS1eVCf+wSKDdOh3Dwb7Ve+I6fYjbb8DJQ7l0KxdjxUh1+xWtQAoCnaDdXhV6BYOx7KnUuhLT9DTvE65g3qg31PzkOQXIoV24+Qw2axStjKdg0qrWjp4sxLx7pYdZr/w8Oan70n0bbvebTte95hH3JNyS9o2/8/UGyaBU3BVnLYavQtZWg78joUG6Y55Pt1oSnYCsWGaWg78jr0LWXksFcRF+SP9YuzcaeJn3OyStgVzQq0qNtJMyvkqRZHUtmiwB2jWxS4sCba6Ckoty5Ae95a0uwQtKVHody5FO2XviKHeKOtPAfF5jloP/8ZOeQw2s9/BsXmOdBW5JBDXseaR6aTJrNYKWx+TwtjvrTCo1rLFyf5h+Gw8ef3ZFQn34GmeD9pdiiiXv0gGbSUNPNCW3IYbT8vhq6+o0+2M9HVF0D58yJobh8ih+5KrBK2LR7vl5t3SJPDsCYMR+dF6dWtStLcI1GdfAfq0++SZvOIZBCGpEKcOAnSQUshHfYixCnZEIakAQIROZuBeMBjpIkXmsLtUP68CLpWnssxoQRC/2iIwgdBFJ0FYVAyBBLruozoFVVQ/vQI2m/8RA7ddViVFf/85CU8vcl6D7F+cbbDz5xakw035sJLi5ERHUaaexS66otQbJgBvYb7ISUd/GtIh70Igb/l7SxdY1HH1ljhdrQX/gx0fl9BQBz8l14kp3Oiq74AxaYHoVexN/IDAEn6wxCnPwRxwkRyCACgq7uG9uuboS3cBm1tPjlsFmFIH/jO3wmBTy9yyCKenBW3Bad7bDgpHF995gpp4kW5F4TjqpyPOEUt8I+Fz+xNkN37d1ZRA4AwKBniPrMgn/Y5Ap69A9+H90M67AXIRv6BnMoL1Ym/copa4BMOnwfWQD71M4uiBgBhaF/IRr0C30XHIRmwhBw2i67+BtTnPibNdxXWCdtGUey5Xkya7MbaMLyLCp5ZRU9FW30JmuubSLMJ8skfQZwwgTTzQhSZCdmYtyDpb121EwCozvwTmlt7STMDUcwo+P/6GsS9Z5BDrMgnfQifmWtIs1nUOR9BW3aKNN81WCdsGz02APyUd5M02cydxhYUc/RrtoQ9v4MnwBYudiEb+2dWL+gstHeOQ33yb6SZgTAgDr7zd5Bm3oiTZ8An+1vSbBZ1zkek6a7BOmGz7AOP780e7tnqYc3xbY7tW2g9Xthlx0mTCZK+/EsPHUn75a8BvZY0M5BN+ZQ0WY045QFIs1aQZhM0RTuhaygkzXcF1gmbRRT/O3U0aWLgSI9t6SExJS0RcjF7lrenb3npm26TJgai6BEQ+EWSZqejV1RxVpKJ0xdCHGd/dxAAkKTNAwRi0myC5qbt0UFPxjphs3jsAJmENJmw2wFr7dLGFhTVmS+XnNE3ERH+vqSZAdvv0BPQK02b4Rkjind9CI7OUk+9upk0M5D2X0iabEYYmgpxGvdtmtqiXaTproC3sKtblWhSqUmzgUC5DPMHsW9p/ceCp7WGNectb3ncn56MyAAOYbewZ5M9HZ2CXdi62jzS5BK4vLUo4T6I4saTZruQ8BC25s4J6BXVpNnr4S3sco5scoBMgmUcJ7k2XLS/AsnSwZJxybHoGx6CCD92YbOF4teq6yFY8QHrn9nf2L+X+cKWgybf1/jPvG9/Jr/EgIDj2KKuxrZtQHvQNRZxCztmFGmyG3H8eAikAaTZBA2PhKO3wVvYbIIQCgQIlMswvW8iOWTCvgL2NSIbtxuaUVhr2tkRAO5PTwIARHHciVTTqkRjm4o0AwD6hodgahr777D1iv25gmvV9aSJQXa/ZNJkQCBnv4lR11iE9msbSLNT0Zad4EyaiRPvI032I5ZDFD2CtJqgq3X9w87dWCFsy2tTf5nEkLS6r088OczAnox2V7sYc9yf3iGGSI41Njh+lympCaTJhJzSStJkFflVdaSJwWS2n4FD2ADQfvZ96NvYHx6ORFfZfaOkOQR+URBFDiXNDoFPeK+tNh/leTNWCNuyx/aXdifOnhgxgDFGYs9pL0uHPrLiowxlolxrbHBUn3F5bAD4+qzt69jr1fUo4TiRlhBsObwUhaaTJhO0tfloO/gyaXYa2qrzpImBKGoYaXIYojjuxhnUY7PAtsYOkEkNrxdlcn/wDhaWkCZObtU34QZHGA6eHpvtd8mIDsP4ZPY9+a9zbBf2VQ5vPSw2gjQx4HvSSlOwFcqd/ObahVYFXRW7xxYGskQgdiIM7UuaTNA334FeZf6z463wFnYFyx62sccGgMEchyzWnr9GmjjZcJE7DIcDhA0eXrtF1W72Fgc+5FWyC5ttfQ0AougsiOO5w090iXvjA9DePkgOOQxt5Tnodezra4F/HGlyGAKJL68Hx90WjvMXNkv4GiDv9tgAOLPjthwK+dJCNrxveAhGxHcXZNgbioOHsAFg4yXbMvxcHntMEnu0AABiKyrLNHeOQ7FlHlRH/si5B24L2kr2MBxO9tgAIODhtQUch2a8DSuEzd9jc62zAeBIEf9z2kV1TbhuwUPOHdiH8T4qgD0rDh4ee0R8JEYmRJFmBraG41zCHhHPHooDgKT/IoiTrTtAoT7/KRTrp9vVDcUcfB4WAl/u38keRL24l3/6dsufX2+Et7DZKraM19gA4CeVIJ4lAQQA61ky3CSsYTgRuob4yBjvzcH2kOqCy2vnV9WjjOMBYY68ylrSZCDMzwchPuz71F3wPeVkjK7xJtoO/haKzXM4T2DxRtNGWkyR+pMWhyKQc5+71rdb/2/Vk+ElbGW7BvVKy/+A/mbKSbm89pen+Wcqvzprfm6kvy/GJsWQZvTyZRcHVygOHsKGDcdRr1XXQ9GuIc0GpvH4fxoT8GIdJCkPkGZOtCWHodz2MNr2vQAdz+YFFuER4gp5FJHYA69OKzx+Tm+Cl7C5PBzpscFD2G0aDY4Xc3eWLKxtRH6V+T3ZRUPNh2CRHOE4W76gi7FJMRgSE06aGaxlKW81x5kS9v1v41wBX+TZ30I2/DekmRfteWvQumEa1KfftdmjcTV8AJzvsSFl//cGDcXNU97Evu9KrrHRuRfrK2E/fcOnxJQ1DDfKhhsT4e9DmhjUKdrQprHsObvgKlbZW3AbDUrzVWzmOMtR2JIVz76ut4R09BuQz/jKtkb/6maoTr4DxfpptnU75SFsPmWf9sDHY9v64Oqp8BJ2Y5vlwx+wEIqDh9f+ikd7I0sFLXKJGJMsVLlxnfACjwQaAEzr270/bok9BfzD8TMcfdazOBJ2bEhSH4Tvgl2QjX8bggDrt5d0tXlo2/c8lD89Am0pv6b0AKBv5xa2Xmtdy2qrkXBHBAIJ92fCm+Al7BY1u7DNheLgse3V2KbGaZbwtKCmweK+7xPD+5MmAxF+7B4bPIU9qU880sPZSzh35d8iTRY5W1pFmgwMjY2ASCAgzVYjHfIM/B7aA+nQ5zk7kJpDU7Qbik0PQnX0T+SQWfRay7kXAxruv2t74PW3xnF4xtvgJ2wV+xPXXCgOgHONCo5Qm20su19v0mSAj8duZDmCagxXEu3rnDyoNOwFGgBwobwaaq3leVxhvzUI/KIgG/tn+D60B+K0eeQwL9TnPoFi0yzSbIJAzP0Q1audK2yuc+AAIBBzfya8CV7CbmXJ5ILFYwPAoxwlpt+xHAr5PtdyhZpxGSkJH2E38xQ2Vziu1/PLjrN5a5jZtnMEoshM+ExfBZ8HvoMolr3DjTm0pUfR8m+OBw4fT6hxbuKKj7B5/ZxeBC9ht3CIwNIaGwCeGGE5ZEZnu6UcMx/66zX1uFxhfs/30Uz2SiM+1WfNbexRSBdT0xKQHBpImhnwETbb+tpPKuGsT7cHce9s+M77GfIJ70IYZN0DRK9ugXKL5Rse+XhCj/DYEu7IwpvgJ2yO+7p8JZaFPakPxxPfQsjNljGfPyiNNDHg2seGFR5bLBRyhuNbr3A3zDtZbFnYbNGHI5FkLIfvQ7shzXyWHGJFc/swVMfeIs0d8AnFrbz502ra2XdtAAAi7p/Tm+AnbI41NlcDQa7Ci3VmqtDYKtO4hODPsjTogq+wAWBaGvv/r6SxBftvWD6xVtmswIVyy+15pnOE+45E4BMG2bi/wHf2RoitCM/VOR+a7UTCxxM6+yZMfQv3fe1CX/aDSd4GP2FzeGw5x341V3a8uL4JuWXdH/z8qjpcLDdfg5zdLxkyjgeJH8fPAyuFPTUtATGB7FsqbOE41zFVZ4bhlhAlTITPvJ8hTn2QHLKI5obpFbh8QnFdcylpcig6js6tArEcwvAM0uzV8BM2hwh8OITE594u43CcLQxfPLQfaTLBz0KW3hhrhO0nlWBqGvuSgk3YbO2ghsVFoE9YMGl2GT4zvuItbnN3WwsCuB9K+lbnemwuYYuiR5Imr4efsLk8NocHBY9ySWMxswl7Bo++amzJvC6aOZYXJFzr7NyyapwoNh8SsoXpk3nkIJyNfPw7EPpxF8folTXQtzJ/R2EYezQGF4TinMKOGk6avB5+wuYQgQ9L8qwLriq0gpoGXK6oRV5lLS5VmA/DxyTFIEjOfXqLj8fmeliRTEtLRChHUm73NdNilZzSStxiuY6I6wYVVyDwi+R9Xa62npkoFIWyJzIBOPVCem1VLqBlL+sVhg8iTV4PT2Gzh618PDaXsNEZjrN5a661ehdioZBT3NaE4gAQ6ivnTAL+UmTqmQ6z3A8e4iPD+GTryz+dgaTPTNJkFn1jEdMgDeQ8D61XNUJbcZY0OwRtyWHSZIIwnN/nxpvgJ2wW7yYWCjmTWQAgFYnQOzSINDPYcLGAVdjZHNlwYxwtbPAIxw/fLEV1K7N2+heWhhITUuJ5LRtcgTBsAAS+3JWCOoVpzYGwF3few1xG3RFobh8iTQxEcWMhDLJcpeit8BM2SyjOlTgzhsvjXq2qwxULjQgGRPbiVVHWBZdgrF1jozMcZ3tg6PR6HDBaT9crVTh803JG2NIhFnch5LhHGwCEZi6TFwRzJ0d1d46RJrvR1V7l9NiSPvwSg94GP2GzHALhE4Z3wScctwTXQ4HEj2Pdb4vHjg7048yOGwt7z/Vii8c6g+Uyk7ZO7kSvaetYr3JgrluJJCWbNJmgKd4PLcdtIdbSznFPuMAnjHfG39vgJexWteVacWs8dlSAL4J5tC4yx/xB1omA02NzHEW1BFexyiEjD822BTYvIxXRHLeWuBJt5TnSZB4zFxYIwwfxuulDffkb0mQzek0bNBzCFqc+CIHP3VWY0gWnsPV6PTQ6HWk2IBfzFzZs9NqxQf6cPdRI2EJm2OixAWBa30SIhZb/2q5X16O4vgkNShWrsD3JWwPg7A2Ozj1rS9fginrfT5pM0BTtMrsXbgvq859ARybyCMR3aRgOPsJWay2LGgB8pM4X9jIbvobLY+sB1geWJZJCAjnD8bzKOhy6WYpSCzd+ZMaEc5bFuhJdZQ5Up98jzSZIUmeTJgOS3tm8OqUody61e/tLW7Qb6hNvk2YG4rQ5Fh9CdwOcwlaxnCGGlWtsdCbBrGUJj2ozEq41Nuzw2lzZ8TplG2OtTTKPRyUeG20HXoL6whfQt1puUsGbdgWUB34L8DioIY6fQJoMCPwiIenH7/5rxfopNt8tpldWQ/HTI6SZiUja0WjiLoZb2BxNBKxZY3fxOEv3ExI/qcSmkkuuUBw2ZsYBYEoqh7AVbU4Lw7VVuWi//A1Uh19B69pxaNu13OakVPuNbVDuWgZd9UVyyARJ/0UQJU4izQykw16EgEdmHQBavkix+lZQde6/0bKK/cguAEiHPg9RRCZpvqsQ6PV6PWk0prSxBfFvf0maDUzvm4idyyyf1zXHkaI7GP8Zv3/UF8cOwYezLHsKS/z251/wz1/YE0KXf7vEpggCAMZ8uh7Hb5kWpADAm5NH4q19p0gz0CnqjY9Z3zK4i7YDL6HdTBJK4B8LSf9FEAYnQxjU8Yfcl9arGqFvLoG28jzar34PbdlJxrglBD694Dt/J4Qh3A8k9YVVUB3+A2m2iChmJCQpsyDJfIYcAgDoFdVoz/8B7fk/8Lr7WxiaBt8FuyCQWecMFJtmQcuy1y6KGwtRDP/TcOYQxY1lLA9UJ99hjHchG/VKx5hAANnI7r/Lrvnk9zEHp7ALaxvQ5+9fk2YDcwb2wSYbPqiCFR+QJrNceGmx4SZNa3hj9wn8737z4urixPMPY1RCNGnmxVt7T2LlXvPC+M24THxwxPzVN2senYFHh3B7HXNoq3KhWMedfe5CIPGDICgJAoEQupYy6JXmawS4kE/9DJL0h0mzRZRb5nIWjphD4BPWcbzSJwxQ1kDfVge9sh56Hb/ISiALgnzyvyDmsf1GwiVsR+Azd5uJsLVlxxlzRDGjIRv1Cpo/CoVA4tPx+6TOAbQqNH/S8Vklv485OENxruSZtWvsLmb251cNZIuowSN5BjtCcQBYkGG5RvpQofmilOTQILvCcHOemg19eyt0NVegrb5ks6hl4/9qlagBQDbpQ173VpPolTXQ1uZDW3oU2tp86FqreItaFD4I8uzvbBK1u5CNegW+c7cZ3vvO3QbZqFcM7yUDH4f6wioAgKZgC4QRQwxjXHAK2xlrbPDMjj82zPqkWRf81ti2Jc8AoH9kqMUw3vhsuTHLRgyw+UEIALIxb0I64ne8ss92IxBDmrUC0iFPkyOcCAPi4TtnIyQDlpBDTkEUNxbScW9zerGehihxKrRlJ6GtugB13hre9fxwhLBt/aDOHpBCmkywttrMGH4e23Zhg2cX1i76R4bixbH8n7jmEMiCIbvnNfjM3QJxmnV5DWsQJ02F7/ztDO9hNQIR5JM+hDRrBQTyUHLUoWhLj0K5aRYUm2Y5rSbdXYiiR0BzYyu0pUchtuI6J7uFzefIpiVGJ7Kvb+3pLMJvu4tfmGeJPr3YD7UY8+KYTNZurtYgisiEz/T/wGfuNkgyljmsukoUMQTy+96Hz6x1EEWPIIdtQjbqFfg+vBfSIc8AQtuiO74wBF68nxzucQgEgGTQE9AUbIEoYgiEIfy3STmFzdYLG3Z4bHB45Fk81+CWcHTfM3Okclwm0MW45Fg8NcrxZ4LFcWMhn/Ae/BYfh3zCexCnZEMg4/+wATpCblHUCMjvex++Cw9AMvBX5Ay7EQYlQzb+bfg9vBeye16zqRWyNWhLj0K5dUGHwG/8RA73HARCSNIfhq7xltX/LpxZcYpltuXdxINfdyc/LLFhSTbmD+L/tLUXTenRjgyvugl6VQP0bQ2ARtkhelkQBLIgCHwjIYwYDFHEEAicfWmeGfTKGmiKD0BXd62jfXB7C6BugU7dDIHYBwKfUAhkwRD4RkAYmgphcCqEIX2g+uV1qHM/I78dK6KYeyAZuASSdH4FNN4AFbYd/GHHUbx7iL2BgK3bgRTL6JtuQ3X0T2i30htLMpZBPoG7dNYb4AzFKZY5ZqFAxZgXxgwmTRQ7EQQmQH7/N/CZuxUinltAAp8wSIe/TJq9FipsG9lzvZhT2MuzBmJiimc1U/AmxHHj4LvwAOSTPzZ7TtwY2cgVEPqzJ2u9CSpsG2hVt+P329mvmu0f2Qt/me7cJBGlA0n/RfBfdhnSrN+TQ0DnPrckYzlp9mqosG3g+S0HLV5o0MX7M8cj0opWThQ7EckgG/Uq/JacMqmUkwx+kvH+boAmz6zgUGEpPj6Wi02Xb5BDDN7LHoff3TuMNFNciObWPqjPvg9hUCLkUz4lh70eKmwjzt+pQpBchiAfGYLkUpQ3tSK/qg6FdY3IKa3Cl6cvk19iwpKh/fDtwmmkmeImtJXnIIocSpq9HipsI/ieOLMEFTXFU6BrbAfx3cLpVNQUj4EK206SQ4Ow99dzsXgo+20YFIorocK2g6XD+2Pb47MwOZW9uSGF4mqosI2Yx7Oee35GKg4+NR+rH5qKgVHshREUijugyTMCjU6HTZdvYH9BCXLuVCKntAoZ0WEYHB2OjOgwZESHcXYppVDcDRU2heKF0FCcQvFCqLApFC+ECptC8UKosCkUL4QKm0LxQqiwKRQvhAqbQvFC/h+xp2xaKHnDDQAAAABJRU5ErkJggg==;" vertex="1" parent="1">
          <mxGeometry x="210" y="75" width="97.29" height="70" as="geometry" />
        </mxCell>
        <mxCell id="bNeFM68Or8PcbVmSaTlK-10" value="" style="rounded=0;whiteSpace=wrap;html=1;" vertex="1" parent="1">
          <mxGeometry x="60" y="425" width="130" height="70" as="geometry" />
        </mxCell>
        <mxCell id="bNeFM68Or8PcbVmSaTlK-12" value="" style="rounded=0;whiteSpace=wrap;html=1;" vertex="1" parent="1">
          <mxGeometry x="80" y="280" width="190" height="90" as="geometry" />
        </mxCell>
        <mxCell id="bNeFM68Or8PcbVmSaTlK-11" value="&lt;b&gt;&lt;u&gt;&lt;font style=&quot;color: light-dark(rgb(0, 0, 0), rgb(255, 255, 51)); font-size: 13px;&quot;&gt;ApiTest&lt;/font&gt;&lt;/u&gt;&lt;/b&gt;&lt;div&gt;TC0001&lt;/div&gt;&lt;div&gt;TC0002&lt;/div&gt;&lt;div&gt;TC0003&lt;/div&gt;&lt;div&gt;etc..&lt;/div&gt;" style="text;html=1;whiteSpace=wrap;strokeColor=none;fillColor=none;align=center;verticalAlign=middle;rounded=0;" vertex="1" parent="1">
          <mxGeometry x="60" y="275" width="230" height="100" as="geometry" />
        </mxCell>
        <mxCell id="bNeFM68Or8PcbVmSaTlK-13" value="&lt;b&gt;&lt;font style=&quot;color: light-dark(rgb(0, 0, 0), rgb(255, 255, 0)); font-size: 13px;&quot;&gt;Endpoints&lt;/font&gt;&lt;/b&gt;&lt;div&gt;ProductEndpoints&lt;/div&gt;&lt;div&gt;CategoryEndpoints&lt;/div&gt;" style="text;html=1;whiteSpace=wrap;strokeColor=none;fillColor=none;align=center;verticalAlign=middle;rounded=0;" vertex="1" parent="1">
          <mxGeometry x="95" y="440" width="60" height="30" as="geometry" />
        </mxCell>
        <mxCell id="bNeFM68Or8PcbVmSaTlK-14" value="" style="rounded=0;whiteSpace=wrap;html=1;" vertex="1" parent="1">
          <mxGeometry x="197.29" y="425" width="110" height="70" as="geometry" />
        </mxCell>
        <mxCell id="bNeFM68Or8PcbVmSaTlK-15" value="&lt;b&gt;&lt;font style=&quot;color: light-dark(rgb(0, 0, 0), rgb(255, 255, 0)); font-size: 13px;&quot;&gt;Payload&lt;/font&gt;&lt;/b&gt;&lt;div&gt;ProductRequest&lt;/div&gt;" style="text;html=1;whiteSpace=wrap;strokeColor=none;fillColor=none;align=center;verticalAlign=middle;rounded=0;" vertex="1" parent="1">
          <mxGeometry x="222.5" y="445" width="60" height="30" as="geometry" />
        </mxCell>
        <mxCell id="bNeFM68Or8PcbVmSaTlK-17" value="" style="rounded=0;whiteSpace=wrap;html=1;" vertex="1" parent="1">
          <mxGeometry x="360" y="265" width="180" height="260" as="geometry" />
        </mxCell>
        <mxCell id="bNeFM68Or8PcbVmSaTlK-18" value="Execution" style="text;html=1;whiteSpace=wrap;strokeColor=none;fillColor=none;align=center;verticalAlign=middle;rounded=0;fontStyle=1;fontColor=light-dark(#000000,#FFFF00);fontSize=15;" vertex="1" parent="1">
          <mxGeometry x="420" y="495" width="60" height="30" as="geometry" />
        </mxCell>
        <mxCell id="bNeFM68Or8PcbVmSaTlK-19" value="TestNG" style="rounded=0;whiteSpace=wrap;html=1;" vertex="1" parent="1">
          <mxGeometry x="390" y="295" width="120" height="60" as="geometry" />
        </mxCell>
        <mxCell id="bNeFM68Or8PcbVmSaTlK-20" value="Pom" style="rounded=0;whiteSpace=wrap;html=1;" vertex="1" parent="1">
          <mxGeometry x="390" y="425" width="120" height="60" as="geometry" />
        </mxCell>
        <mxCell id="bNeFM68Or8PcbVmSaTlK-22" value="" style="html=1;shadow=0;dashed=0;align=center;verticalAlign=middle;shape=mxgraph.arrows2.arrow;dy=0.74;dx=30;direction=north;notch=0;" vertex="1" parent="1">
          <mxGeometry x="230" y="200" width="40" height="70" as="geometry" />
        </mxCell>
        <mxCell id="bNeFM68Or8PcbVmSaTlK-23" value="" style="html=1;shadow=0;dashed=0;align=center;verticalAlign=middle;shape=mxgraph.arrows2.arrow;dy=0.74;dx=25.6;direction=south;notch=0;" vertex="1" parent="1">
          <mxGeometry x="180" y="200" width="42.5" height="60" as="geometry" />
        </mxCell>
        <mxCell id="bNeFM68Or8PcbVmSaTlK-24" value="Request" style="text;html=1;whiteSpace=wrap;strokeColor=none;fillColor=none;align=center;verticalAlign=middle;rounded=0;fontColor=light-dark(#000000,#00FF00);fontStyle=1;fontSize=15;" vertex="1" parent="1">
          <mxGeometry x="280" y="200" width="60" height="30" as="geometry" />
        </mxCell>
        <mxCell id="bNeFM68Or8PcbVmSaTlK-25" value="Response" style="text;html=1;whiteSpace=wrap;strokeColor=none;fillColor=none;align=center;verticalAlign=middle;rounded=0;fontColor=light-dark(#000000,#00FF00);fontStyle=1;fontSize=15;" vertex="1" parent="1">
          <mxGeometry x="124.4" y="210" width="60" height="30" as="geometry" />
        </mxCell>
        <mxCell id="bNeFM68Or8PcbVmSaTlK-26" value="" style="html=1;shadow=0;dashed=0;align=center;verticalAlign=middle;shape=mxgraph.arrows2.arrow;dy=0.6;dx=40;notch=0;" vertex="1" parent="1">
          <mxGeometry x="550" y="280" width="90" height="50" as="geometry" />
        </mxCell>
        <mxCell id="bNeFM68Or8PcbVmSaTlK-27" value="" style="html=1;shadow=0;dashed=0;align=center;verticalAlign=middle;shape=mxgraph.arrows2.arrow;dy=0.6;dx=40;flipH=1;notch=0;" vertex="1" parent="1">
          <mxGeometry x="550" y="440" width="80" height="40" as="geometry" />
        </mxCell>
        <mxCell id="bNeFM68Or8PcbVmSaTlK-28" value="" style="rounded=1;whiteSpace=wrap;html=1;" vertex="1" parent="1">
          <mxGeometry x="640" y="220" width="180" height="325" as="geometry" />
        </mxCell>
        <mxCell id="bNeFM68Or8PcbVmSaTlK-29" value="" style="shape=image;verticalLabelPosition=bottom;labelBackgroundColor=default;verticalAlign=top;aspect=fixed;imageAspect=0;image=data:image/png,iVBORw0KGgoAAAANSUhEUgAAAD4AAAA+CAYAAABzwahEAAAAAXNSR0IArs4c6QAAAARnQU1BAACxjwv8YQUAAAAJcEhZcwAAEnQAABJ0Ad5mH3gAAAuzSURBVGhD5ZvpcxTnncc/z9PHjISu0YGEhEDgI/Yma5vYgIEEJCjKNiaQqxLHu6+2UptKtmrzF2wV/0DyJsl7pyq12draSiXh8oFtTlk44IBtHNvcQhI6mUGDNEd3P8++aM1optUzkphhs9ifKqnqeX5P9/S3n+vbTz8ttNaaLyEymPFlQZSrcaUUqVSKTCaD4zh4nhcs8nfHMAwsyyISiVBTU4OUS6vLksKTySTJZJJoNIplWViWhW3bSz7x/wVKKbLZLI7j4DgO6XSa+vp66uvrg0UXsEC467rE43GUUjQ3N2NZVmH4/zXZbJZ4PI6UklgshmmawSJ5ioS7rsvU1BSRSITGxkaEEMWlHwK01ty9e5dMJkNLS0tJ8UXtNh6PE41GaWpqeihFAwghaGpqIhqNEo/Hg+E8eeHJZBKtNQ0NDcUlHlIaGhpQSpFMJoMhyAnPFYjFYg9tTQcRQhCLxUgmkyilgmG/j8/MzJBKpWhtbQ3Gq4b+7ALOwNtk/3ICAdib+zA370I8/lSwaFWZnJykpqaGFStWFOVLgEwmg23bRYGqkZpBfX4Rffoo4sIZrMQ4ZmIc8dfT6FNH4MrHkJ4NHlU1bNsmk8kEs33hjuNUX7jW6Ht30Tc+Q58+inr/XcT1v2Hcu4tx7y5c+wT9l3dRp4/C4BWYDe+LlWJZFo7jBLN94Z7nVX++Vh7cuoo6fRR99PcwditYAj06iD78O9TAMRi5CSF9sVJs2w51nPlR3TCM4kglaA3pFPrSOXT/m2jXJdQeArgu+sRB1PE/oy9/VHXxpXQ9OP9pWtDaAZ09MDdThInXWqGnRuFCP/rUYbj2yQNr9oVUV/hMEj0+jBq+DgLkExuQ219GdD8K0VooIR5ADV1Fv/cWqv9NGLr+QAc8qi1cXf4I9+h/kf39r1HjI9Dehdy0E/n9f0V0rc+rLiWeO+Pog79F9b8BQ9eC0apiHDhw4EAymVzSE01JsmnUlY9RJw+hz59Aj97Ci09CtBbZvR7R1AKRKK6nyEyOk3VcQGMsMEvaHxQTU4hMGuqbEPWNYIT77aUSpq9y4TNJ9OAV1KnDqAvvoW/fRKRT6MQkeB7U1iE61yDqY9DUgm5qRa55DKOxGSmAe9PBM8K9u34/d7LQ2AzRWoQdCZZaMmH6KhOeTaMHr+ANvIX3zh9hamwuoBHpWbzJUdR0HPORryJaOzDWP4m9YRv2hq3Ilna/pQxeBqUJ1j3JBNy+iaiphYZYRTUfpq+iPq6ufYp38hDeW/+DnkmiA/3XuJdAXrmEd+wP6IkRP1NKsCLIJ59FP7sDp6UTbdkLjgXQM0nUG/+NPnUEfePzQLQy7k94agb12UW8EwdxPziFmk74fXPu8nVOguf5ZSdH0enU/PFSQrQGUdcAK+pK16Ty0MkE+oOTcOJgVe3t8oXPJlE3L+OdPop3/iR6+EawRBHayZAdH0alZuZuzjyipg6zax0iUr7/6uHrqPMnq2pvlyVcex5q6DruwFu4R/4TPTpvQ4Mrd7mmq9IpUlcu4U3chsJaB2SsFeu5HYjGVpC+wwo29xzVtrdLHty056E//xD3xCG8/jdgJlnyMgtnKSHA0hpvagwlJOYj/wCuh/9sGoVYK6K+CZGeRY8O+fkFFCaF1jA+DJ4LdY2I5pXFP1aCMH1Lq/HZJPrqJdyTh1EX+9GTo77VDJYLQ2uk9pCDlxG3B/2nNs/B++wi3qcXfNFPbUZs2Y146vl8zYdRTXu7qHCdmkENXsU98zre2WN4AUcVJj7Y7AF/UMqk/BrSGu+j9/3Wc+1v0BBDPrsducO3t6K5Heoa0ZEaEAsvsRr2duFZA6jBK7hnXsc59DvU1HgwDCXEBzNTCjIakAYiWou8M4536gjJ3xxA3R6EtlWIZ3t9e7v1BfRjT+O2d6NKjfgV2tuywr3LH+GeOoI78LbvorQ/oITOuSFpredrX2tFfiVbCDJKkZm9hz12C+dPr+GeOwmWjfjqc8jd38d85WdE/unnyO0vo9tXF52b3PmcLHrgGOrUYfTVS8EiZSkrfPb4YZyLZ1GjQ8FQKEHxQQqHIVdplNIY6Vn0hX7UJ+dh+g4i1opY+xjyK09jPL0FY/te1Koesir87Hp0EPXhWZzTrwdDZVlE+CGcuXla68VHT0qI1yFNRAg51ywUMjGJuH0TPT4MhQKjNYhntpJt7SLj5W3RAtyRm6SOHwpml6WscGFHEQV9LCg+pyd4QcF0Lq8oXyugYC7Weklzc9i5MUxktCaYW5aywute+B5W9/qivKD4HMELCqZLkSvnDF4lfeE99My0b3XxZwJ9/iTW2CARKfKFg+c2Vq8jsus7gdzylBUe/eYLWBu2Ilc/GPGFcT0xjHuhn8yZN3E/HMC9dA7ng9N4xw9ijN7ElAtbGwBd6zGe2YK1bXdRfDHKCpdd6zH79mH27gU7UjSnLle8CAxuiFzaf6gxnAzmjU9J/uo/SL/2CzK//SXp136B1/8Getx/stO5fxoQEm1FkH37kL37Eat6Cs++KGWFA8iVnZibd2L/6N8QbauKYssRHzUkEWP+5yJSEi1IA0gBK0yJOXoTY/BzrPgYuG5RmfyNbOvEePXfERv7/EXNZbKocOwoomMN5uadmDv2IHseLwqXEr+A2jr03IIjgLaj6Mh8OocUApGeRaRmENlMyG0Eep5AbN+L2NSH6Fjje/5lsrhwQERrEF09mH37MDbuQKzsWlKzB9AIlDTQ65+EwrGiswe15lE8RLjFLSAfFhLRvhq5sRfZuw/RuRYiyxfNUoUDCGkgu9Zh9e3HeumHEHjzEhSf64pKSmbNCPaeHxHd8XI+bu/Yg73nFe5pgVf0hOX3+eCsrfHX6uVLryL79iG61ob6+KWyrCOFNBBtnZjPbcf6wU+WNNrLFfXUbtiKsbILrPkFBxmtxWzvpu4fN2HU1hXZ2xyFSbH6EYxXfob8+jZo6ahINMsVzlyzl51rsb7xIsbmnYv3eSExInNGqLBmpYGwbIRpEbLUWIRY+zjy+V3IrS8gVq1BLNOshLFs4eAPeLJrHdbO/ZjP70I0NfvraHMUitfZNM6tq6g74/4KjFb+X3oWb2qM7PANcOZf4xbWujAkurEZuWU3sm+/36fvYyAL4/6EzyFWrcHY9iLWd/4F0dBUFMuJF5k0xtA11Nm3cT85B9kMOp3C+3AAPXAM684oZLOBY+f+6pqwvvdjjG0vIju6i8pUitBa65GRETo7O4OxJaHTs6jRIbwzr+MOvI0KLAML4Veh6OhGtXfjtnQgAGNiBGN0ML/sHGzsYu3jmFt3Y2x7yZ9FKmjeYfoqFg74z8W3B3He+RPe2XdQgYWBnHhX6fzjpW0IrMB6WS4lux/B2LwLufPbfk2blb27D9NXUVPPISwbueZRrN3fxShjb00pqDUltabEFGKBNdFi7mVD77cwdn3XnzUqFF2KqgjPIdtWYS3T3hYiVnZi/vPPMTbtRLQt34Yuh6oKL7a3LyN7vlIUDhOfMzpi3ROYO/ZibOpD3qcNXQ554WF7we6HnL21lmpv52yosbEXo3cfsgIbGkYpXZK5fSJhO4PuFyGNvPhF7a1pYe15FbNvP7Krp2JHFsRxnNB9MJIyW6IqodDe2iXsrehaj/3KTzG+/g1k66qqi2ZOeNiOrvzOxmw2SywWC8YrJ5tGjY/4Lw8+Poc3NgxCIts7Mb+2Eat3L6K144H16Xg8jm3bC3Y2Cq21VkoxNjZGW1tbyW3OlaLHhnD+eobs+8cRwsB+vg/zmS2Itvv3D4vhui4TExO0t7cv+MAgv189mUySSqVoa2v7Qmzk1VozMTFBTU3NgheGFI7q9fX1CCGYng7Zk/IQMj09jRAiVDTBeTwWi5FOp0kkEvOvex4ytNYkEgnS6XTZMavsNymxWKz6m3sfIJlMhkQisfxvUgrJfYVkmia2bROJRLBtO3RO/HvheR7ZbJZMJkM2m8V13fv/CqmQL+V3Z190lnZ7voB8aYX/L223gyJJFAeLAAAAAElFTkSuQmCC;" vertex="1" parent="1">
          <mxGeometry x="690" y="260" width="70" height="70" as="geometry" />
        </mxCell>
        <mxCell id="bNeFM68Or8PcbVmSaTlK-30" value="Repository" style="text;html=1;whiteSpace=wrap;strokeColor=none;fillColor=none;align=center;verticalAlign=middle;rounded=0;fontStyle=1;fontColor=light-dark(#000000,#FFFF00);fontSize=15;" vertex="1" parent="1">
          <mxGeometry x="695" y="510" width="60" height="30" as="geometry" />
        </mxCell>
        <mxCell id="bNeFM68Or8PcbVmSaTlK-31" value="" style="shape=image;verticalLabelPosition=bottom;labelBackgroundColor=default;verticalAlign=top;aspect=fixed;imageAspect=0;image=data:image/png,iVBORw0KGgoAAAANSUhEUgAAAPUAAAEFCAYAAAA7VKHIAAAAAXNSR0IArs4c6QAAAARnQU1BAACxjwv8YQUAAAAJcEhZcwAAEnQAABJ0Ad5mH3gAAERKSURBVHhe7Z15eBRV2vbvqurudDpbZ4WEhABhX2QTVEZlERVknAFBBXfUwRkdN8bxdZxRccNdGAfEZUBABRHEcXjRGRWQKKsgayQSCCGsIQvZ01vV8/3x1am3utKBhKQ7ncr5Xde5Oqm9zjn3eZ6zlkBEBA6HYxpE4wYOh9O24aLmcEwGFzWHYzK4qDkck8FFzeGYDC5qDsdkcFFzOCaDi5rDMRlc1ByOyeCi5nBMBhc1h2MyuKg5HJPBRc3hmAwuag7HZHBRczgmg4uawzEZXNQcjsngouZwTAYXNYdjMrioORyTIfCFB82JMVmJCIIgaP8LggBFUSCKonYs+9Ufx/5vaB8n/OCW2oQQkRYAQFEUPzESERRF8RMqC+x4/bHGAoET3nBLbTL0glYUBW63G263Gy6XSwtutxter1cTNhO0JEmw2Wyw2WyIiIhAVFQUbDYbIiMjYbFYIIoiRJHbgXCHizrMMVpbvTXVW1BZllFZWYmjR4/iyJEjyM/Px/Hjx1FSUoKKigpUVlZq4vZ6vfB6vZBl2e9eFosFVqsVVqsVERERcDgciImJQXx8PDp27Ij09HRkZWWhS5cuSEtLQ3R0NERR1Nxzo3uvLzA4oYOLOsxhrjCr+zJxe71e1NbWYs+ePfj222/x3XffIScnB263Gz6fD7IsQxRFTfxNTWa9KPXitFqtkCQJiYmJ6N+/P8aMGYPRo0ejZ8+ecDgcfnV0RVEgSRIXdYjhog5zZFkGEaGmpgbHjx9Hfn4+du3ahU2bNmHPnj0oLS3VLK7eijM3+UIEbUR/LegEzwoNm82Gjh07YtiwYbj00ksxcOBAdO7cGWlpabDb7VzYIYaLOkxQFEWzbMw6y7KMn3/+GRs2bMCWLVtw8OBBHD16FNXV1X4WmIkMhtZpowgvlEDXD2TFiQgWiwXx8fHo1q0b+vfvjyuuuAKjRo1CWlqaX+FgrJtz0bccXNStCIt6YxLU1NRg48aNmD9/Pnbs2IHq6mq43e56x4UrTKCSJCEiIgJOpxPjxo3Dvffei6FDh4KIIEmSdiwLnJaBi7oVYZZWURRUVVXhyJEj2LBhA5YvX46cnBx4vV4/K2ls2ApX9CIVBAGiKEKWZTgcDowYMQLTpk3DJZdcgs6dOyMiIoK75y0MF3UIYQKGmtkVRUFtbS2+++47/Pvf/0Z2djaOHDniJ3a9qNsKerec/bLtgtrY1q9fP4waNQqTJk3C0KFDtS4zdpz+WpymwUUdQphYiQgulwubN2/G7NmzsXfvXlRWVsLn82mNT2ZHEARYLBYkJSVh3LhxePzxx5GVlaWJmNT6ORd10+GiDiGKoqCiogK5ubl4++238cUXX6C2thaCIECWZS0DtxdRs+4vSZIQGxuL++67DzfddBOysrLgcDg0y85pGlzUQYBZY73rTETYsWMHli5dijVr1uD06dPw+XyAzl1lx7UHAonVYrGgV69emDJlCm6//XZkZmb6ue6MQOdy/g8u6iBAan2YNRCdPXsWb731FpYtW4bjx49rfc/twSI3FUEQYLfb0bVrVzz++OOYOHEiHA4HJEmq1w3GCQwXdRBgfc5utxtbt27FCy+8gO+//x6iKGr1Zi7qwDCXmw1XvfHGG/H4448jMzMTERER3CVvBFzULYTROufl5WHJkiVYvnw5Tp48qQlYH9086uujd7dZvTsrKwv3338/pkyZgpSUlHoWm4vcHy7qFoKJWlEUbNy4EbNmzcKOHTu0cdicpqMXdnR0NK655hq89tprSE1N1fq2KcDotPYOF3ULIcsyamtr8dFHH+G5555DWVmZ1hDG3ezmI6qzwdLT0zF//nyMGTMGNptN2875P7iomwGLOuZuz5kzB8uWLYPL5fITMo/iCyOQWAVBQGpqKh544AH87ne/Q3x8vJ+lDnROe4OLuomQboSUoiiQZRk7d+7Ek08+ie3bt6O2tlarV3OCgyAIiI+Px9ixYzF79mx07txZc8e5qLmoLxhFUeDxePDdd9/h9ttv10aECerwTx6twUNQV2kRRRFDhw7FggUL0LdvX4iiqE0Uac/wFoZGwkSqKAp8Ph8qKyuxcOFC3HvvvTh79izvew4xRASv14sff/wRv//977F+/Xr4fD6tsbI9pwO31I1AH0U+nw9erxdvvPEG5s+fj+Li4nadgVob1jrepUsXPP/885g4cSKsViugjlBrj3BRNwLSrR5SV1eHZ599Fn//+98hyzJ3tVsZJmpFUZCYmIg333wTN910EywWS7t1xbn73QiYO1daWooXX3wR77zzDrxer5/YOa0Ha7w8e/Ys/va3v2HlypXweDxa+rS3NOKibgB9ZlAUBS6XC2+88Qbeeecd1NTU8PpzmMDSgfVEnDhxAk888QQ+/vhjuFwu+Hy+didq7n6fAyZst9uN5557DnPnztWWFWJdJzz6wgfWpSVJEpxOJ+bOnYvJkydDkqR2Vb/mlroBmAWoqqrCggUL8Pbbb8PtdvuJmQs6vGDp4fP5UFpaihdeeAEbNmzQeib0x5gZLuoGILXLZM2aNXjzzTdRXV3NXe42AGu4VBQFeXl5ePLJJ7Fr1y7Isqw1bJod7n4HgIjg8/mwe/duTJw4EUVFRdrKJDy62g5sMEqfPn2wcuVKZGVlgdRlkswMt9Q6mEstyzJycnJwxx13oKSkpF25buFGc4Z9CuoyUT///DOeffZZnDp1CpIkmb7q1O5FrU9cUhvFTp48idmzZ+PIkSNa11VzYA04+hlFzcmsZofFV3PjiLnbPp8Pa9euxaJFi/w+DGjW8fntXtTGjCOKIj744AOsXbsWHo+nxebq6hvYjPds7+gLPH08sd+WiK+amhr8/e9/x9q1a427TEe7r1PrM4/H48G6deu0CRrMTWtOFImiiA4dOuDiiy+G3W6Hy+VCWVmZ9jXKqqoq7aN2MIjf7AjqskV2ux1RUVFISEhAYmIi4uPjYbVaUVxcjF27dqGqqgpoZpyw+nXHjh2xevVqDBw4EIK6TLHZaPei1reW7t69G7fccgsKCgr8ukGag8ViweOPP46//vWvsFqt2kCWoqIiHDp0CDk5OdixYwe2b9+OEydOALoRbGhmRg43mCUWRRFWqxU9e/bExRdfjKFDh6Jv377o0qUL4uPjYbfbIQgCTp48ibvuugvZ2dlACyw2wYR9ww034PXXX9dWUDEd1M5RFIV8Ph8VFRXRHXfcQZIkkSiKJAgCAWh26NixI3311Vfk8/lIlmWSZZl8Ph8pikKyLJPb7aaioiLavXs3vf766zRgwAASRZFEUax3rbYeRFEkq9VKo0aNoqVLl1JeXh6VlZWRx+PxixeWLm63m/72t7+1SHyw9BQEgeLj42n+/PlampiNdi9qWZbJ5XLRkiVLKDExkSRJIkEQWkzUw4YNo4MHD2qFB8u0TOBGoZeXl9N7771Hw4YNo4SEhBZ7jtYMkiRRSkoKjR8/nr766ityuVwky7JWsLHA/lcURYuvb7/9lqxWa7NFzYIgCGSxWKhLly504MAB8nq92v3MQrsUtT4D+Xw+KigooCFDhrSogARBIEmS6Pbbb6eqqirtfg3BMhaz3seOHaMFCxbQmDFjKCoqiiwWi1bYGJ9Tv10fmIVjf7NffcHFjpEkSdvOjg0UjO9pDOw4SZLIYrFQYmIiTZkyhT777DMqKSnRRNQYZFmmkpIS6ty5c4uJGuoziqJI48ePp6KiIvJ6veTz+Yy3b7O0S1EzmIDuuOMOstlsjcq0jQ0sY8+ZM8fP+pwPRVHI6/WSLMvk9XopPz+f5s2bR127diWLxdKoqoFeqOzXYrGQw+GguLg46tixI2VmZlLPnj2pd+/e1Lt3b+rRowdlZmZSSkoKOZ1OioyM9BM6eyfjvQIF9u6/+tWvaOXKlVRUVERut/uchVogWKE7bdo0kiSp3n0uNLDni4yMpDlz5mjuv1lo1w1lPp8PX331FSZPngxS+y1bIjr0XTPr1q3DyJEjoahrgjeme4Y13un/P3XqFJ5++mmsWbMGFRUV2gg3FqxWK2w2GyIiIpCQkIAuXbqgZ8+e6N69OzIzM5GamoqkpCTExsbCbrfDZrPBYrFAUb+syfps6+rqUFdXh6qqKpSUlODYsWPIz89HXl4e8vLycPz4cVRWVmozoPQrvrDnSEhIwF133YWZM2ciLi4OaKDb6nywNFm+fDmmT5/eov3K7HkuuugiLFmyBP369Wux7svWpl2KWlGn6Z0+fRozZszAt99+q2WYlooOSf3gem5uLjIyMoy7G43qTUFRFFRXV+PLL7/EO++8g3379iE5ORndunXTBNyrVy906dIFaWlpiIqKqtdd0xRBBWpp9nq9qKysxLFjx3Do0CEcPHgQhw4dwpEjR1BQUICKigpcc801uO+++zBq1CiQ+vG7xt7TCBN1Tk4OLr30UrhcLuMhzcbhcOCxxx7DE088oX0BhNr4WuLtUtTMwnz88cf405/+5Ncn3RIw8aSlpeGXX36Bw+EwHtIk9MJWFAWFhYXIy8tDhw4dkJKSgsTERFitVk08egveEjArDF2hx0RfV1eHsrIynDp1CiUlJRg8eDA6dOigrUbSXFEDQElJCfr164fi4mLjIc1GkiRkZGRg7dq16N27t18ctlXapagVdRWTKVOm4IcfftBc40DW6UJggrrkkkuwceNGbc2s5sKeT1BXLGWw+zHxBcqQgbadi4ayhf4ezJIyt9rn82l98Wx/Y6scgWCFmcvlwtChQ5Gbm2s8pNlYLBYQEW655RYsXLjQFN/Ebrs+RhNhGYTUGViff/45fvzxx3qWpyVg90lMTGzRwQ2iKGoikSRJC/pt+nqrPjQV4/ks6O/BBpGwbTabze+Y5lhpPZIkISYmxri5RWBtAqtXr8bGjRshy7I2uq+t0m5EzSAiFBUV4ZVXXgl64kVERBg3cZqIoA7lNLYPtBSsAHa73XjvvfdQVVXVpuvTaK+iXrZsGY4ePapZ6WBhs9mCfg+zw0TXEha/IUhtr9i8eTO2b9/e5tOsXYlaURQcP34cX3zxBRS1BTyYCVheXm7cxLkAFHW8fDBRFAXFxcX48ssvtXXocI62hXCmXYmaiPDDDz/gl19+Me5qUQS1kaikpKRF+1bbK+yLKMFGlmV8+eWX2vfE26Kg0Z5ETUSoq6vDl19+iYqKCuPuFoXU/tljx44F3cK0ByorK1FWVmbc3OIQEQoKCrBq1SpN1MF0+4OF6UXN6mREhCNHjmDjxo1aggWrJGaWury8HGfOnAnafdoDRITCwsKQWGqWJ5YsWYKqqioIhq7DtoKpRc1KWpZYq1evDsoABiNMxIqiICcnp02W9uGCIAjIzs4OScHI8srhw4fx3//+NyT3DAamFzX7raiowAcffBCykpcNwNi2bVu7/EpESyHLMr744ouQdjMpioJly5ZpX2Jpa4QuploBZqGJCBs2bMCxY8eC3uINtcRnI9R27NiB4uJiEF8zvMko6trdO3fuDHqaQb0f6xXZv38/Dhw40CbTzNSiZu6Uz+fDZ5991qwhixcCqeue1dbWhvS+ZqKkpMRvXHuoKC4uxvbt27moww0m6oKCAuzduzckpT1DEATY7XbMnDkT6enp2jZO4xEEAUOGDMErr7wStBFlDeFyubBz507U1dUZd4U9phY1c6V++uknnDp1KmQusCAIiIqKwiuvvILx48drU/q4qJuGIAhwOBy45557cNddd8HhcGjj3YONoijYtm0bSktLtSpbKI1CczC1qAHA7XZry8yGIlEEdaGAadOmYfr06VzIzYTF30MPPYShQ4cCIRzlVVBQEJSZYcHG9KKurq7G3r17gz55A7qZTf369cOMGTM0C825cEj99lW3bt3w4IMPajPVgg2pUz6/+eYb466wJ/ix04oQEUpLS3HgwIGgi0tQW7yjoqJwyy23oH///iHLgGaFxamgztT69a9/jYkTJ/qlZbDSlRXQ3333HTweD6gNfabH1DlOFEXk5uZqXUqhoG/fvrjlllu0yffBynTtDUEQYLPZMHv2bKSnp2uiC3a6siWboOantkDbeMpmkJ2dDa/Xa9wcFKxWK/7yl78gJSUl5N1n7YX09HTccccdWvwGK45Zw5jb7cbmzZuDdp9gYDpRs5JblmV4vV5s27YtJBZTEAQMHz4c48ePN+7itADMFbdarfj1r3+NLl26BN1ysry0devWNjUqMLix0sqcOXMGBw8eBELQYmqz2TBt2jRtKR9OcBAEAd26dcPw4cONu4ICESEnJwfV1dVBNwwthalzX25uLqqrq4MuaADo3Lkzhg0bBlEUQ3K/9giz1nFxcRg9ejRsNpvxkBaHiFBcXIxTp04Zd4UtphM1azxRFAV79uzRJlYEE1EU0a9fP2RkZEBWF9nnBA9BEHD55ZcjKioqJANRamtrUVhY2GYKa9OJmo0YEwQB+/btgxLkFSxEddXMQYMGIS4uLiSZjPP/PaO+ffuGZISgy+XC8ePHg5qPWhLTiZpZSZfLhcOHDwfVajKvwOFwYMCAAdqa0W0l8dsqgtq9NXbs2KCmL8PtdmtLHLUFTCvqqqoqlJaWgkIwZtdut6N3796aleYNZcFHFEVceeWVQBAHoDC8Xi+KiorgdruNu8IS0+U+VpqWlZWhpqYGCGKis8IiNjYWqampxt2cICKKIrKyshAdHW3c1eKwxrJQjXdoLqYTNRNaWVmZVrIG21JnZGQgMjLSuJkTRGRZhtPpRHJysnFXiyMIAsrKytrMIpKmE7WorjhSXl4ekkkcoigiPT29xb6XxWkcgjpfPTk5OeiFtiAIqKys5Ja6NREEISSiZm59QkJC0Fx8Tn0Etb9aFEXEx8cbd7c4siyjuroaHo/HuCssMaWoofYtBntWDakzdxISEoJuLTj+sLgPRZ1aEATU1NQEPT+1FKYTNWvtDlUiCOqiCJzQI0lSSNoyBEGA2+2G2+1uE91aphM11BZw/feQggkRtZm6ltkgdSGDUOD1enmXVmshCAJkWdYmtgcbQRBClrE4/4egfj0jFAUqqSvShuJeLYHpRA1dC3ioCPa3uTj1ISKIohiy5ZcpRItWtgSmFDWCOOBED7sHF3XoEXTfKwsFQhAXZGhpTCdqUhdECFUCCIKAkpKSNlOKmwlZlkNWoIYyTzUXU4oaassoS4RgJQa7V0lJSZupb5kFRf0QfSg+cQs1D7WVBTDC/wkvAFEUYbPZgiZmBnMBz549i+rqauNuThBhHlIoPmInqLPCQv2VkAvFdKJmJal+An2wEp1dt6amBqWlpcbdnCBB6liEY8eOhaSbSVCHpEZERBh3hSWmEzVUYTscjpC4SqIowu1248SJE1pm4wQXFscHDhwIyQAjIkJERERIlk9qCYKf61sBIgrZUjesTzw/P19rLOPCDj6KomDLli1Br2Ix7HZ7mxk5aEpRA4DT6Qx6HYi1iPp8PuTl5WmNZVzUwUVQB/zs37/fuCsoEBGcTie31K0FE1RiYmLQvzbJ7uXxeHD48OGgL8rA+T+OHz+OEydOhKQrURAExMfH8zp1a6O31MG0nKweffjwYZw5c8a4mxMk9u7di9ra2qCmrR4u6laEWcmEhAQkJiYG1VLrKSwsREFBQUju1d7xer3YsWMHXC5XyBpDU1JSeJ26tSB1RFl0dDTS0tKMu4NGZWUltmzZEvQlidszpI6/Likp0ZZ/DgVWqxWpqalc1K0Fs8yiKKJbt24hKcmhZrg1a9bA5XIFfcWV9gprlCwoKMD+/fu1qk+wcTgcbWphydDk+FZi+PDhIenHhCrqnJwcZGdnh6wgaU8wKy2KItavX4+ioqKQiToiIgKZmZltJl3bxlM2AUG3mP7gwYND0lfNUBQFc+fO1VbIYBmR0zIQESorK7Fy5cqQfYVSEATExMQgPT3duCtsMZ2o9QmdkZGBTp06haSEZYVJdnY2vv/+ey7mFkZRFMiyjFWrViEnJ8e4O2gIgoDOnTsjMTExJIVISxD83N4KsDp1VFQULrroopC0SLME93q9+OSTT1BZWcmF3YIIgoBTp07htddeM+4KOoMHD24z3Vkwo6iZgJnlDNWnWVj9TlEUrF+/Htu3bweF4GP3ZobFJ6lrkX344Ych+/oka3AVBAGjR4/WtrUFTCdqI8OGDYPD4TBuDgosE548eRLz58+H1+sNWUOdWVEUBT6fD/v378cnn3wCWZZDImp2j/j4eAwZMsRvW7hjalELgoDMzEx07do1pAmiKAq+/vprvP322/D5fNwNbwaCOs77nXfewcGDB0OajgBw2WWXIT4+XrPabQFTi5qIEBcXhwEDBoQ8QWRZxssvv4yvvvoKXq8XiqJwcTcSfVXG4/Hgvffew6pVq0LW4g1du8y1116rNbSGOg9dKKYWNdTFEgYPHoyoqKiQJQqpX4+oqKjA7NmzsXfv3pC5jW0dFkdM2J999hleeOEFbZw3C8FGEAQkJCTgsssu0/4PVf5pLqYWNSttBw0ahNjY2JBkBoYoivB6vdizZw+effZZFBcXh/T+bRlBEODxeLBx40a8+OKLqKqqahVBXXTRRX5DjduKp2V6UUuShP79+yMzMzOkGYPUdallWca3336LGTNmIDc3V3PDeQPa/6G3wCxuNm7ciCeffBL5+fkQ1A80hBKLxYJhw4YhLi6Ou9/hBhEhISEBY8aMCakLxTIoqxd+8803uP/++7F161bIsuxX6rd3C07qFzBkWYbb7cZHH32EP/zhD/jpp5/g9XpDWpdmxMXFYfjw4bBYLFq+CVXeaS6mFjWzlgBw4403IiIiAqIohjRx2L1kWcaWLVtw9913Izs7W2s8I96Xrb1/TU0N5s+fj8cee0zrjw61mJl409LSMHjw4JCMRmxp2t4TNwFBHYAiSRJ69eqFUaNGadsuhIZK60DbGEa3Mi8vDzfffDNefPFF/PLLL1qXl94FNTv6OCEi1NXVYdu2bXjwwQfx/PPPayuztlaBJ0kSrrrqqjY1M8sPaif4fD76/PPPyeFwkCAIBKBJQRAEEkXR71xBEPyC8ZyGgiAIFBkZSSNGjKDFixdTRUUFeb1e8nq9JMuy8dFNg6IoREQkyzK53W5yuVxUWFhITz/9NPXs2ZMsFguJolgvvkIVWBrHxsbSjh07SJblNpke7UbUsizTiRMnaPDgwfXEeb7AjhVFkaxWqxYkSdIygvGc8wVBEMhisZDNZqORI0fSd999RzU1NeTxeEiWZVIURROBGWDvI8syeb1eKisrow8++IAyMjIoIiKCJEkiq9XapHRp6cDSZMKECeTxeMjn85HP5zO+StgjUHvw99TuiLq6Orz88st4/fXXm/T9aqvVir59+2LMmDHo0aMHoqOjUVxcjF9++QUHDhzAoUOHcObMGa3xqzHXFdTuNkVRIKjT+0aPHo2JEydiyJAh6Nq1K6KiouqdY7w26doNQgG7v94tNj6TEeZql5aWIi8vD5s2bcJnn32Gffv2wePxaMfoj28NJElCVFQUVq5ciauuuqrNtXoz2pWoFUXB5s2bMX36dBw9evS83SQsMSMjI/Hhhx/i2muv1VYoBYDa2lqsWLECa9euhc/nw6ZNm1BZWQmoDWNNgYnc4XAgKysLQ4YMwZgxY3DppZdq00dFUYQkSVpdk9RBLqFcZkcvan3WYYWT6v1pz1hTU4Pc3Fxs2LABmzdvRk5ODk6ePKl9Pzycsp/FYsFVV12Fjz/+GPHx8SEtLFsUo+k2K8ztq6qqokmTJmku+LncPbZPkiR66qmnqK6uzs8dc7lcNHPmTIqNjaVXX32VPv/8c0pNTSWLxVLvWucL7F6CIJAkSWS32ykiIoISEhLo6quvpnfffZdycnKotrbWzz1nLi37DQWB7q0oCvl8PvJ4PFRcXEz//e9/6bHHHqMBAwZQREQE2e12Lc4vpLoSihAZGUlvvfUWeTyeNl31aVeWmv2uX78ekyZNgsfjOefwTWZ5RFFEZGQknnrqKdx5551ISkqCJElQFAVVVVXYtWsXevfujaSkJGzYsAEvvPACdu3apa0D3tD19ehdPEEQNMunt35sMcUBAwagT58+6NatG1JTU+F0OpGQkIC0tLSgD4dl3kFJSQlOnDiB8vJyFBcXo7Cw0K86UlZWBlmWNQ9E3y/PrhMusPgaPHgwPvzwQ/Ts2TPoH4IIKkaVmx1ZlqmmpoamTZvWJIsqSRI5nU666667aM+ePeR2u7USXZZl8vl8VFVVRb/+9a9p/PjxNGrUKJIkqUn3OF9gngWzdsySd+/enR5++GE6ffp00K21oijk9Xpp69atNHr0aOrQoQM5HA6t5bqpjZCtHZhnJIoiPffcc+Ryucjr9Rpfu03R7kTNRLhnzx5KTExsVCbUi8nhcFB6ejp9+umn5PP5tOvJskwej4duuukm6tChAy1dupSGDx/eoqLWByZsSZIoKyuLNm7cqLWcs/cMBj6fj2RZptraWvrnP/9JoiiSxWI5bxyGcxBFkdLT0+n48ePa+7Vl2p2oSbXW1dXV9MADD5DNZmtUHY+JGjqr/dprr1FZWZkmap/PR2VlZbR+/Xo6ffo0HT58mPr27at11TQ34+sLFyZqu91O8+bNI5fLpdVvKYiiZnVnn89HtbW19MADD1BERESz3621giRJ5HA46J///Cd5vV4u6raKrDaaZWdn+w16aErGlCSJOnbsSHPmzKG6ujryer2a1fZ4PHTw4EFasWIFzZkzh5KTkzXX1HidCw3sejfccIM2eCXUmdHn81F+fj4NHTq0SXEXTsFisdD48eOppKQkaAVhqGmjbfbNg3W3DB06FOPHj/fb3lhkWcaZM2fw7LPPYs2aNdq5rOtpxYoV+OMf/4gdO3bg0ksvDUrjVXR0NJ5++umQfYvbiCiKSEtLw9SpU9vMFyGNxMfHY/r06XA6nVoaNSUfhCOhzwlhAJvUYbPZ8PDDD6NTp06QJKlJwmMt01VVVXjsscewc+dOrSWdiNC/f38IgoDTp0/jzjvvRFpaWotOJhEEAWPHjkXXrl21a4Za2IqiQJIk/OpXv0JGRoZxd1gjSRJsNhvGjBmDkSNHGne3bYymuz3BXOVPPvmE4uLimuwes7qt3W6nadOm0cmTJ8nn85HX66Xq6mpauXIl/etf/6KKigr66KOPqFOnTiRJkja81Hi9poSoqCiaN29eq/ap6tsRJk6cqLUiN/fdgh1Y416HDh0oOztba/A0C+1a1KwOXFVVRffdd98FiZqdExcXRytWrNAyOqu3s66vqqoqmj9/PiUmJpKgdqMYr9eU0LlzZ1q/fr3fYJhQZ0x9o9nLL7/c4u0GwQqi2mvAGhhDHW/BJrT+WpjBBnbYbDbcfffd6Nu3b5M+08NcbVEUUV1djblz56KqqgrQDftkbn1BQQG6dOmCGTNmICUlRXOZL9Qd79ChAzIyMi74/JaCtSGMGDFC29baz3Q+LBYLxo8fj7vuuisk3zAPNe1a1NCJr3///rjvvvtgtVphtVobnTFJNy94586dWLFiBaC7rqguaTRz5kzcdddd2qSSSy65BBEREZAkyW91DSOsUNBfT1S/6JmUlOR3TqDzg4n+mbt164bo6GggTAWij7usrCzMnDnTb8x8qOMuqBhNd3uD9e36fD4qLy+nW2+99YIHU4iiSH379qUzZ8749Rd7vV564403KC4ujgYOHEhFRUWUm5tLL7zwAmVmZpLVam3QbdW7+Farlfr160fPPPMM7dq1i9xut5/73VooikJ1dXXUrVu3es8fLkFQp1VGRETQa6+9RjU1NaarSzPazdjvhmAuNAsVFRUYN24cdu/efc5x4UZYy3ZkZCQWLFiAqVOnwmKxgNT1twRBQHZ2NogIl19+OdxuN95880288847sFgs6NmzJ06dOoWKigp4vV54vV5IkoS4uDh06tQJl112Ga655hoMHDhQG99tsVggSVLIW72NsHe8+uqrkZ2drW0LJywWC0RRxPjx47FkyRJtWmubHuPdEEaVt2eYVV27di117969SYNSWEu4zWajm2++mYqKivxGJ+lHncmyTOXl5XT//feTw+GgtLQ0+te//kWlpaWUm5tL7777Ll133XU0depUWrduHVVVVZHH46FDhw7RK6+8QjNnzqRvvvmGXC5XWFhqUgeiTJo0SYsHY/y0ZmDpMnLkSCooKDCthWZwUetgwqupqaE333yzSUsfMTdZEATq2LEjrV692k/UpGttZ+5+fn4+ffzxx7RixQqtO6y6uppmzpxJ0dHRFBUVRa+99hq53W7yer00f/58cjqdFBkZSQ888ADV1dWFfBRZQ8iyTLfeemuj4ytUgaVLz5496euvv9bi38xIs2bNmmW03u0V5oJbLBZcdNFFOHHiBPbv369tPxesoUVQFwYoLCzEpEmTtBVM2T59iI6ORr9+/dCrVy9ER0dDFEVYrVZ07twZoijiyiuvxPTp0xEbGwtBEOBwOOByuTBs2DD85S9/QUxMjF9jVWsT6m9Hnw99PD/55JOYOHEiBHUteFNjVHl7Rl+Ce71eKi4upmnTplFkZKRfg9X5gqiuZXbTTTfR0aNHtdlTjbWq7Fjj8axPmIVwQlEUmjZtWthYakEdCxAVFUVPPPEElZeXm97tZrRuC0sYI4oinE4nnnrqKYwePVrrdmpMoxSz7KtXr8ZTTz2F48eP11sk4FzorbkefbdMY56jPUPq+IPf/e53+POf/4zo6GgIAdZ4MyM8ZzQAqZM+unfvjueffx6dOnVqdEspawkHgOXLl+ORRx5BeXl5o9cta0jU+u3tJYNeCILaM3D99dfj8ccfR0xMjPEQU8NFrUMvIlEdDWa1WjFgwAAsXboUffr08RsM0hCyLGufi5FlGV999RWuvPJKLFmyBEePHtW26yeAQGfh9ej/Z4NcSPdJn6Z4AGZHUOvLNpsN1157LZ555hmkpKRoadlePBzeUHYO9MLt1KkT+vXrh3379qGoqKie+M5HWVkZNm7ciN27d6OyshIpKSmIjo7WPAJ2vUAFBvufHasXc6DjW4vVq1dj//79xs0hg1no6667DnPmzEFWVpbmNYVLHIWCdj/4pCGYgKBaXkVRIIoitmzZgjvvvBOFhYWNGpwiqPVwWZY1i2GxWLR1vidPnoxLL70UycnJiIiIABnW8dZb5bKyMhQUFGDLli3o3bs3xo4d2+Qpo8GCiHDrrbfik08+OW+cBANmpSdMmIB//OMfSElJ0eJGXx1qD3BRNxFZlrFp0yb86U9/wr59+zRhM9e4qUiSBIfDgdTUVKSmpiIpKQkOhwNWqxUejweVlZUoLS3FmTNnUFpaiqqqKhARXnnlFcycOdOv8GlNQi1qQfVumJgtFguuueYavPTSS+jVqxegxm27xNgczjk3sjoHe/v27XTNNddo61k3trsrUGDdL+w6bFQWC8btkiTRG2+8QdQK0y0bojW6tFjcREVF0YwZMygvL09b1snYHdieMH+rQRAgIgwcOBB///vfMXLkSM1qXCh6F9tY/9N7ASw0thXdzDAL7XA48Mc//hEvvvgiunTp4mfB2ytc1E1EUJdBstls6NGjBxYvXoy7774b8fHxfnW4psIKBVZ/ZwI27mew41oT4/N5PJ6giYnFKwuCIKBjx47461//iieeeEKLfxaC9RxtgabnPo6GIAhITk7Gyy+/jCeffFJb6ywUuN3uZnsILU1dXR1g6DVoSUhtRLRYLLj44osxZ84cPPLII+1qYElj4KJuJqIoIjY2Fvfddx8WLVqErl27hkzY4caFeCiNhQlWURSMGTMG77zzDn7zm99oA4KM1Zb2TPBSwaToMw5zAy0WC6KiojBy5Eh8/fXXuOGGG5CYmAhBrfcFo6+U1bVb8ppNRX9v9veF9gI0BIs3i8WCDh064MEHH8SSJUswcOBA2Gw2WCwWbQhva8ZFOMFF3YIIgoCMjAy8+eab+Otf/4pu3br5CbolM3t7gMWbJEm45JJLMHfuXMyePVsrMDmB4aJuYYgIKSkpmDFjBlatWoUpU6Zo37QOpntqVqKjo/Hoo49i0aJFmDhxohaXTNS8oKwPz2UtBLMozB2MiorCoEGD8N577+Gll15Cp06dYLfbW0zcbre7Ra7TErCqQHNav5lQmWcTGxuLSy65BMuXL8eLL76I7t27aws16t/7Qu9nZsIjV5iYqKgo/P73v8e///1v3HPPPejSpYvW7WImBEG44P5zJkxJnYxx0UUX4c9//jOWLVuGq6++GqIocovcBLioQ4Aoiujbty+ee+45LFy4EDfeeCMiIyM162QWa+Pz+YybGgWpg0Xi4uLw0EMPYdGiRZg5cybS09MhSRIXdBPhog4ygtpya7Va4XQ6MXLkSCxZsgSffvopRo0ahZiYGE3gbGBFY9B38YQDTJg4h0usL8REdXKL3W5HcnIybr75ZmzcuBEvvvgihgwZoo1/Z/3SZvNsgknjchCnRWBCFAQBV199NVasWIEFCxZgwoQJ6NSpk5aJzwUThc1m8xNSayOoa6gJ52jlZ9tFdS227t2747bbbsMnn3yC999/Hz169Aib92nL8FlaIYTUoZ+COicaqqUtKytDTk4O/vd//xerVq3CiRMntD5oY/KwhqRly5Zh8uTJQBjMRiJ1PPpLL72E5557rsEpqcxC9+nTB9OmTcPVV1+NHj16ICoqym9oJxd28+CiDhNkWYYgCCguLsayZcvw/vvv49ixY/B4PPD5fLBarSB1mOTFF1+MtWvXasv0hIMIfD4fiouLcdVVVyE/Px8+nw+KOgfdarXCZrNh4MCBePDBBzF+/HjtgwScloeLOkxg1k4URXi9XlRVVWHz5s3473//i5ycHFRWVsLhcGDw4MF49NFHkZmZqYnifC57KFAUBbIs44cffsD777+PvLw8KIqChIQEXHzxxbj22mu1urKiKE36XhmnaXBRhwnMNWd/Q7XAtbW1KC4uRm1tLex2Ozp06KD11wph1HLOCiUAKC0txdmzZ0FEcDqdSEhI0J6XdU+F07ObDS5qDsdktL7fxuFwWhQuag7HZHBRczgmg4uawzEZXNQcjsngouZwTAYXNYdjMrioORyTwUXN4ZgMLmoOx2RwUXM4JoOLmsMxGVzUHI7J4KLmcEwGFzWHYzK4qDkck8FFzeGYjHa58on+ldnSOvrfhr4IwY7RY/yfw2lt2qWojZ9bZSLWfxqW/ZK6dhhbmpf9zVb/DIdF/zgcPe1G1EycRAS3242ioiKcPn0aRUVFKCkpQXV1Nerq6uD1erVvOkVGRiI+Ph5OpxPx8fFITk5GcnKy3zrV3FJzwg1Ti5pZU/aK1dXV2LBhA77++mvs2bMHp06dwtmzZ+FyuSDLst8H3phgbTYb7HY74uLikJKSgoyMDAwdOhTXXXcdevXqBYvFollro3Vn99Zbe+NvMHG5XDh16hS8Xq9f4cPiQxRFpKenw2aznbOA8vl8kCQJPp8PJ0+ehNfr1a7BYO+YnJyM+Pj4Bq8VbBRFwenTp1FXV+f3jPq/Y2JikJycrHlfpoNMiqIoJMsyud1ucrvdtH79errssssoMjKSRFEkSZIIQJODJElktVopOTmZXn31VSovLyev10uKomj3lmWZvF4v1dbWUm1tLZ04cYKOHTtGLpeLvF4veb1e8vl8fs8bDLZs2UKpqakUHR1NdrvdL0RGRlJ0dDStWrWKZFk+5/MoikKKotCuXbuoZ8+e5HA46l0vKiqKYmJi6JFHHiGPx2O8REhQFIVKS0tp1KhR5HA4KDIyUgv6Zx0/fjwdPXr0nO/clgmuqWhFSK0jnz59Gs888wxuvPFG/Pjjj5qVYVa8qbD6eEVFBQ4fPgxR/aid0SoUFRXhn//8J6644gr0798fgwYNwtixY/Hhhx+iuro6JB+2c7vdqKysRG1tLVwulxbcbjdcLhdqa2tRWloKNKLBj4jg8XhQV1eHuro67RossG01NTXGU0MK+4yRx+Pxez7js1KARk+zYDpRMzeaiFBQUIBHHnkE8+bNQ1lZGXw+n993nowuZGNgBYIkSejTp4/2UTjoBF9cXIxnn30Wf/7zn7F3716Ul5ejtLQUmzdvxv/8z/9g7ty58Hq92vWMz8G2NTY0hKIo9RoFYbg+c7vPl8FZVYIR6Jo+n6/e9lDD3oW9d6A4Yu9t3G4WTCdqloinT5/Ggw8+iDVr1qC2ttZvf3NgmSEqKgr9+/evVy+TZRlff/01Pv30U3g8nnofiysrK8Prr7+Obdu2aZnLCKlehvFZ9Zk0UGY1wq4d6B6Mxoq6LXE+L6iheDcLphO1IAiorq7G3Llz8f3330NRP9LWkgiCAKfTiaysLL9tivo9qXXr1mkFiV54TKiyLGPZsmWa4PXHkGrpc3NzceDAAeTk5GjhwIEDOHDgAPLy8rRGvfMJm9P+aNnc3koYRbFt2zZ88sknqK2t1USkP0ZvnQT1o/CC7qPvxv1sH/uVJAk9evRAhw4dtBKflf6yLOPEiRP1Wpz1yLKsfdESBkvq9XrxwQcfYPLkyfjtb39bL0ycOBG33347KisrtefhcPSYKkeQ2gf96quv4vTp0w26qWybIAiwWq1QFAXx8fEYNGgQxo0bh5tvvhlTp07FhAkTMGLECGRlZSEmJkYTvyAIuOKKK2C1WrVr6oUZGRnZoKChWuyoqCjtenqYpT506BAOHz6M/Px8v3D48GEcPHhQeyfju3E4phE1qfXQdevWYfPmzefM7KIowmKxICkpCePGjcPy5cuxd+9ebN68GWvWrMFHH32EpUuXYvXq1diwYQN2796N3bt34/PPP8cf/vAHDB8+HFdddVU9QQKAzWbDpZdeioiIiID7iQhWqxVXXHEFLBZLg4VOoHohK4gEEzfycJqPKUTNMrnL5cJ7770Ht9sdUBRMEKIookePHnj11VexcOFCTJ48GWlpaZrlZS62xWKBxWJBVFQUOnfujOuuuw5vvvkmvvjiCwwaNKieaNl5EyZMwODBg7X76YMoihg5ciRuvPFG7Xzjddi2QNthaOHnNA9WqBpDW8YUomYNULm5udixYwcQwC1lwhdFERkZGVi8eDFuvvlmxMfH+9WXA9WpoQpWEARIkoSEhIR6H03XH9+/f3/Mnj0bffv2hdVq1UadRUREYOLEiXjrrbe0+vi5xNsQsiwHLLQ4TceY1heSHuGGKUQNNXG2b9+O6upqzU017pckCQ6HA08//TQGDx6sCdN47LloTOKLoojLLrsM33//PRYvXow//OEP+OMf/4jly5fj3XffRbdu3Ro8lxNajBY6UGhrmELUiqKgrq4O+/btg9vtNu7WEEURI0aMwNixY88rzHNxvsQW1DHjkZGRuOmmmzBnzhzMmTMH119/PZxOp3aucXAI6erSDT2X/tiGQlO40PPOx/mu25hnZvvO5Zk05jqB0F+7srIShw8fxrZt27BhwwZ89913+Omnn1BYWAiXy6Wlkf4eTblXqDHFhA5ZllFcXIzp06fjP//5j3E3oArabrdj1qxZePTRR7VZVi0F6bq0jh07hg0bNqCurk5z29kxRITo6GhMmDABTqcTsm7SiSiKqKqqwhNPPIGFCxdqojcSGRmJZ599FtHR0RB100Dj4+Nx/fXXw+FwgIiQnZ2N66677pxtDO+++y7uvfde7f9AsCyyfft2TJkyBSdOnPDbDp0Hc/fdd2PevHmw2Wzw+XzYs2cPjh8/Xq+wIrUA69ixI4YNG4aIiAjtWgxFUVBRUYHs7OwGRWu1WjFkyBB06NABAFBeXo7Ro0cjJycn4DsDwJVXXomFCxeipqYGq1evxubNm3Hy5EnU1tZqI/3sdjtiY2PRs2dPTJ06FaNHj0ZkZGS9aldYYhwM3hZRFIVycnJo0KBBhACTMKBOxEhNTaXNmzf7Tb5oSdjEiLfeeovsdjtZrVaSJIksFosWJEkiURRp48aNpCgKeb1eys3NpU8//ZRmzJhBWVlZ5HA4yGKxkCiK9d5DEASyWCwkCAIJgqBNThFFkSIjI+nAgQMkyzIpikIbNmzQJrAYr8Ou9d5772kTNhqC7d+6dStlZGSQIAgBryWKIt17773kcrnI5/NRcXEx/eY3vyGr1UqiKPoFFhc9e/ako0ePGm9JREQ+n49WrVqlHa8/X5IkkiSJoqKiaMGCBeTz+UhRFCopKaEBAwY0+M4AqHfv3vTb3/6WoqKiKCIigiwWi997sGCxWMhqtZLdbqepU6dSXl5evck74Ygp3G8AqKmpQUlJiXGzBhHB6XSiR48exl1+rpU+nA9mbfTHy7KsDQ/VTx5hgVkPn88HRVFQVFSEiRMnYurUqXj//feRn5/v5/LpYRZCVkeTsf/112RWu7Hk5+djy5Yt5wybN2/G1q1bsW/fPs2SnQ/mtbjdbi0e9IG13vt8PuOpGqIoavczusD6OGVegjG+GuKXX37Bv//9b9TV1Wlpxa4BNV3Z8/t8PrjdbqxcuRL33HMP9u7dq6V7uGIKUTM3raqqyrhLg4jQvXt3OJ3Oetv1GYW5vCzhzhXY8exX0I3wYoluzMws47Ffr9eLwsJCv0yrfwY9xuvoj2OBZc7GCvuDDz7Abbfdhttuuw233HJLwHDrrbfi9ttvx6xZs7RZXeeCxYH+GYzPbtx2LozvaDw+0LZzwY4PdF12HeM+RVGwadMmPPbYY1p6hSumEDUAVFZWnrORTBAEZGVl1cvsLBErKyuxdu1aLF26FEuXLsXixYvPG5YuXYply5ahvLy8SZmKYbS0oYaIcObMGRQWFuLo0aMoKCgIGI4fP478/HxtwYULede2DhP2tm3b8OGHHzbaY2kVjP54W0SWZVq0aBFZrVZCgDoU1LrSyy+/rNU39ed6vV7asmULZWVl+dXF9PWrQIHV7VasWKHV6bxeL73++uvaIgyB6p+iKNK3335LsixTQUEBRURE1HvWhs41Bv2xFouFcnJytDrw+erU7Dz2Lsb30+9j+43n668jqnVqj8dDsixTUVERXXvttfWO1d+3a9euVFBQ4JeeDEVRaPny5drxxmsAILvdrtWpZVluVJ1af62G3rWh4y0WC11xxRV06NAh4+OGDaax1DU1Nee0IESEuLi4esfo62Osnqs/53yB1Z2NHsD5YMfLsuw3plxQJ5hIkmQ8BVBd20ADZATV9Wf1beN7NgR7D6O7qQ8NVQfaKqI6TJiNFszIyEC3bt3gdDq1uDdWHfR/79mzBwcOHNDiJ9wwjai9Xq+WoQPBurSYAMIBIoLNZkNKSgocDocWLBaL8VA/rFYr7HY7HA6H1h8eERGBpKQkxMXFAU0QdXtEVIcJz5kzBzt37sT+/fvx888/48cff8Sdd94ZcN05hqKOidi0aZPf9nDCFKImXQPRudCvNtLasGdOTU3FTz/9hKNHj+Lo0aM4ePAgpk+fDiFAay7bJkkSduzYoZ1TUFCAwsJCHDhwAJ06ddKu3Rj0lr4hGnNMW2LkyJH48ssvcf/996N79+5wOByQJAmZmZl4/fXXcffdd9ez1npkWcbWrVu19DGmU2tjGlHrS9dACIJQb4XJQDSUkC2NoJub7XQ6kZiYqIWIiIgGu6bYNuOyxUlJSYiNjYUkSZqLfj6YUBty5/WBXbMx1w13YmNjtTH/LA1YvEVFReHxxx9HamoqcA7BHjp0SJuvH260/RRSiYyMNG7yg4hQVlamZdKGCMdECibJyclIS0tD586dkZGRETB07twZnTp1QnJyctsYUdUMBNV7uvLKK427NBR1ccOKigrjrrDAFKIWRRGxsbF+ixYE4ujRo6AAjRuCuliC0+mE0+lEXFwc4uLi4HQ6taGYoSZUwnnqqaeQm5uLn3/+WVsuyRj279+P3NxcfPrpp0hOTgZC+HyhRFHHGgiCgMGDBwMB3pNVbbxeL0pKSgLmp9Ym9Lk1SDidTthsNuNmPw4dOlSvL5slSFZWFl566SW8/fbbWLBgAd5++23Mnz8fv//978/bcNWWiYiIgMPhQGRkpF9jnTHY7XZt0X+YwKMRArRZsHq0JEno2LGjVi0xQmqPgHFsf7hgClETEWJjYxETE2Pc5cexY8dQXFzst40liNPpxLhx4zB16lQtTJ48GZdffnmrWOpwggmADe1sD0RHR8NqtbbJ9zVNbo2NjUVKSopxswYRobq6Gnv27NH+Z+hLbeZ+kbrsEMff5TxXt6HZaIygG3NMqDGNqOPj45Gent6gKySoSwdnZ2ejrq4OMNShjG6U3jqHY8KFEhYv7NfM8cFca7fbHbAA08eFzWYLy0E5phC1IAiIjY1Ft27dAq7QCTWxvF4vvvnmGxw5ckSbHRRuCcIJDyorKzUPRQ8zAhaLBTExMWFZNQu/J7oAFEVBREQEhgwZ0uDyvCyBcnNz8cEHH2gLB3BRcwLB2l6M+YMNI3Y4HIiPjwcCtJC3NqYQNSstR4wYgZSUlIAlLNSRQF6vF4sWLcK8efNw9uxZUIApl8wFY+55axDovuzZ9Pv0z2zMgK1FY55D78ob51sz2Lsaq0bNRX9v433Z3zk5OQHfgz1LfHw8HA6HcXdYYApRs0RKT0/HhAkTtMzQUEaorKzEq6++ikcffRS7du2qJ2qo12wtYYvqVzQbuq8sy6ioqICiflKIvWtDx4ca9ix6URph8ez1ev3maBvfgV0jkMAuFOPz6f8n9YummzZtCpgG7JiuXbsGXIIpHKgf220QlrklScJDDz2EtLQ0TRhGSLXCFRUVWLFiBcaOHYuJEyfijTfewOrVq7FmzRqsXr0aixcvxiuvvIJ58+YFbDAJFoLaABNICCzjud1ufPrpp6ioqIDb7YbP54PP5wuruc6k9h6wsQNGcbBtZWVlWLduHaqqqrRCVJZluFwunDhxAj/99BNIXb+tpThz5gzy8/NRW1sLj8ejrRgjyzJqamrwxhtvoLCwEAjw3EzoAwYM0FzxcIlzRsvFVCvCBg1YLBZkZmbi/vvv96tbB0oYRVHg8/lQUVGB//znP3jyyScxbdo03HDDDbjpppvwu9/9DrNmzcKGDRvOueROSyNJEhITEwN2p7HMQ0T4xz/+gZkzZ2Lx4sVYsWIFPvroIyxcuBBFRUXa+7UWzJrZbDZt7IBgsNjsGV0uFxYsWIAXXngBy5Ytw8qVK7Fo0SI888wzuOGGGzBv3jwIqtfUUmzZsgWTJk3Cww8/jLfeegsrVqzA6tWrsWjRIjz88MNYsGCB5rUZC3RRXb992LBhmoVvyQKnRTBOsG7reL1eOnToEI0bN85vQbnzBTZJ3rj9XIEd/9FHH2mLLzR2kYR169YZH51IXRhgxYoVlJiYGPBc/TUsFgvFxMRoISoqitatW0eKopAsy+ddJEEQBHr//feNjxAQRVFo48aNlJqaWu867Fr6RRJYXPzlL3/xWyjReB4712azUWxsLMXHx/stvMiu29C5F7JIAluoURRF7b4JCQkUHR193mcVRZH69OlDO3fuDNsFCMOsiGk+oigiLS0NTzzxBDIyMrTS9Hww6xIO9OzZE8nJyQ0ulKCnuroaNTU1qK6u1hbSC5f3kCQJw4cPh91uB9Q4DgSpjWU1NTUoLy+Hy+XSLKQoii1qpaFLayKCx+NBVVUVysvLUVtbq7WhNPSsgiDg4osvDusPMphS1Ha7HSNGjMBbb72FQYMGaXXUxgr8XLBr6F2vlnYPu3XrhjFjxmjTSdk99LDqA3Nj9b/GY1sD9gwjRoxAr169Ghw/wGCurv49WGDn6eO7qbA2F0mStOsy2D31wXguu3dCQgKmTJmCqKgov2PCCdOJmmGxWHDNNdfg7bffxvjx4zVr0ZIIgoDk5GR06tTJuKtZREZG4qGHHtIWSgwXoV4ITqcTzz//vNan21RIXRSCBWZJm4qgtrkEWq7ofJDaUGexWHDPPfdgzJgxxkPCCtOJWu8+iaKIQYMGYeHChZg1axYSEhKanKBGWCaz2Wy47rrr8OWXX+Kyyy4zHnbBMIuQlZWF5cuXo3v37hdsncKFsWPH4vnnn0dcXFyDnkdDsGMnTZqEwYMHn3cxDARoGGXbrr76asyaNUubTqu31ueCWfnp06fjqaeegt1ub1TVqLWQZs2aNcu4sS3DEpSJw2KxwGaz4bLLLsONN96ItLQ0rX+RdWMwS8gyEAtQE1QURcTExCAjIwMXXXQRfvOb3+D555/HQw89hPT0dEjqqhnMjTt9+jTy8vIQExODpKQkv1VNmGW/7bbbtE/FGGH3TElJweWXXw4iQk1NDerq6rS6JntGdmxkZCRSU1Nx++23o1OnTlAUBeXl5diyZQtiYmL8niEhIQGJiYno0KEDJk6cqH3gIJAYoHNPy8vLsXPnTkRERPhdLzExEUlJSUhJScGvfvUrXH755VrhKap14n79+qFHjx7ae7jdbi3eBV0dlqVZQkIC+vfvj+uvvx6vvvoq7rnnHpw4cQKnTp1CfHy8Fq8dO3bEtddeiz59+gDqBw1++OEHKIqivWdSUhKSk5MxZcoUPPTQQ7jiiitgtVq1rjP9wpHGdHc6nRg0aBAefvhhPPLII9oacvo8Em6Y4lta54PVoVjmPHv2LI4ePYrCwkItFBcX4+zZs9pAfja2NykpCZ07d0bXrl2RmZmJzp07Izk52W9uMftlmbSqqgoFBQVwuVxaxmb7oc5h7tGjR6OqBKzvNDc3F7m5uTh8+DBOnjyJqqoqyLIMu92urYaZlZWF4cOHa6vA1NXV4dChQw2udiqKorZGFyvQAkG6VVPZF0SMKIoCSZLQoUMHpKam+r0zq6MSEYqLi7Fv3z4cOHAAeXl5OHPmDM6ePQufz4eYmBikpKSgR48e6N27N3r27InOnTtrhfCpU6dw/PhxzRWHWs1KT0+H0+mEoH5V4+jRozh79qz2DIz09HQkJSWB1L7+I0eOIDc3FwcPHkRhYSFOnz4Nj8cDURSRlJSErl27ol+/fhgwYAAyMzP9vl+OcxSCrU27EDV0mUtQG7VYBmBClGVZs7asFNbX31imF3SuPftffw/oxgcHSnR2jF7s54I13IiiCI/HAwS4Lnse9vzsb0VtcDLeh12PvQt7Z+NxDPY+UO99rizDCkT2jPpz9XHNnoGlgTFO9c/DjmN/GxEEAT6fT9vH7q2PJ33BQmoVinSNcyz9od6DpT3zONg7WywW7T3ClXYjag6nvVC/2ONwOG0aLmoOx2RwUXM4JoOLmsMxGVzUHI7J4KLmcEwGFzWHYzK4qDkck8FFzeGYDC5qDsdkcFFzOCaDi5rDMRlc1ByOyeCi5nBMBhc1h2MyuKg5HJPBRc3hmAwuag7HZHBRczgmg4uawzEZXNQcjsngouZwTAYXNYdjMrioORyTwUXN4ZgMLmoOx2T8P3dJqodTH7ENAAAAAElFTkSuQmCC;" vertex="1" parent="1">
          <mxGeometry x="687.29" y="409.5" width="85.42" height="91" as="geometry" />
        </mxCell>
        <mxCell id="bNeFM68Or8PcbVmSaTlK-32" value="" style="html=1;shadow=0;dashed=0;align=center;verticalAlign=middle;shape=mxgraph.arrows2.arrow;dy=0.74;dx=25.6;direction=south;notch=0;" vertex="1" parent="1">
          <mxGeometry x="703.75" y="340" width="42.5" height="60" as="geometry" />
        </mxCell>
        <mxCell id="bNeFM68Or8PcbVmSaTlK-36" value="" style="shape=note;whiteSpace=wrap;html=1;backgroundOutline=1;darkOpacity=0.05;" vertex="1" parent="1">
          <mxGeometry x="500" y="30" width="220" height="155" as="geometry" />
        </mxCell>
        <mxCell id="bNeFM68Or8PcbVmSaTlK-41" value="" style="shape=image;verticalLabelPosition=bottom;labelBackgroundColor=default;verticalAlign=top;aspect=fixed;imageAspect=0;image=data:image/png,iVBORw0KGgoAAAANSUhEUgAAARMAAAFjCAYAAAAei+95AAAAAXNSR0IArs4c6QAAAARnQU1BAACxjwv8YQUAAAAJcEhZcwAAEnQAABJ0Ad5mH3gAAGrRSURBVHhe7Z13nCRF+f/f1d2TZ/NezscdOUtUgoCAIhlEUAmigAEEARVFEDGgXwkqJhDFhIA/DIiKqAQl53DHHVzi8t3e5p2d3N31+2Nm9nZ7Uvfe7u3sXr1fr9Kjera6P/1UPV25RHd3t6QMgUCAUCjkjK5KMpkknU47oysihCASiWAYhvNSRUzTJB6PI2VZGSVR2opR2oaitBVTSZvmjFAoFIrhoJyJQqEYEZQzUSgUI4ImhKBcAJBSeg7k22ReQgFnWtVCAWd61cJw7lW4nzOtakFpKw5KW3EYzr0K93OmVS2MirZsNlvck5LHsiyy2awzuio+nw9d153RVclkMti27YyuiKZp+P1+Z3RVlLZilLZilLahVNIm5GB34yCdTpNMJp3RVQmFQgQCAWd0RaSUxONxTNN0XqqIYRhEIpEh3tYNSlsxSttQlLZiKmlTfSYKhWJEUM5EUZNIKbG7up3RihpGORNFTSKA5JNPkXzpZSjfElfUEMqZKGqXefPo+93vsbPZISMJitpEORNFbSIEwZnTSb/wAn13/wqhnEnNo5yJombRAgECs2bS972bSbzymvOyosZQzkRRu+gGorkFISWpP/0ROYw5GIrth3ImitpFgO43kFKSfPwJrM5O1XdSwyhnoqhddB3R2ASA1dZG7N77KZ4qpagVlDNR1CxC09BCwdx/SEnXz+4k2xtTQ8U1inImiprGbJkEQoCU+LJpso8+qpo6NYpa6OcRpa2YUdNm28Tv/wO9N3wdLAuhaQQ/+EGCN96A8Pmcv65IzWkrwXi3m+jp6SnrTPx+P8FgvprpgVQqRSaTcUZXJRKJeH4plmURj8ed0VVR2oqpOW22TfqPfyJ103fAskAItJ13Zsqvfokxdarz1xWpOW0lGO9205z7FQwOlNu3oEpgpPdJqBAKONOrFoZzr8L9nGlVC0pbcfCibeAeAN3dkEwWpVctuL1XyfuWSK9SKOBMr1oYzr0K93OmVS2MhjbVZ6KoabJ9/QP/llJiJxLIjPemgGL0Uc5EUbNIKfH19w0dvenvJ9mpVhPXIsqZKGoWadmku3qc0ehr3lHDwzWIciaKmkVD4kuniiaqpROpIe1+RW2gnImiZpG2jdlffOBTbEMbosjFKMYa5UwUtUs6jVy31hmL9LjfqWL7oJyJoiaRUpLu7Yd164r6R1pnTUGimjm1hnImippESIn8z7+hxAxNqelD5jwoagPlTBS1iZSk/vhnZywA/gU7qXpJDaKciaImSb7yOkbbJmc0MhBAhEKqZlKDKGeiqDmkacIj/0RalvMSejSKFlQdsLWISCQSZWuMzvn4bnHO/3eLpg3Pt3ld+YjSVpJa0CalxN6yhZ6LPoW9fNnQi0KgzZtH010/x5gxfei1KtSCtmqMZ7uR6+cq/xTj/bjCSihtxdSENinpeey/xD77GWQqNfSaEPgPPxz/Td9Ci0SGXqtCTWirwri2m2rmKGoOyybz67uR6bTzCggBO++CFgo5ryhqAOVMFLWDbRN76G+kn36maG4J5JxJ8Nj35ZyKouZQzkRRM1ib2+i/4w5kqTa5ENgzZhLce0/lTGoU5UwUtYGUxB75N9nly0vWSqSm0/ipS0q21RW1gXImipogtaWD/p/8OLc9Ywl88+ZSd+wxqlZSwyhnohhbpMTq7aPrmi9jd3Y6r+YQAn33PRD1Dc4rihpCORPF2CIlvffeh/nsMyXX4UDu/JzI+45G83vbkV6xfVHORDF2SElm7TpiP/0ZlBoKzqMtXEhEjeLUPMqZKMYGKTHXrqXjs5ci+npLdroKIRCBAC03fRsxjCMgFNsX5UwUY4JMpei88VuYS5aUdCQAUghCJ51EYC81HDweUM5Esd2xsiaxH/2U9BNPlHUkACIQIHj8cQiPB0UpxgblTBTbFZnJkP75XVi/+y2aLN3hCoCmET7uWKJHHqFqJeMEtWrYI0pbMa61WRY9v/wNmZ/+CJlIVqyVaDvtRNPdv0CbNGlIfM1qczCh7OagnDbR3d1d9ikCgQChYSyqSiaTpCv0zpdCCEEkEsEwDOelipimSTxevIN5NZS2YkZVm22z+YEHyVx7DVQ7nDsYxHfDDYSOP7aoVlKT2hxMKLs5qKRteK5JofCAlTVp/9XvSH/zxuqORAi0d72L4OGHFTkSRW2jnIliVJGWRd/9fyDxf99BxPqcl4ciBFa0jvC11yLC3r/QirFFORPFqJGJxYnd+XP6b7oJkU5X7CMBoKmR8E3fQps2RdVKxiHKmShGHikhmyV26y30/vB2ZDxe3ZFoGr73fwD/IQcrRzJOUc5EMbJIidXZyeYbv0Xi9/ci3WxDKATaAQfgu+RihMcOQUXtoJyJYuSQksy69XR85lIy9/wOmck4f1GMEMg99yL49Rsw6uucVxXjCOVMFCOCNE3M9evpvOpq0i++mFsBXK1pIwREIkSuuAx9ymTVvBnnKGei2GakadL70N9p+9BZmC+9VN2JFGhtJfSNr6Ptux9imBOoFLWDsqBim5DZLH1/e5jYl7+M1bal5GSmUgifD/3jF2IceSSaPobZ0LaRmQxWZxfxh/9Fevkq5y8ULhlDKyrGNVIi27aQ/L+biX/pi7kzbtw4EiEgHCF8xRVEPnT69q+RSIk0LbLr1pP8y19Jf/8H9N3wDcwHH8S303wCC+Y5/0Lhku1sScVEQNo2mfUbSVxxBdk//rHsvq1OhBCgaQTOv4D6T16I8PudPxl5pMwF20aaJtnX3yB53XWkPvJRst/+NulFi4l++hL8552Hf+cFqt9mGxA9PT1lPyd+v5/gMDalSaVSZNz05DuIRCLoHpebW5ZFPB53RldFaSvGjTZp22Qff4LUD36AXLvOXW2kgM9H9OwP0/jFL2KHgttFW3bTZsy3ltL36htkHnsMlrwJQiAWLkQ/5hiMM88k0NLk/LMBJordSjHS2kQ2my2bGyzLIlttLUUJfD6f54cEyGQyZVcklkPTNPzD+MIpbcVU1CYlMpOh45s3Yf7tIYjHS59vUwZhGAQ/fgHBSy5GBIOjp01KpC3JdnWT+MlPsZ99FtHdhUynwLKxdB/h88+j7oLz8E2elGtmVaiNjHu7VWCktamzhj2yQ2qzbaz2djp+8GPSf7gPvOgQAtvnx3/KSYSvuBzyZwSPqLZCM6anh/SyFST/9g+0R/+DlknnHF5++0d9551pvPoqwu95N7gofOPebhUYDW2qz0RRGdsm9th/2XLhJ0nff683RwLIQBD9058hdNWVA45kxMj3h9ibNhP79ndJfPYyUldcif73hxCp5IAjsVomEb7+eibd8TPChx/mypEovKOciaI82SzJp56h+0tfIrtkieuO1gIyFCL4yQuJfuycEd8QWmazmKvXkLj5VnrPOhv+/Cest99GS2/9sku/H3vvfWn4zS+Jnn4qxlS1gHA0Uc5EUYyU2L29dH/3/9jymc9CV6e3jlYhEJMn4fv8lfjPOxfhG6H1NlKSjSdIP/wIqW99m9jFn8K89170eH+uFlJ4Rk0jO3M2/muvpe7276NNm5Z7JuVIRhXlTBRDkLaN1dPL5qu+QOwXv0T0x7w7koYG5Je+QvjM00Zm+FdKZCpFYslb9F55Fenrryf74F/R27cMnbYvBPgDWO85nKZ7fk3o5BPR6+tUbWQ7oZyJYitSknj5VTaffwHmo496cyLkO1vnzSd0+w+pP+ZIGIEJaVYqTeaNRXRe/zU6P3wW1hNP5HZrcz6bEDB9Ov4vfIGG73wLraFBOZHtzLZbWzEhkJZF+tHHaPvIx7AWLSourNUQAnPBLkTv+Bn6Hrs7r3rHtrFjMbZcdAltZ5xJ4oE/IvtLz29A17GPPIrwvfcSPONUtUvbGKGciQJpWvT/8tf0fOkaDDPjzZEIAX4/4gMn0PTrX2C0Ng97iryUMjcprqub3p/+jPXHvZ/sU08iTbP0OcRCIJqb0S+7jIZbvotRHwVNU30jY8TwrK6YGEhJpjdG8pvfRP7859Df79mRiHAYrv4S0euuRYSCw29ayNzubB2//wPtH/0Yvbf9ADZtKv08Ijctn/e8B/8ddxL+2EfUQV01gHImOyhSSjJbOsh87WuYD/0NMt6OSkAIxPQZNP7whzSfc+a2ORLAfOcdOm+4kdSNN2C+9RaYFWaCRiJw5llEbvw6gQXz1O5sNYJyJjsiUmKvWUvqyiux/vtfz/NH0DSCRxzO5LvuJHLENhxJISVYFn333EvbJy8mft99ud3ZStVGyDkwOWUqwRtvpO6qK9CaGod/b8WIo5zJjoaUZN5cQu9VX4QlSxDlCm4ZhK4TOuEEmm+9lcCuuwy7ViBtm+yGjXRd/zV6r78e6513EKX6RQr4/fgPPJDGO36G/71HIAJ+1TdSY6iFfh4Z19qkxFqxkt5PfQa2tJWvAZTD50M/93xaL/kkekvzQLRnbVIi166j94tfwl66tHTn6mCEwPjAB2m5/ivQ1FRaWxXGtd2qUCva1BYEHhm32qQk/dprdF52OdbGjZ4difQHMC66mOiF54M+dKWtF20ynabznvtJ3fQtpGVVfg4hENEo5kfPo/nij4Om4Q8EirW5YNzazQW1ok0rHHpcKgADhyl7CRSG+TyEAs60qoUCzvSqheHcq3A/Z1rVwphrAzIvv0LX5Z8fliMRDfUErrmG4LkfQWoCOeiZBn5T4vmdwUpn6Py/W0jc8j1XjoRgEP/VV9N00QXYInff3KXitKsFhvkeh3O/As70qoXh3KtwP2da1cJoaFN9JhMdKUmvWkXHNV/GXL++cgEuRShI8KqrCJxyInowMLwOTymxurvpve46kr/+FSKRqPwcQmC1TiJ8y80ETj4RdH1IRlbUJsqZTGSkJL5qNT1XfxFr1arKBbgEoq6O4NVX4/vAB7ZpHkeqo4u1l36e+J//Un3kSAiYNo3gd7+Lfughw3NeijFBOZMJjEyn6bziStKvvebZkUh/AN/nr8R36ilIY3iOREpJNtbPxi9ei/7sU9X3QhG5c3Si37+N0L57qdrIOEM5k4mKZdH+ne8hl7zp2ZHg9xP42Efwn3wiYhuaGLK7h/YvXoPx5GOuRmzkzJn4f/JTtIULRmSRoGL7oiw2EZGSzrt/Tere3yOsKrUBJ0Jgn3IawU9dgjbMGgnk5pF03v5jrH8/Ur1GQm4inP+SSwjuuZtq2oxTlDOZaEhJ5uVXSNx2G6S9T5HXjnwv9Z+5BMrMJXCFbdP9y1+Tuv8+pFmljwSQ4TDGF75A6IT3qxrJOEZZboIhLYvEL+9Get2YWAjslkmErvo8WmOD86prpG2TfvkVErf/0N0zaBr6SScTPu0U5UjGOcp6EwnTIvmXv5J94onqfRQOtPp6mr91I/rMGdvUzLC6uum4/HLs3t7qfTVCICZPJnLRhdtWE1LUBMqZTCAyixdjfu971QuxEyHwn/MRjG0dirUsYnf/Cmtzm/NKaUIhfF//OqKlZdvuq6gJlDOZKNg22Uf+BcOYVi0aGph06WcQPp/zkicym9vou+f37mpFQqAfcwyB/fZRjmSCoJzJBMHu68N+5RXvtZJgkOabv7fNWx1aiSQbP3UpWl+v81JJhGFgnH76yGw4ragJRCKRKJv7nPPx3eKc/+8WbZgdcF5XPjLRtElJ/5PPkPzMp6vPMB2MEIj3Hk3rrd9DC4eGr00IEk8+RexT7u9v7LM3jb/7HcLj8POEspuD8a5NHQ/qkZrUJiXrz70A++mnvNVMdB39tu8TOfzdIMSwtcW6uojfchvZ++5z18QBjM9dzrTLL/U8TX9C2c3BeNc2PNekqCns7h7s55715kiEQNt7L8Lv2cZOV4C+GJmnnnZ/fyGoO++j235fRU2hnMl4R0oyb7/lecc0NI3AGWd4rhkUISXppW/DunXunIkQ2DNngWEoZzLBUM5kvCMlyTcWe24za7Nm4TvmaGe0d2wb689/REh3zRsA3/SpJavJivGNciYTAC2dckZVRdtnH+QIjKRYyRSZZ59zRldkm2tDippEOZMdEcNA33uvYR+WNZjUsuWQ8tZpaLlYr6MYf2x7blKMO0QwiL5w4Yj0Wch33kF4a2EhNqz33CxT1D7KmUwALOHRjH4/+vTpzthhYXp1DFIi2zugx93kNsX4wWMuVNQaEggs2MkZXR4hkD4foqnReWVYCMt0N4ozmGyW2N8fdj0nRTE+UM5knCOEgGnTPTVZ7DlznVHbFSkl1j8fRtoenZCiplHOZLwjBJG990Sri7oebg001Dmjtgm39x3C22+TWbzYGasYxyhnMhEQgsBxxyOHU6i3EcsXGDjPxgsym6X/4Udcr+VR1D7KmUwQAqefga25m7+RSXifl1IO/3A3U5KSxIMPkti0xXlFMU5Rq4Y9UqvaZG8fXZ+8CLta00EI7ClTmfrYv4smjw1HW+qtZcTOPHN4NQxNI3DM0US/9z20gLsJdBPNboMZ79pEd3d32acIBAKEQt73uUgmk6Q9bmYshCASiWAYhvNSRUzTJB6Pe36ZE06bbZP6znfJ/L8Hqo6uaK2tTPn73/BNmTwkfjjaZDpN/7HHIftizkuuED4f/p//nMA+e7mq4Uw4uw1ivGsbnmtS1B6ahnbYYa42ZZbpNOb6Dc7oYSF8PkLvf78z2jXSNLFuvx3Z1+e8pBhnVM95inGDccABZHbdwxldhEynya5Z7YweFkLT8L3vWFe1ipJIifnGG2T+9OfhNZUUNYNyJhMILRSk/sYbsCLRyoU7k8FesmRkJo0JQWDPPWDO3Mr3rEQ2S/rHPyH2hMfNnRQ1hXImEwkh8M2ZRfjkk6ou4ks9++zIOBNAb2wgeNBBw3cmAKaJvOe32N09ziuKcULlHKcYdwhdI3zKSRAOOy8NIfv2MuKLljijh4dhEDjsPcMaiRjCa68R+/0fXJ0CqKg9lDOZaAiBscee+E89vWJnrLRt4r/73Yg0K4QQRN59KGbTNp5/IyXiN3eTfuhvI1ZrUmw/yuc2xfjF0Jl83Zfx77lH+cJt26T/+iDpLR3b7lCEwGhtIXzVFyo6sKpICdksmbt+kRtt2tbnUmxXtsHyilpG+P00X38dWnOz89IA0rKI3XMPcoRGUSaffiK+Qw51RntDSti0kdRPfjasA8UUY4dyJhMY37774nvvUeVrJ1IS//s/sHpHZo6H8PuJnHHath+sZdvY//kP/b/6jaqdjCOUM5nACF1n8je+ju/d7y7d/JASsWolvb/93cj0UQhB+Ljj0HfbrbwDc4tlYv/mt6RfflU5lHFCiRymmDAIgQgFabr+OrTZc0oXcClJ3HkH8Q2bnFeGhREJ03jLrdjBUOn7uUVKSCawH/7HiDXDFKOLVlhcVCowaBGRl0C+h99LKOBMq1oo4EyvWhjOvQr3c6ZVLYypNiCwcAF1l19WdrhYJlOk7/4lMpMpSqtaGEhj0P1C82bTdPnnYBsPQse2yf7zEey2NkT+PTCM9yjHo908hOHeazj3q6gtm82WrUNalkU2m3VGV8Xn86EP4ziDTCZTdkViOTRNwz+MNvqOpk1msyT/359I3vw9RImOTbuhgZaf/JjQQQd6rlEUaZMSuz9O/7VfxXriCaRH3U587z6USXf/EnS9pDY3jFe7uaFWtKmzhj0yrrWlUiS/dzPZP/+luI9ECMRuuzPjgfvRQu6bKJW09b++BPvSz0B/LNdsGS66Tutf/kx4rz3La6vCuLZbFWpFm+oz2ZEIBvF/+tNk9t6v2FlIiXxrKT0/vwt7hPooonvvhu8rX0Y0buPm1bZN9vnnnbGKGkM5kx0MvaWZlh/egrbrrsXbLUpJ4v4/kF2xYkj7eNgIQfC492Gdfmbp0SS3SEl66VvYw2gCKLYf22BhxbhECIhG0a66Gn2n+UOvSYm9aRM9N9+KjA1vsyMnQtNo/Ph5cOyxucPKh4mWSiGcTTNFTaGcyQ6I0DTC++9D5Mc/xm5qHtrkkZL044/T/Z3vbls/RwEhkJEwkWu+hLX/AcXNK8WEQTmTHRVNg8mTML7yFYRzyr1lkfz3f0i+sXhEHIoQAr2pkegXrkS0tjgvKyYIypnswAhNI3LUEUR+8uOiOSh2Zyed112PtOwRcSgAvp3mE/zyV7Bc7qKvGF8oZ7KDIwwDbeECgl/9KnZd/dZmiG1jL3qD9utvwE6N0NEYmoZxyEH43vNu1dyZgChnosgV8mOOJvC1r5OJDHIoUpL+4wPEn/jfiNVOCAbhtDO8j+40NGxTB65i9PFoUcVERQv4af7gcdRdey12JDoQL9Np4nfcgTlC2ykKTSN61OHYsz3sGatp+Pbdt+icH0VtoZyJYiuaRuupJ+K/8uoh+6Bk3niDLTd8A5lOj0wNRQjqLjzftTMxDR/BQw52RitqDOVMFEPQQ0GmX/BRmu68E9GQb/LYNubfH6LnN7/b5nU2Bazd9nDX1BGChg+fhX/GdOcVRY2hFvp5ZEfRJk2T/r/+jf4bvoZMJEEI9D33pPWXd6E3NQ35u+FoE5kMXcd/ANne7rw0lKZmmh98kMC0yQghRkSbF4ajbSzt5oWR1iZ6enrKOhO/308wGHRGVyWVSpEpsTK1GpFIxPNLsSyLeDzujK6K0lZMkTbbxl65it7PXoa2pS0X9/4PUP/NryMGdYYOR5uZTLLuxFMxVq1wXtqKrsPHL6ThM58CPVeLGTFtLhmOtjG3m0tGWpvm3K/AuXdB0Z4FLgIjvU9ChVDAmV61MJx7Fe7nTKtaGLfahIB58wh+5SsweVIu3X//i8w/Hsa27W3WJsORgb8vQgjsSJTwe49Aiq3PlbtUnF61gFObi7D1UYrTqxQKONOrFoZzr8L9nGlVC6OhzUWjVbEjI3SNwGHvJvrzn6PNmom0bdL33ofd3jEkU3pFSoker7D+R9MwLr4YY/fdXXfUKsYW5UwUVRG6hjZrJsZN30HutABWrMD835NsUxGXEq2/tDMRho522ulEzjkLtG26i2I7opyJwh1CENhtV6LfvxWxyy4kfnoHsqt72EPFsr0durud0blayNRpBM87t+oRp7WClCDz/78jMz6spagJhCbQp08j+N3v4tt1Z1I/+AEMY/QBIPHaGwhn6RMCe8ZMIrf/AH3m9Jpq3kgJtpSkMiabe5IsXt/Lsys6efztDu5+bDk/eWI1dz6+kn++tpEn32pnyaY4m3pSpEwb29FPMVER3d3dZVUGAgFCoZAzuirJZJJ0Ou2MrogQgkgkguFxyrRpmsTjcc/GGu/atsY5C5wkGAyOrjYpkd3d9P36HqIfOI6GA97lTZuUrD7zbLRXXtr6ORcCbcYMQt+4EX3ffco6ku1tt3A4guEz2NTRz98XtfGftzvZ2JehrS9NbzJL0iy2jSFtmuuCtIZ1ZjQGOG7XZo7drYWmsAGyrLTtrm2k86RyJh4Za22prEUybZGVkDZtLFuSNW3MvFOJ+DWmNkaZ1Bgtm2nL4UmblJj9cbBtGmdMd69NStJvLmHLqachB+0/KlpbCX31Wowjjyhf2raz3VKm5I3NKf7fy5v58+ttmHbeiQt3TRohyDsPQTSgc/67Wjlpt2bmTasjYBQ3CrantpHMkwWUM/HIaGuTMndchJSQSmdZ+s5mlvdkWb65nw39Fl39Gbr608RNSV/SxAakZbPblAgHzq5jj5l17DGziQXTGovqLNUYbW0AMpOh68ZvEv/973ObWguBXLCQ8LVfxrf3XlVnxW4vu6VMyQ//u567nlqPMHTmNfrZc0YD0xqD6JoABP3JDG+19fPK+hjJbKE540wphxACgSRqCE7Zq5Urj5pJc11wiN/cXtoYht0KVCpvypl4ZCS1FRyHZUvSpo1pSZLJDA+/3cl/lnbw9IouYikTCdi2RAiBJiBgCHy6xsImH2ft28rxe04mGjLQNQ1RI9pKIiWZNWvZcMrp6H09oGlk6xtpuvvniNmzXXW4bg9tUsJvX2rj9y9t5qP7TeHk/WcyvSWMJoSj0iSwpSSTtfj9/1byo+c2s7k3RcqU2BXyoyYEDSGdO85YwAHzG9FF7j1uD20FPNltEJXKm3ImHhkpbbaUrO9K8vTyDl5ZH+OV1d1siGVoj2XIWsVa6g3Yb24Dh86u48C5DcxtCdES8ZUcOR1rbeWQqRQbzvs49gvPg6YhTj6F4KcuwTd1svOnZdke2izTojOepTEaoLmhzpU2gFTW5pll7fz62XX8Y2knabPyVPVJUT+XHtjCRw6bTcDQtou2Al7sNphK5U05E48MV1s4HEHTdbKmxX/fbOOmx1azdFMc05ZYtiRXRxEDOoTIfcEmhzQ+skcD5x4+l2jEhy4EmiYqNmG2tzZXdpOS7rt/Tezb3wYpCVz2OQIfOyc3Zb5CH4mTmtQ2CAkk0xm+9/e3+NFTG0mX+DAMxtAElxzUytXHzSccDtW0NqqUN+VMPOJFmwQyps3ytgSLNqdYtLGf/y7rZGN/FtvOuY/BCCDo0zl4Tj2HzGtkj6kRDpgVJuTXS9ZAyrE9tBVwZTcpST71NF3XXoecMpXGiz5B4MjDiQ/jwKma01YC0zTp7o3x8OJ2bvvPalb1WUW2HkxL2OCbJ8zltANmEh4H2sqVN5FIJIpj8wjHfHy3yGGOq2su2syl8LrykVHUJiVIch1xT77dwW9e2Mizq2P0pkxKfaSEyA0NaJrgqDkRrjxuAbtMq6Mu7EPUmLZyVLSblKQ3tdHzobMwPvABmi77LFpDPUwEbRWwbRsJPLaojUseWEZ/ZuhapsEIAXV+nf9cfiBzW8JeKmowRtpKoY4H9UglbZYtWdbWz1vre/nlc+t5cmV31ZmR0+sM9p3VwLkHTuHQefUItnby1ZK2clSym5QSa9NmzAf/ithzDwKHHAK+3JdwvGurxGBtli257Z9v891H11TsQxHAMbs2c9sp82kIezvwfay0ORmea1IMwbIlr63v4+KfP8+Zd7zERfcu5n8rurFleUeia4L3zo3wm3N357bTF/Du+Q0lRgvGP4n+JIGPnkPgsPcMOJJaIvdVd8aOHLomuPR9Czl9r9yq63JI4Knl3by6rvR6pfGAcibDREpIpE2WrO/lWw8t5eQfv8ADS7pZ150iYxX3hwwmaGicumsDP/zQLiycHCHkyw3pTjSEENTvPB9RP2iT6u2IzA+92zLXyZ1IZdnck2RtV5Llbf28trqbV9b28saKLc4/HVECPp2rPrALQaPyO0hZkiff6cWulHlqGNXM8UhBW08sxdf+tpx/LNpMW9zbMx8yp45ff3RXQoHKX+qx0uaFsbbb1uw7KJ38/ifrOuKsbE+yvCPF2p4sbXGTjv4MSVMyPSg4613T2H/nyew0KYKR33xpMCOprTeR4fxfvsrjy7sqfmhawwaPfnovmurdb5JUK3ZTzsQjwWCItrjN2Xe9zNJN/RUnJ5XjoNl1/OqjuxINKmcyHG2JRIK0mZvol8paZCxJXyzFoo4Mb7UleH11N292pMkWpr/nHY0QuZGT03Zp4Kun7kFdXWhIH5WTkdRmS7j54bf59r9WVax56Jrg9lPmceK+U5yXylIrdlPOxCOBYIhP3PMmDy/eglUpV1TAQHLMzk28f89JnLRnM0Z+5qpTwvbWNlZ2k4NGwMj3H0gpWdveT0c8S1fSYl17P6s7EyRMm0wmS3t/lp6kyZZYmt6kRV8mN3riTIv8jNMZ9T4uOnIexy5sYteZjfkp8ZUZCW0FJPDs8g4++JOXKuYbAXx4ryb+78xdnZfKMlZ2c6KciUf8gSBH3vYCy7bEt6njTuTXakwOCM5811RO3aOJWZOj6PlOWE0IfD6DaDRK8RS13NT6cgxXWzW7bc0qgwrJYLvlmxdbyU3Cy9Xecv+W+f/XdZ1gKEwmlWHRpn7WtfWxojfLW5v7aY9nWby+D2vA0ZR2EtUQgKELjplfxy1n783M1rqiN1mJkcyTUko2buljz+88W9GZAOzcaPCfzx/ojC5LNbuVYiS1FVDOxCOBYIjP/7+3eOC1zWQqDPV5RQjB9HqDWfV+FkyJMCWkM7MlzMxJDURDuaFCQ0qmNATQdJ0mQ1JXP/R84ALD1VbObmbGpCuWJCUMBJBMZuhKWVh5u6VSqdzO6mmTzkSWLBqx/hT9liCZNulMmGQtSUc8S8q02dKTJCN02rqTZEVxX8VIYEibd81t4Mw9mzl1/6k01kVKaqvESOdJKaHlyn9iVnEmc5uD/O/y/ZzRZSlnt0qMtDaUM/GuLRgMkUHnmj+8wX2vbqmaMbwgRG4CW06LxNA0dG1rm17k29SI3DCcpmkIKak3k0xviVDXXJ9fFGhjWRa6lIStLCLf5Rc20ySMAGlNBwQZTR/SGajrOlbGZOP6DrYYgzZ7zo+GyPyDSNvODXsPXM79a3DNQ0qwHDUZKXPL93P/zl8aAQSgablFkAsnhTh11wY+uEcrrU1h/HouPhwOj3meVM5kGAWuVsRVYlu1WbbkP29s5DcvbuKlNb1siWeR+d24xoIB+dty+1Eo6COFyPnQfPMQoj7BzKYgMxqDLGgJsPe0MLtNizKzOUTe3w7JE7WQJ3tiKeZd/0TVZs78Jj9PXPEuZ3RZakEbyplsu7Z42qQ9lmbZphh/enkj/1reTXci51i2fom3LuBTlKZQGyO/mVCOrX1D754V5aB5Tew9q46pUZ2ALqgLGdQFfVXnb1DCbm4YyTwpJby8podjf/BcRWciBBy/SxN3nqM6YKGGxFViJLXlXmHuc9ifNnl5TS/PLWvn1Q0xNvdlaIul6U5kSWZHro9lItEU1GmMBogGDJpDOk0RP3tMCbNgWj17tAZZOLMJLT/6kk4V7Fa5E9pJKbtVYyTzpC0lv3pyNVf+6a2KQ8OagBveN5MLDpvlvFSWsdZWQDkTj7jRJvNfIsu06Epk6YhnaO/pZ/nGXta2x9mUFtgSVnUkeHtjjIzQkQM7rOUck9eRi7FGDKpdFJoi5L+0DcJi+qQ6ZjT4qct3Js8Nw/zZk5jeFKYhaFAX8hHy6zQGDYJ+fWtajnkgo2k3JyOZJzOW5PP3L+KeFzZWbAoHNcl/Lt2P2S3uVw+PtbYCatWwR7ZFmyw5nwL6kxlWd6VYszlGjy1Yur6XZNZiVXuCNBqZdBZT6Ni2TTJjYQuBtCWZrIk5aEWEbVpkTQtLaAOdpW4RUmJIG1/AN+S9GNLC7zcQmoYmJQFdYOTX2ASEje4zaJBZZk5twOfTWdgUIBrQmdccpDGgsdOs5vy7HuiSyd1PgLRl0dyaaoyF3YaDM09u6k1zxs9fZ1VnouJH4uidGrjnov0xXMyDKTDW2gqo/Uw8Mhba+nrjpDQDaUt6E1lMoSFtm3gyS9LemunMdJZUxsT2BxBCx/DndkN3g4ZEpJL4gsaQwhrGIhTyoxk6mrSp84kBh1OvSwKhwDZpm8h2K2iTUvLK+n7O/MXikttQDOb7H9qdj79njicnO5baBqOciUfGUlvu/x25zPGfUspt0lZ0AHbRax3aVzFS2tyyLdrGym5pS3LGXYt5Y2O/86cDCCGYWufnD5ccwD4zc/u9uGUstQ1mePUcxZgw0FwYHPL+pBA0IbYpONMrup+XT6YCKeHPr7bx5ua489IQBPD+XZvYdWrUeWncoJyJQjFKSClZ353krmc3VR4OBua1BPjKCQvwl1i9PF4Yv0+uUNQ4EvjNsxtY0ZlyXhpCY9jgxhPmUxcwPPWV1BrKmYwjZGEinKLmsSU8+mY7v3q5A+ns2BqEJuCIOXUcNKd+XDsSlDOpbaSU2BI6+jP8e2knjy/ZUvJMHUVtIYFnV3ZzzT/WkhnYU6UYQxMcu1M9N508n4CLWby1jnImNYjMr/HZ0pfhuw+v4JxfL+Xfy3p417wm/CXOqFXUDlLmjm294eF3aI9nyzoSARw8M8xNpy4kGvY7L49LVM6sMVJZm/8t7+Sq+xZx6E3/42fPbyGZMbnmmFnUh7wN4ym2L1LCsvU9fORHz/B2e/l+Eg3Jrq0BvnjcPFqiE8ORoJxJ7WBLydKNfXzqd69z7i9f5e7nN9KTzQ3FfuuD82mO+tWwbA0jga7eBJfdv5gXtmSKp+fk0QQcM7+Ouz+yC/vOrBv3/SSDUc5kjJES+pJZ/vbKRo6/7Rn+/NpmepLZgfUbs+sNDp3f4PwzRQ1hS1jdkeDc25/i+fX9JYeBhYCgIdh3cpDrT1rItGbvh23VOsqZjDHxjMmV973Bhb9fTE+m+IiMjK0mig1G5teh5Ea2nFe3P1LCk0vbOOfOF3mqwyr7TBGfxtXvncn9F+/DnObghLSp6OnpKSMf/H4/waD7LfcLpFKp4mnZLohEIui67oyuiGVZxOOVZxeWoha0WbbkvB89xT/eiZddlq4J+OrRM/j4YbNKHsdQilrQVg23djMtSdaW2LbEtCVpE15eG+PJld1Mbopw1fvmEQ7ktpOsxGhoy1o2r61o58xfL6I3YRZ9CMjvjNfky20rcNJBM9EqOJHxbjeRzWZLvQPI/2E2m3VGV8Xn83l+SIBMJlN2RWI5NE3D7/feiTXW2iTwzNvtfOz3yyofGykEhgbnHjiNM/ebyr5zmvAb+WnvZTLmWGtzQ8FuctBKagl09qVo68+yrK2fDe39rOs3WdOdJp7M0BbLsKE7ld9oOpdtj5zfwOVHzeKAuY0VC+pIa4ulLH70+Dvc/1pHftRm6HUBhPw65x4wlU8cNpv5k6NVD58fT3YrhdrPxCMjpc2WktseX8ePntxYso3tRAjw6xp7Tg1z1r5TeP9+M5nVHBryRc69AzlEmxBi0GK9yhsKbau2XFbKp19ip/rC7wF0w8AQOovbU7y8ooOX1vSwtDPNms4kVr4WYtnFzT4nQkBLQOPuc3Zhz9nlj1jdVm0FbCnpS2S5+oG3eXR1vMh2Ir9ealZDgJ99eHcO3nWK6+0ExjpPuqFSeVPOxCMjpc2Wkl88u4mb/r226gbDToQQCCmZ1hBgWp2f6Y1BpjeHaQoZNEcDmGYWO5OhKWTg92m0Rv0YAloiPnRDJyhsGuuKq9PD1dbZ0UVX0sSS0N6XJmtJOhMmiYxFb8ZGSsiaFpt60qzvz9LWk6Y9lmZDv1nkZIaLX9c4e58Wztp/MnvNLJ5NOlxtg+2WMm0eXdLBXc9t5pUN8SJHJwTs0uznvbtN4nNH7cTM1kGbcrtgrPOkGyqVN+VMPDJS2qSENR0JjvvZG6TMsiaoSr4yMlArKbwHISWGlq+W6gJNExhafnUwEp8vVy2OmBlmtYYIhIMYhjGwYY5fWpBLmqwYWoXOZrKs39RDl8hVdy3TImPZIASZrI0tJRlLYklJoQU3uNYyGrvIifyK58aQzol7tvCl980hGtAHam7baresZXPd31fzp9e3kLaGPr8AQn6Nc/afzKWHzaC1IURdNDqw1aRbxjpPuqFSeVPOxCMjqU1Kye0PL+c3i3poT5YfCRhtCg7JNbkTOWoWXRNMb/DziQMnc9QuzcxrDQ/LbraUdHb18tSydm56bAPL2pMDHeUC8OmCmQ0BDpxbzwUHTWXXKWF0TYzrPFmNStrcDQ8oRgUhBJ8+fgE/OH0Bc6J6vr1fbKTRRhZOzXMbatCRFPoqCp2wrRE/NgJjmI5PAss29nL+b9/k8r+s4u28IxH50xYXNvu59YRZ/Ppju3LTSfPZY1rE1ZGjExlVM/HIaGiT5Bbz/d/fV/C/tXE2x81hFYAdESGgzqcxuc7PzKYg713QyPsWNjCzJZTLE/lDzdzaTUro7E/zrze38O2Hl7OuJz1QaWsOG+w8OczZezXzgb0nE/TrA+kPZiLkyXJU0qaciUdGS5uUkDVtVrTHeW19Pw+9voXnN+a+hpV2M99RGFzzaAlp7D45xCE7NTG3OURjSGNOU4jWOj+GLop2tMeF3aSUZDImv3txI394aSMvre7GFhqaEBw2M8TpB05nRr2fXadFCfsqD81PlDxZikralDPxyPbQJvMT2lZ3Z7njmc08s7KTvpRJfzrXryLzx2JMJHL223oIlxAQMAQhQyfk15lR7+fYXVo4aG49u04J4st3Kru1ejm7SQkZy+atzf184b43eGVjnKAhaI36ef/ukzj/4ClMCmvomlbkoMoxEfNkgUralDPxyFho646leX1DjLc3x3h5fYzuRJZFG2Js7kvBOD4tsGAzIW1mNoWYVuensS7IjKjB/ClR5jaHmNkYZGZTiEkNuSnoI223RNrk9v+s5F9LO2iJ+DhwbiMHzmlgvzmN1If922S3iZwnS2lTzsQjY6Ut1/E59MydDe0xnl7RxWPLu3lhRQcdGbDyh4pbLid9jSYiP7KS26ha5v6tCaZHdXZqCnD4blPZe3YTe00NUxcNDqllFMzpbLKMtN22dMWJm5LZ+TkhhVqRGCG7eWGktVViNLQpZ+KRWtJWaO7I/GhMdzzLls4Yq3uSrO+K09ufoSdtsyWWIZMx2ZLK/b6tJ4lZooGQK0jF8ZXQgSY/+IJ+grZJS1MYv20xqSlMSIeWqJ/mkE5DxM+kiMGUhiB+XeAzDKLRCJpw33xglOwmS3SiFuJHw27lGA1t5RgNbcqZeGS8aZNya23FzjsdMz/BzEkwGPSuzZakknFs20bLD5sKZNVFiSOhzQvjzW5eqBVtaqGfR5S2YpS2oeyo2tQWBB5R2opR2oayo2rTcp16pQOD2tFeAoX2vIdQwJlWtVDAmV61MJx7Fe7nTKtaUNqKg9JWHIZzr8L9nGlVC6OhrXLDVqFQKFyinIlCoRgRlDMZp8j8AV1Z0yaV9N5eVihGGuVMxhG5YV5JLJllyeYEN/xjFd955B16E95HABSKkUY5k3FEb9Lk50+t55O/W8Jpdy1iS2+aS4+aw5QWbzt6KRSjgXImNY6UkDFt7n56PQfd8hLfeWw9z29IEvVpXPbeWTSqU/4UNYJyJjWMadk8vbyTc3+1mBv/s560lesnsaVE0zXPe8cqFKOJciY1ipTw5IpuPvunlTy7LrcL+uCFD+39Wb790HJiaWvAwZRfGFG75OYo5J4/F7YuUsyYFn2x5LjVtqMhuru7y5opEAgQCoWc0VVJJpOk02lndEWEEEQiEQzDW7XdNE3i8fiQiThuqGVtUsLqtj5O+OnLbOxNlS1IQkBL2McHdmnkyF2aWdAcYGZziLpIqGa1FTBNk87uPtpjadr6s2zpy7C2K8mbW5K8054glrZY05tlZr2PCw6awvG7tTCjKUgwGBwX2iZanixQSZtyJh7ZHtpsCd948E1ue2Jt2ZP+CgiR2yAooAtaIgaNYR87Nfo4fI/pzGkIsHOznxlTG3PL6vO/LUxkLMxoLMxrHAltUm5NUA7ayMmybNZ0JHhjbQ9vtyd4c30PK7tSJDIW8YxNf8okY+f+OPcXuX1ahBDoSBZODnHVoZP5wEFziYa9n9M7EtrcMhHzZIFK2pQz8cj20GbZkgt/9SoPvrFlWFs2ivx+HAXnYSCZ3RxiUsRg9qQoO9UbhOtzKz8NaTF/ch2GoaGZGRA2QoIfm2Co9IIuANuySaVNLE0nEAySsSBjSTZ29NObX4i6uSvO+r4MqzsSLFnfQ1bog7ZM8NZ0EfkVyUfMjvDZ43dh3xn1tNYFXB8nsT3sVmAi5skClbSJRCJRHJtHOObju6UwV98rhTNbvOJ15SM1rs2W8L2Hl3Hrf9dXrZmMJBFD4PfnFn4FsQlHyi86sy2beCJNVtOREuJpk6x3MwyLkE9njykhzt1vEmcfNi9fESq9J0mB7WG3wUy0PDmYctrUfiYe2R7apJRsao/xwV8toytRfI7t9qLyKx3b7SILta8FrUGuOGIm+81pYFLEwG+ULiDbw24FJmKeLFBJW+k3rxhThBBMm1TPD8/cmWkNwSqFevSQslIYO0dC/tlsCcs7Ulzxl5Wc86s3+fJDK3n+7fYxf7YdFeVMahQh4MiFTdx62i40BA10bXhV4AlPfve4jv4Mq9sTNEX9bO1SVmxPlDOpYTQheP/eU3n08oO56D2ziPiVuQZT5xMcv1sz1x03h9+fuyv3XbgnO89oGLOa3I6O6jPxyFhoA4ElJRu3xPj0fYt5Zk0f1vbsma0RCiM6zT44Y7/JXHjwNJrrAxi6NmTIuxRjYbeJnCdLaVPOxCNjqU1KSGYtHl+yhX8s2szitgRvru/DRAxrCLmWEflhbQ2b2S0RFrSGmd8S5OBZEQ6eV084YCCqjOAMZizt5pbxmCcHo5yJR9xoy73S/POIvLb+gjb3BaCStqxl05cyWbGhlzueWstfFrXnHcrQSV/jgZw+SeF8PiGgNaTzvp2b+eihs1kwrZ6oXycSNMiMot2cTKQ86WQ0tCln4pFK2uIZi2TGIpPK0JOR9CYymPlCnUqmCGASDftpDGg0R/1Vn9mNtoLf6u9P8ciSdh5d0c2yTTHWdsZJmpJY2h7Tg7gqIaSkKeIn5NeZEvUxpyXM/rMbOHBWHe+a14LfV9jseKsDHg27lWMi5MlyjIY25Uw8EgqF8PsD2FKStSTLNvbw7Jo+nly6hXX9JpmsjZk1SViSeNrEzlVNAAhoklDAR9SvsfPkMJ89dAoLptWVfXYv2mR+2rqU0Nbdz4bOGBlLsra9n0Wbk7yxoZ9FG2P0W1p+4VxuBmpZ448AQmw9kU/k/3t+S5CdW0McMDPKPnNbmNwUwa8JGkIGDWE/fqP0weMFtsVuEzlP1oI25UxcUCik8bRJzNR5pzPFI4s28+iKHjb1pnOFM/+bQsExNEFj2Edz2Edj2M8uTQZzJ4WZHNKY1RpGN3SaQwbTGwJlC85IaMs5jNxqXClhY2+aZet6WNVnsr4vw8pNMVJoJLIS27JJWLk0MuksGbn1WFIGmiNDCWhg5CeKhXUwfAYhHXy6YP6kMJOCGrMaA+w+s545TQFCAQMB+HwG0UjE8yxML3YbzPbOk6FQiPZYhqZoAL/u7tTC8aKtXJ5UzqQMudciyFo2z63u48V1MV5eG2Ntd5oNPSmsQW8td2+JLgQHzYpy5O5TmNcYYMHUemY0+JlUFyCVStaMNieWadGTtvHpPhLk1mok4ykSUiAHLbhzIpCEdEBaWJZFvSEx/D7qDPAHfM6fD2F7aSuwvfNkKBji9fV9/PHF9VxwxDwWTI5WdSjjRVs5uylnUoKsadMez/K/t7u4/b/r2Jiwt876FFs7NgUQ9mtMqw9w1oEzOHvfKcyaXDeQaXIdirnf1oq2SuSOBy2xHqdw+xI5ZajdSjudUmxvbWORJyXwlfte469vdnLH+ftz2IKminrHk7ZSOrzVMScwEuiLp3lqRRdf//tKPnz3m3zlH6tZH7ew7NzGPYWypGuCuS0hzjtwGnefuzcPf/ZAvnj8QuZMqUfXBJrIBZFf9j9eEAPP7Ah5f1IUXxTGj9btxaxpTWyOm1z6+9d5py1W6D6bkOzwq4ZtKTEtybPv9PCFP73N2q4Udonl8UIINJHbN+RrR07jw0fMJ+DTcbkCfky0eWU82c0rY6HNlpI7n9rA1/+xAiEEX33fbD511Fy0Ms8/nrSVYofezyQQDPLMsg5+8OgqHlvRTXZwR4iDsE/jE4fO4GMHTGVag7dnHAttE9lu40VbKmvzid+9yZPvxBACLjl0Gl86bm7ZD9B40lbKbsNzTeMcW0rWbOnn3J+9wIfuepV/LyvvSISAZkNy7/l7c8OpuzNnkjpWQlEZKSW98QxX3r+Ep1bHkPlRr72nhBhGxWPcsMM5k2zW4r9vd/GJ3y/h7293E89YFaei+3WN607ejSP2mIrP5RCfYsdE5jfEfmtjjC/8ZTkPr4hhy9x6ot0mBXnPwiaK2s8TiB3KmZi25OdPb+Bzf17Jos2Jik6kQMDQ2Hl6vXIiirLI/O54vUmT/3tkBWf98nX+tbwP05YIYOdmHzefsQuNkeqznsczO4wzkcADr2zh9qc30ZvKz8xyQTxj8atn17MllinZTlTsuNgSNvel+e+SNq649w0WXvMINz28nI29aSxb4tfgtN0buefCvdhpUtj55xOOHaIDVgLLNsY46zdL6UlZnmuahibYfVqUzx42k/fvNQk7mxkY+nXDaGorxUSxWynGSpvMLz2wpSSVMXnqrS38eXEnb2zoY+2WGHFr68ptTcC0Oh9XHzWLY3droS5ouMorY6XNC5XstkM4E8uWXPH7xfx1eX+peVeuEPmh4RkRnaMWNnLqPpOZ1hSkNeLD0CuvJxlNbaWYKHYrxWhryzkNSW72sySDQcKEZRt6eXp1L6+u6+OtDb30mWDbW+ceCQE+XWN2ncGH9mrl7HfPoCGolx0GLsVoaxvMaNhth3EmZ939Ji+tzfWsjwQBDeY0B9ltUpBDdmriyHl1zGiNDJolunU26GhqK8VEsVspRkLb1nsOLeimabGsI8WSjTFWdmdY2Z5gY0+Gzf0ZOvqzJfOOyE/q2601xMePnMfxuzQzrSlIMpEYlrZgMEhvfwqfzyASrLwkoUCt2G2HcCa2lPzfQ8u449XuEd2hLJeRxIDjmNkY4OBZEeY1+Dl0p0ZmtUYIGIKgodPcWDcq2koxUexWiuFos6WkLxanP5EmbdmYtmRLV4Ll7XHeak+Tyli8sq6PZV1ZsgObZeeXTWxd9D0Evy5oivg5fEEzp+83jeN2bcHw6QjAsqxha+tKwVV/WMxvzt8Hf7D8uUWDqRW77RDOREroS2S47qGV/H1Zb9k5JduKyO8Ollv0B5OifqbV+ZjRGGDupDpmNgZZOLWOKXV+FrSGMfy5FbS5Gkxuc6DBtWI32koxUexWitzXO5Qv5FtnKsv8gsVNPUl6UhYd8SxrOuK09yTpykg29yTY1JWgK2XRk7LoTpjIgVpKbkOpSo8iAE0TTIr6ee8urRy2oJnD5jUwuzWCnt82ssBwtElgU5/FlQ+8xW7T67nt7L2cPylLrdhth3Am5DNNPGPz5YdW8fc3O4dsG7C9KGRIkd8senqdwcLWEAcsnMyekwLMmVzPLlMiaHpuUyDTzJIYVF0enGELDmgwQgiQg+1WLK7Q9CrFcO0WDodL2M1xn3zhL7DVbkPjBz/x1vhBaQmdVT0mvfEMSzbGaOtJsLQ9yaq1nWw0jQGnULBtNSdRisE1zkJH+96TQ1xy+GxOetes/DYK5Rc1us2T5J/RlpLFm+Jc8KtFxCzBc1cdwoIZjc6flmW4dhvp8rbDOJMCUsLaLTH++naMR9/qZElbgpRZeq3BWKIjmVbvJ6DB9JYIhrSY3hxGk5LmAESiIXy2SXNdAN3QERKaA4JgKIDP56PBEDTUhTD8W9vdGjZhK0Nja+mM6tVu0pYk+5PogRBZ/9B8Eo8l6LVyWxgAZJJpupMmmXwB7NjSS6+Vc+h9sRQ9WYll2rTFMmTR6I8l6TIFmWSazSnvDmG4GJpgTnOQXaaE2XNSgPfuOYP9ZjYQDhplnYcTt3nStm2Wbuznty9t4Y+LOkmbNp87fBY3nrGHp45br3ZjlMqb6OnpKY7N4/f7CQZLLEmvQiqVIpPJOKOrEolE0PNfZbcU2qdekBJ0w8AUPjZ1J/jdM2v597Iu3unauk9Jbjcy519ufwbylBxcq8g9mAbouqDwHdUFaHruNzqgaxrCsRBEk3Y+AxWLyzUbiuPLI5D5EQ3bkflty8aSIPPRA/+ddy6WaWEP2s6hUPsY+G+R+x9vz+OeQsdpoeax79QQx+/azFELm5jUGCLo0/Drgrq6KMYI50lbSiwb7nx6A3c9u4nupIktJZMiPu79xH68a27lrQqc1Ep5E9lstqy1LMsim806o6vi8/k8PyRAJpMpuyKxHJqm4fe766gaTEFbriqcM/CGzgRL2+LETVjZnmBdZ4L2hEVHX4qutKSzP42NGKial31xipqg0FzJtQhzhXV6U4gp9UEWTAqx5+QQrQ0hdp8SpqUhhFbYbmFQQR6pPCmBdMbkrbY4D72ykX8u6+bttnjeuUqaAxrfPHlnTtyzBV33Npe0Vsqb2hypAlJK+tMW8ZRJ3JTEEllW9Vqs2JJg0fpeVnan2dSbzn89HV9WBqJG9Qu7ozKkz6hQmRlUcxNCML/BYK9ZDew7M8q+s5qY3hyhMewnGjQI5w9or8S25kkGdewuWt3JTf9axasb+tkSSw8cSC8ENAR0bj1zd07Yo4VMxltzhRoqb8qZuGCwswiFc9oKr60/kWF5R5JVnUneXNPF2p40XSkLy5LE0iapjEk8bdGbMolnrFEbSdpR0AWE/Tphn6A+aBAN5jbo1jXBnEY/u08OMbc1xN7TIoRCuf4iIQShYM5uXrLJtuTJpG2wpivFW5ti3PPMGp5dl5vjNPRbI5nfEubiw2bxicPmIKXlOk8OplbKm3ImHimlLddUyjmcwuu0bEksZZLKWvSnsmzu7qc3mSGZNlnbmWRTZ4KODKzoSpNMZlgfMwf6a3KZblB6ZeY6TAQKFQyR36mtYEUhYE5YY+qkOma2RJga1pjTEmZaYxC/sPLORCcSMKgL6AP2H9K0GUQpu1XDS5608yuGF2+I8dibHTy5PsmqjgR9aWvITNkCmoCjd2nl26fsys7T6tDEyObJanjRNphK5U05E49sq7accxja7yLznb29sTQb4iYdHTE2pgXdPQk2mz5sCW+u68HSNFIZE0sKbNsmY9rIErozGZPMoMl5tmVj2sWdpAUqZIEByr1fHxLd0PMuMFdzCAycdzMICUFDIDSBT4DfbxDVYcG0Bup0ybwpdTRG/Ow0KUKrTzJ7etMQB1NwEpnM2NhtSDy5qfTxtEXKknT1Z3hyeTd/eKODlR0p7Pxwbyl0TTC5LsDpe7bw5Q/uQl14a21prPKkFyqVN+VMPDLW2nr606RsMLNmbhRg8ByMPJ3dMXpTuenfAkgn07kmllY8DGhmTLLpDOl4CsMwijrypJSE6yOE6sJDnsPMmvgMnTAWhl/DynfkGbZFU12gyB4akoaATsBvENIkDfXhIm1uGAu7DQxCCEFHv8mr6/t4aU0fb26K054wWd2eIFWlH1MImFwX4NyDZ3L6/tPYfVq0aPh3LLSNRJ4soJyJR2pFW85sxfEAacfXu4KJhzBcbYlEYqi2srfbOtGrkrZKbC+7SSlJZS26evtp647z0OttPLmyl9e3pDHzZxBJF01QTQjCPo13L2jm9rP3ZEp9cKCm5WR7aWOU8qRyJh5R2oYynrXJQdMCkhmLJRt6WdUeZ213mlgyy8qOBIs2xmiLpcnmJ9iVLy1b0YQg4tM4aE49h+8yicPn1bP//Fb0cpu/5hlJbdUYDbspZ+KR4WizbZt4vPD1Lj8N28l40FardhvI1flp/KH8sa6Q6yxPJLMs3hznn29s4qnlnSztSGFaNpYNlscJi2JQp69Phw/u3MgXj92JnWa1eNrq0602J7ViN+VMPOJVm5SSdZ1x1nbEsLNZpjYGaQwZ+PNHalai1rVRg3aTUtLdn6YzYRHPSrLpLJsTFt0Ji9W9Wda0x1nZlWJddxLTzv1++Ehawz5mNQeZ3+jj0LkNHLlrC9Mbw0SjI6+tHLViN+VMPOJVm8xXoZ94cyPf+ucqulIWhqaxW4uPeZMj7NwSZOepERZMjuQ2WRo0euHz+YjWsDa2k91yzZFcbSGdTpNIJpEyN8dnRVeaNZ1J1m7q5a3ONG93m6RNi6wFpszVCtOmTcbK9TFJF/0c5RADfSCCQ2aGOX3fyew/t5GQXyfs0zH03HUv2gYz3u2mnIlHhqst1t9PbyzJv5d28p+3u3m7I82G3jTmoLkpU4OCloiP2ZOjTAlrtDSE2ak1SijgozHqJygtonVhgsImEg7glzZ1dcGh2qUcoi13baiJt87mGEpO29ap0s53ujWrbI132q14RkWJ2b+DChxAPJ4mJQWZrEl/JrffSE88g2nZ9KYs2jtjtKcl6zridCezrO1K0tmXoiOTS7vQlzGcFcJOxKAmiwAaAhpTGgJMi/rYfWqYg+fUs++MKJGQDyFyzsPJeMmTI13elDPxyEhoS2cs2mIZOhMmb22M8ew7vTy7uo/2lD3k65n729ywajTow49NKBTAr0mCfh8GNuHQ0HUSQsDcsMAX8qEDkzWTlqmNuYlhQMRMM3tWs9O/5IZufRr1ukCXNoahE2msQzd0bNtG13U6N3VgCo2U7ietGfl1SpJkMollWWRSado6+okZ+cWhAro7YrRlBJYQpOMp1vZmyIjcJLPCMHQqlSUjBVnTImnaWPk5HKZlk8haA4sDR4oBB5t/B4X/9kmbvWc3csDMOvab38rs5iC6maY+qNESNvCXmj9TgvGYJ91SSdsOv9DPKyOlLefDc58/me/wW7S+j9fW9fHihgTv5GdP9qUs+tMmqWzub7casYzZiioBxUavTJl0h+AtzaLvVcU/L1GTGSECuqAuaBDy6zQGDaJBg91aA+w1p5l3zYyyYFo9/vyqayFye8Pk7GZ5eo/jNU+6oZK2HXILAmpU2+Cqen8qS0d/hnVbeuhJWazvSrKx32R9T24h2PqOOGs74vRY+qCqfs5BFf57olKoWBRqFGKgn0nQrFlMmVTHvElRfIaGYVvMbQkxvTFAgx8awz6iQYOWkE5DxD/QP1VqCj4u7eZkIuVJJ5W07XCbIxUYb9qcfQI555E7WGxlR5Ku3iTLurO0tfXQLv28s66bPs2PmTWxhJb76lkSSX4qvmUj847HNC1ssXV0aaDWVAIv77n81zyXxuDrhpADB2lrQuA3BAKBoeWmoAvAb2gYAnZqDtJQF2ROg5/WxjDzm4I0N4TYrTVIIJSbnj74zkJAKpn0XOBGwm5eGG950olyJh4Zb9pifQn6pU42naEraWILjUwmS1c8iy00LNOktz9NWuhkslmy2Sy93f102wZSSrRBe2uk4ymSsQQWGkndIKvldh/T9a0L7QzbwpA2ITu3V0zj5EZ031DdAcskqtkEogFkvr+m3hAE8/0/hiZoieTSrvMJwkEfBpLmqJ9QKLhD2M0LtaJNOROPjFdtRbWN/D8Hp71VW+kaRanncKOtVA0lp62/KM2B3w6J3jrRr5Q2N4xXu7mhVrRVnzmlmBCI/PaEAyHvMjQhSoTcEnln0DUxrOBMZ2tw3jff98Gg58yvHFbUPsqZKBSKEUE5E4VCMSIoZ6JQKEYE5UwUCsWIoJyJQqEYEZQzUSgUI4JyJgqFYkRQzkShUIwIIpFIFE9ly5Ob6OR9wpD0fGZtjsLaDK94XfmI0lYSpa0Ypa2YctrUfiYeUdqGorQVs6NqG55rUigUCgfKmcjcISjStqFKkLad+71CoShih2/myM5OzBdeBMty/qQYIRB77k3rPns6r1RkrLR5ZTzZzStK21BGQ9sO70zMl14icdnl4GLjHKFpxD9zJbtecXFuOatLxkqbV8aT3byitA1lNLSpZk6+mYNlVQ3SsnJNHYVCUYRyJgqFYkRQzkShUIwIypkoFIoRQTkThUIxIihnolAoRgTlTBQKxYignIlCoRgRdvhVw5nnn6fnkk8j3UwW0jT6P3Ml8z5zgadJa4yRNq+MJ7t5RWkrZqS17fCHcKWefZb2Cz/pyZlM/8Q5npzJWGnzyniym1eUtqGMhrbhuSaFQqFwoJyJQqEYEZQzUSgUI4JyJgqFYkRQzkShUIwIypnUILKwLUKZHeAGdnwr0aOuGAUc9hhskyG22MHtoYaGa21oWErMDRuxOjvJ9vUR37ABrcQGNlZzC3pzE3pLC7Q0D5kzsCPYzSvD1eZLpTH6+pDd3WT6+tD6+pw/w4zU4W9qwDd9GtrkydiaNi60jbTdlDMZC2cy6CuXWPkO+pY2+l95jewzT2OuXIlIpwe+etKyir54QghsIRC6ngvTpiEPORTj4IMJHXwAgVCIUDjs6RkBkokEqXXrsdevL7pnOfQZM4gu2AnD53NeqkhVu0mJvX4Dsq1tSLTP5yu5q5jwGfj32gv8fuclqJYnpURaNmYqjfbWUqw1a0i+9Cpi6RK0rs4BG0jLytVIBiGEQA6yBcEg7LEn+nHHoe+xB/6Z00DTKtsir9Xo7s5p03WMqVMxN23Ct/NCtPp6sm8vQ4RCGLNnFaVVUVsZivKkSyrZTTmT7eRMwqEQPiCz6h3SS5aSfO45sq++hv3OqiHNGreFeAhCDAQrHCX0wQ/QdNaZBPbaCwzD9bMmEwn6nn2e1OVXoKVcvA9AHnkk03/yI4wSBbwSVe1mWXR/5jKMl19yXimJqK9n6uOPYTTUOy+BM08Wmiu9fdhvvYW1ZAnpF1+GRW8gMhmklIjCrNJyz1cJIRCahgT0Aw/Ed+IH8R16CKK5ubQtpCTxv6fRXnqR+Auv0Hj6yRh1dfR9+9vUfe5z1J99FhuOPZ66Ez9I47VfyTmnQdRKeVN9JqOJlLkvmWUR//ejtJ1/Ae3nX0D3NdeQ+sMfsJYvQ5pmblvIQtt7OAy6jx7rJXP//bR/8mLavnwtZm+fp3SNaVPRJk9Gmqa78MwzyP64M5kRQS59q/h+pYJlYU+eUtaRUJhynq/pZdraSd18C8mPX0ji6i+S/vFP4PnnIJFA5u2xTScRFGoxloX13HOkvvFNEpd+jvSSt0rbWQjCR7yHyBmnY82aQ9OFF+CfNgXfzgtJv/463b++B6J14POVLMS1gnImo4SdzpB99TVi/3cLvR88ib7LLiP93PPYW7a42rx6m5ASu6uLzJ/+RMdHPkL/U89CiX6XIoRAnzIZseuupb+gJRDpNF33/T9n9DZjdXRhJPqd0aURgvDRRzljtyIl2Y2bSP/lr/R//BOkTjiB7H33Y61dC4l4ceEeadJprLfeIn3JJaRu/zFWb3G/ixMhBFpdHQQC9N/5MyKnnlJUI6k1NJFfXFQqUPDoHgP5l+ElFHCmVS0UcKZXLQy+l1ecaZUKdm8vyeu/hvzD/bB588AXaTj3Gy7StsksfYueK68k8djj2JZV9P6c71IYBsZh73GfcaUk+9BfkZlsUXqVQgHneysEa9VK3LmzvDN51/5F9xgcMn//B+lv34RctGhr7WA72gIpob+fzG9/S+bnd4FpFmkWmjbQvyIB4fMROPhgAgccgH/XXQZs4tRGhfdYLmx9rOJ3VSkUcKYnhEBks9myb9SyLLLZrDO6Kj6fD13XndFVyWQyZVcklkPTNPxlOt0qUdCWfeEF+j97mes+k/hnr2Lh5z5Z9cstTZOOs88h+/ob2zfTlkHO34mGW76HsXCB89IABbtlurrpOu547J4e509K09xM5M47CeyysOp7KVDNbokHHqDnK18t6vAsSThE09NPIcp1AkuJ/eJL9HzyInfpjTKW7iNy1ZU0XXAuYtA7yCZTJDq7CDQ3QjxBPJYg3FyPyJpYQmAlU/hbi/tdaqW8aYZhUC6Q73DxGsifr+El6LqObdtFaVULtm2j63pRetVCQZuV/1p7wZlWqeDz+/EfdbTzT8cM8c4q+r52A+m2LUXvsBDIawu1NBM46SRnEuWJxTBffRUzmy1Ks1yoZrfM28tdO2ExdSpWpbxjWRh774WpeS9wo4FuZUnfcjPZRx9D17QBzZrfh95Yj2nbmKEggcnNWIaBGQoigwG0pgZMyyrSh8s8OTiMRnlzWZdVeEYIQsccg3TzpdZ1CIWgvh6tpQUxEFrRJk1Ca21Fa21Fb21FRKPumyCDkRK5dCmpx/5b9essNI3wiScWfQHLYlnYr77i2SmXw85ksTdvdu1MtJZWZ1QRejRK4KCDqmsSAnx+RF0d+hBbtEBr68C/tZYWaGgoOxRdDWnb9Dz4EHYy5bw0blEn+r34Yu5Ev5QLo+abObtd+anqmZJcIVt/1Puw163dWjCEAE3DCkcxFsxH23kXjJ3mo02dgmhtQWtoRGj5tA0foXAEH7nCL6Uks34DycVLyP7vv2Sfew6ZzboudAiBmDuXugf+kHNgDgbbLbtmLZtPPwPZ2en8WTFCwIIF1N17D8LlUGMlu1ldXbR/8mIyr7zivFQS/bzzCV9xWa7PoQyhYJDMvffR/Y1vbnWmIj+krmloc+fi32MPjJ12wpg5E//sWYiGBtLSxsofHZvVDAzbQpDrP7Bi/cjVq8m+9DL2f59AdnRWddRDCIVo/fWvCR/4LhBi3Jc35UxG05nYNp1Xf5HEX/+KlDLXSbX3XnDOR4m89/CBjFyuEJTVJiVW1qT3L3+l56vXYWTTnhxK9G8PoU2fVqRhsN2snl7aP/1ZMs896y5tIah76K+IGdOL0i1FJW2ZNWtpO/sjyM2bhl4rha4RuuEGfCed6LwyhFAwSOrfj9H3+StyeoRA1NfhO/1D1F/4cYKTW3J2KDgYL3nStklu2EzqK9eiv7lo6xwVFxgnncz0798Cuj7uy1vpXKwYGYQgePzxhD55EeEbbyTw4INEf3EX0WOPRvh8CMMo60gqIgS630fzh05n5gP341vovuMToP+ee6sec6pFIwQOPMB1ugLo/vkvq6brBmGZkHU3fC7q6tBmzXRGFyME0YMPIPihD1F33XU03XMPM158gSlfvYbQ9Cm5GlW1marl0DRCs6bT/POf4jv9NKTL2hlA5rHHSW0aOst3vDKMnKxwjRCEjzmK5qs/T+CkD+KfPnV4mbUcQuDbY3cCl1au4jsRjz/mjCpC6DqBw/O1JxdIKfE9/ij0u5wbUoFMTx+UWANThBAQicK06c4rJdFbW2m98QYaz/sY0YMOyE1/H0FkIID/859H32Vn1+9NSyWwX3/NGT0ucZ8DFcNCGEZu3cZwv3pVELpO84kfQBx9rLuOWSkhmcRav8F5ZShCENh3H8TU4uZQWVIpMq++7oz1jPnSS7kZpC7QZ81Eb21xRpdG03LDx6NkC4RAj4QJfvkriEjEebU0tk1i8ZvO2HGJi9ynqHmEYMrVVwyZs1AJmc0iurud0UXohk7o3HNdFzyZzWK+9PI2NXWklMSe+K+7fhpAHnaE6+fbXgT23B0x00XTi5xzl+vXOWPHJcqZTASEQGttQUx3V93PdeC6mIwoBNFTTkYLh51XSiMlLHkTkXbX31EKmTXJLlrkypkIXcd/2HtqzpkgBP699nbGlsVOZ7bJAdcKyplMFAIBjOkznLElkaaF2e1udmugvg7fLjs7o8tiLV2K9LiCdQApyS5Zgp5wsXBQCOy58zBmzahNZ+LhnZnxBOYEmG+inMkEQfP5MOrrnNElyZU9lwXQ78OYM8cZW55MBvO1110PjQ5BSuLPv+CMLY0QBPbft+QQ5ZgjBL5J1SfSFRByO68TGiWUM9kBkQikcGd64fNhHHRQyUluJbFt+n9xt1tXNQQ7a2K++oqrgiWEQJ8/n+q/rH0kwr1zr2E059z7wYFhzPk3hrmmx7IstEHrFNwGTdOwSqxXqBYK2nRd9/x1c6ZVLWwvbW5rAwKJLoptSxltgf32dd25i5QYS99Ea9uCUWYNRzlt6bY2sqvXOFMsiR0IoC1ciM/nK0q7VKCMtkphW+zmaQGdtLHMXB+WMy03ge2szWm3QhA9PT1lc6Df7ycYDDqjq5JKpcgMY8+OSCTiefWjZVnE4y7a2A4K2lLPPkvHJy5yvWq4/zNXMuOTH/HcTh9tbTKdJnntdWT//W/npWICAepuvoXGEz8wJLqs3SyL3k9cDK+6m96OplH/1WtpOP+8ssPVpbRlFy8mcennwM1I05y5tN79C/xz57iyRVltVRiu3Xoe+COJa77svFSagw4m+v1bCTU1juvypskSexYUAvnqpNdAfojPSyjgTKtaKOBMr1oYfC+vONOqFgo4n71acH2/Urt3VcF5r8L9itKWEhsInftRV4UWcrWT9LPPI9PponuU1WbbmGvWgYttD4QQGNOn4Z87B6FpRWmXCpTRVikMvp+XMBwK93Om5SYU/t5LKOBMq1oY/LzOUPqzoahJpJSY3T3ILVuGhvZ27PZ2pJv1RcNAaBrGEUeQrW90XipLdskS9/uhFDKny42spRD4jzzS06zf0SDZE8Pc3Ia1eXNRkG5m8E4w1IbS22lD6arapARbgrRJv7mE9OLF9D/3AtaqVYi+QqEU2JkMQpZoj0tyGdjNew8EqL/l1qJmTiW7ScsiecPXsf7+D3dzIjSN8C230Xpq6a0MnHaTpkXsssvh2WecPy1G15n8xBMEZ7kbCqeKNicyv6G0AIx4Erl4MfHnnsd65x3stWvQpJ2zRdZE2Fbu5TuwE0n3DuWgg4ncdgvh5qZxXd7G1rXvyMjcJtBmRyepF1+i5ze/Y+NFl7DukENpO+MMeq//GubfHsJ+czH2uvX5sA7a2pBb2otDe7s7RzJMhBDoe+3lbn8WcqM6vPCcO8cD2IkE1utvOKNLou2+O4FpU53R24S0bWQmg7lyFZl//ovYd75H71ln03XUUXRdeinp3/4G88n/Ya9ejblmLeaaNdgbN+RrIm1FwbUjmUAoZ7K9yTuR3iXL6PrB7Ww573w6Lr6EvhtuwHzs0dyeGKY1cFaLy6I7+giBNm0aeFjq3v/Mc5gZFzNtgczLr6CnXdQOgcjJp2zd82UbkDI/vyORJPHgQyQ+fxWJSy8jfd11ub17V6wY2K2+5K7yiiEoZ7I9sSwyK1bQdd319J58IvHbb8dcuhS7u7v2M6oQiD33hOZm55Wy6BvWYb7gYhKahMxfHnS1sZAMhYm859Cyo0RekH0xMn/6C7HTTsP6xjewnnkmt/m3xz0+FDm23SKK6kiJlUjQ8aOfsuUTF9F/733bfjbLGGA0NaLvv7/rgiwti/5HH6uoUUqJ1dWJvnpVxd9BzqEZk1rQoi5X5JZBWhapF18hftUXSP7f95Bb2sdmx/oJhrtcoRg+to29bj1bzruQxA++j712rasvcK2in3OO+9mwUmK99ipWha0fBWAtX4Hd5W7kR1u4M9qkSc5oV0gpIZUi+ce/kL7ss8iXX0KkU8qBjBDKmYwmUpJatoLYFZ9HvvbKsJyIEFuP/qwatgPBnRcg5s1zRpclu3Yd5sZN5QuslFhvL0MkS0+EGoIQ+A/YH81Dv81g7GSS3ttux/zOTYiUh60u8wzMtXATdkCUMxktpER2dZO69quwapXzanmEQPj9iEgE/f0n4P/sZwhcdimBn/wE/913E/jfk0RfeJ66F18YCPUvvkDd00/iO/Z9ztRGHCkE2pFHOqPLIvv66H7kPyWHEsnXFjL//R/ScuFoNQ151PuGV1gtG/P39yIe+IM3p67riFAI/777ELroYhquvorIbT9kyn330vTCS0x9801mLV82JExbuoTwt7/lTGnCo5zJKGG1bSF2+RVoq1a6+gIKTUOfNo3wuefSdOedTH/maab84BaCn7iQwAXnEzjkIIL77EWgLozmMxCGPhAw9Pyu8MMoZB4Rmob/gHeB253EpES88Fz5J5PAunXlrxcQArH//oRnuduwejDStIj98c+kf/ozd44k79CNww4jfMONTPrrg0z5f3+g5UtXU//pT9F88gcIHHQg0dZG/OHgEFsM2MRlv9JEYsdTvD2QksQj/0EuWeLKkaBpaO8+jGl/+ROt119H9L1HoDfU5/omtK1HRnotRKOF3tKCqKtz9zxSEn9jMZlkiTkwUpJ5exmis6NszWUATcM448whU7pdISWZtWtJ3nWXu+FdIbCaWwnddivhW75H4zkfIrhwQW4D8Lw9Cltwen6WCY5IJBJl365zPr5bCnP1vaIN05t7WqGZp6At8/zz9FzyaU8zYOd95oLKBSkWo/NDZ2OvWe28UoymoX/mUpovuhAR8Be9b7faZDpN7EtfJv3II85LxQQChL7zXepPOH5ItFu72YkkvZ/+NOaLL1UvnPnaTPi664iefdaQL7adzdJx9ZeQj/yzajpyxixa7rsHY1Jr0TuqiGXR99XrSP7pz84rRUhA7rYHTbfdjH/2LBBi2Hky+dDf6Lv6C87okmiHHErjj36IES19hEQ13NrNyXC1lcuT6tycUTg3p+OHPyHx/VtdVan9Z32IwFVXIkq8Ly/aZDpN5+evIvGPfzgvFRMIYHzjm4SPO2ZItGu72TYdP7id5O23u5vhKgTywINp+OmPQM9lYMMwCCVTbDrhROz2Lc6/KCJ0/PG0fP9WsprmKU9mO7tJnngiuPgbq66BGX/5I/7583LPvA15Ujz6GJ2XX+G8VBLj3e9h8p0/w/IZnrQVcG23QWyLtnJ5cniuSVESKSVmZxexX/6y6pdWCIFVV0/gCvcbQdcMQlB3xulID88tNm0ku2nzkLj4Cy9g9/UOiSuJEDBvp5IOtxr2X/7sbpmBYTDpmi/gnze34odCUR7lTEYQASRffAmjv6+qM5GAcdCB4DPGX+YVgsDMGRj77uvu2aVE9PWitQ1yJrYk9dIrrvaLFbpO3THv9bxK2E6myPzvyeo1xPxSAd8hB++QHacjhXpzI4i0baxlb1V1JJBrMvn33GPED4LabghB+IQPun5+q7cPc/2GgXcjzSz2Sy9WH8UBxNy5BPbbzxldGSmRbW3Q0eG8UhLflMn4PCwVUBSjnMlIYllYa9e56gwTuj7smZy1QviQA6HF3QFYGhLzjTcGnIm9chXZt992/qwYIQh/4UswnIV93d3gZqd78v06zjiFJ5QzGUmkhEzG1de2wLjNwEKgTZmCz8PO9dnXXs8t9ZeS7Msv51bkVkIIjJkzaDr6CM9NHACzpxc7nnBGlySrGZiat709FEPxbiGFIo/R0IA+e7Yzuiza+nWYm9qwEwlSv/lt9eagphF8//uH5UiklGjZDMLlMaM+28Kw3f1WURrvVlKMCNKysGMxT7WYWkQc8m7XC/+EZaFtaSP10mvYbW1VnYkwDIJ7e9iQaVuQNqqhs20oZzJWSIm9YqW7eRrVkBK7r4/spk3OK6NO03sPx45GndElkbZN+n9PwjNPVXckQiAaGtD32a/knIZqCCGQHvpBrL4YlssmUVUsi/SKFc7YCY9yJmOFlKSfeRZRrd+gCtK2sTZuYv2HP5o7o3c7IxobMI462hldEmnbJB98CPlK9YO2pBCE33cM/m04/lNGouDm6AgpsdaswVrlYk+VSsjcLnp9d95F/K5fOK9OeJQz8YhuVKjSaxpEIu6+hlKibdpI8slnhl07sWP9JB59jE0fPRfxzsox2SFMaBrR004BFxsTC8Do6cJcvqJqoRXRKOFPfHJYtZICeiSMFnA3sU6m0/TdcSf2MPdutS0La/lyYtfdgHnnne6WZ0wwlDMh/0VxgxA0TCp/3IPQdfy77OLpS5q+8Uasp5527VBk/usXf3Mp7RddQtfVX8itAXKrYaQRAm3OHJg925VukR8mrob/6KMJzHXfuetEAmLKFGgoby8nqeeeo+ur1yFjMffvU0pkKk3qrl+QuOxzyH8+DFl3+95ONHZ4Z9Lf0eu6IAOE6sLOqK0IgbH77p6+plp/jPi3bsJ87HGIx5GDt3MsBNtGWhZWMkVy8RJ6fvgjus/9GOnnn0P29rrP+KOEqK/D2GMPV87EFcEQkRNOGNYoTgEhBGLSJMQ0D1sWWBbJR/5Fx60/wFy/Hpk1h27nOMgedtbE2riJ7P+eJHHe+Vh3/hzZtiW3+fQOyg6/ajj+4F/pv/ar7r4muk7j92/Dd8zRZTOoTKdpP+MshMt9TAqISATf7rvDTjsROORgtJmzMHwG2XgcuW4d2RdewNy4CXPlSmhv95R2Edu4atiJBsT+9CDJ66/L7aq/LQiBPmsWDb/6Jfq0ac6rnvNk7B+PkLj6Kk+F3EbgX7ATYuHO6Pvvh7FgAYHmJgDS69aTWbQYe9nb2OvXY69ZC5nqSwIqMWFWDe/oh3DFH/gjXdd8ufoEKnLOpOG2W5GHH1bWmQAkHv8v5he/BFmP57/mC0opJaLQxMFDs6wcgQANt9xKg4dDuMohhCASDmO+/gZbPny2p0JbEiHggydS9/XrS07V95onpWmy6X3HYa52sR3EYAr2LWfnkbIFIA46mLA6hGvHIxOpd0YVETr8MDjkEGd0dWT+3OASYUjTpwxWUwva+ec7o0tTIR3PCIG28y7I5pbyhc8NQkA0SuiiT2xTE2cwQtMIfvRj2D53HbEDDGrSlAxVbGFrOhx0MLhq/pVPZzwxMhYbx6TjybLVNidCCMIL5lY3va5hnHQS9jC+MsNCCGRDA4GvfJnIpz9FNlrd4Y30RDB/XYTmSy5yUXAqIATaSSfjmzVz29IZjKbR8OEP4Tt4+6wIFkIgfD6MM86k/rab0fapvrK6ho5a2yZG/+3WOHpPF8KlM7Fxt3WiEILw0UdiX/xpbL/3PTg84fPBu99D6Pu3EX7fUaBr+Gd66HQcKYTAd+xxEKrQQV2N+gYCxx4z4s+u10UJf/lLsGDBiKc9BCEQk6cQvvpqoldejgyF8E+bMqx+kPHIDu1MpGWRbHO3RB3AmDoltxeoi8whdZ2m884heMvNiMbGkc/EQmD6gxjXXEPd92/Bv+8+uXsIgTZtuvPX24XAtCkED3yXM9odQmDssxfGHruPyrsKzptL5Cc/JrvbHqNTQ9F1Mvu8i+n/epj6C85DhIIIITCjddVrshOEUXir4wjbRu/3MEkpFEK6zIhCiNy8k0MPQb/+a/gPORQZCGxbQREiVxCaWxAnn0LDffcQPu0UhM83kK4QAt+MMaiZkFtLY+y19/AKq6Zhv/vw0dt1Tgj0lmYabv0e2ofPhqam3HMO9z0JkevX8fvxHXwIjTffzII/3ovW0JDrOM6n6589C3RvnZzjlWFYfeIgTYvMunXO6LLoU6fmmhUe0Ayd8NFH0vTjH9Jw440EDj8cWzdg0C7nA2Ewg+M1DaHriMmT0S6+hPAv7yLylS+hz59XXHCFQJ8xPZehKwRbKx4p2WY0Df9+++UONy9xz0pBzJpJ+KQTnCmOLEJgTJ1C9KrPE/zhD/F/9CPYBafiwRZoGiIcxjj1NFp+8mMm3/kz6k45OafFSSQC9XVFegcHqem5JvQ4Z4ceGvalM2w8+n3QVf74ysGEzzqL8HXXkvE4/DmgTdeRUpJZsZL440+QXbwY0dFBtrMTO51B649hWzYy4Meoq0NEItiNjcgFC/AdeST+PXbbOsrhzPCDCPj97uzmSGNE7CYl2UwWXdcRmsDMmOg+Hdu0QeSGtzVNI5POkEwlc3MdCo9RQVOBEcuT+fxi9vSSffElzJdfQV+7GrsvhkwksGL9aGYWTdeR0Sh6MIQxeRLMmkXgwAMJHnYYgdb8zmyO5x6cJ6V02b0qxMhpc0GR3VxSqbzt0M7EfvpZOi+5xN3cCCGIXnUVwQsvIJPxNn+kSFt+WFFaVi7j9sexsyZaKj+y5DPQQyEswyCp5Q7ZKvnFLMNEt9tIapOFIV6ZO4dYJlPIdBo7mUKXNqFwGD0SQfh86A31iFAIChPnytijVrRVYjTstsM2c2Q2S/8dd+TmDLhA6AYBj1Ply1Jouvh8aA0N+GZMJzB3Nr5ddyGw+24EFi7EmDkTvbUVEfBvW9teURGR7/sQuo6IRNBaW9BnTMe3YD76zgvx7bIz/rlz8M2YjhaN5n6n7FGSHdOZSEn6tTdIu1gKP4Ch4997b2esQqHIs0M6E5nNknzob+4dCeB7z3vwNTU4oxUKRR5N5Nt/pQL5NqXXQKH66CEUcKZVLRRwplc2SEn2zaWY//m3e2ciBP6Pnjswa7QozSqhgPPZq4Wtty9Os1IYzr0K93OmVS0obcVhh9WWzWbLlijLssi6WU3rwOfzoZcaJqtCJpNxPbW9gKZp+N3OTZCS9Oq1bDnrHPRul5PVhMA46EDq77wDdL12tQ1iwtltEEpbMbWibYc6azi7pZ32T30a85VXnJfKEwoRvPHr+I45GqFpNattMBPNboNR2oqpFW07Rp+JlGBZ9Hzta1hvvOG8Wh5NQ+7/LnxHeT+aUqHY0Zj4JcS2SS1azNpTzyT5yL/c7VtSYNo06r54NcLjWLxCsSMycZ2JzO1FkX7pZTo/9zlY/IbrOSUIgR2J4rvySrTZs5xXFQpFCSamM5GSzIaNdNz2A7Zc8HGsNWtzzsUlMhQifNlnCR1xuJqcpFC4ZMI5E2nZ9Nz/AO0fv5DET36SO3LAgyOxgyGMz16K/6wPISsda6FQKIYw4ZyJ0AQEg2Tb2nNrbtw6EiEQLS2EL/oEkQ+fmZvurmolCoVrJpwzQQgaTzyBpltuRmtyeWaKEMiZs/B/65v4zjvP1YFSCoViKBPPmZBbR1N/9JGEP3ousppj8Aew9tqX0E9/jP+gAxG+Kr9XKBQlmZjOhNyu5I0XXkD47LOLj0wQuVW72QU74/viF6j72Y/wz5iu5pIoFNvAxC09QqA1NzHp618je/h7cw4k70REIED005+i5f57CJ1xGkY4t0eFQqEYPhPXmRTQdWZ85Yvo++yL78CDqPvUJUz9y5+JfO6y3LZ5yokoFCPCjrHQz7axYv0IXUOEQghNw7LtiaGtBBPGbiVQ2oqpFW2ip6enrDPx+/0Eg0FndFVSqZTnrQ0BIpGI55diWRbxeNwZXRWlrRilrRilbSiVtGnO/QqcexcU7VngIjDS+yRUCAWc6VULw7lX4X7OtKoFpa04KG3FYTj3KtzPmVa1MBraJn6fiUKh2C4oZ6JQKEYE5UwUCsWIoJyJQqEYEf4/VveL/nPHbiMAAAAASUVORK5CYII=;" vertex="1" parent="1">
          <mxGeometry x="530" y="75" width="65.84" height="85" as="geometry" />
        </mxCell>
        <mxCell id="bNeFM68Or8PcbVmSaTlK-43" value="" style="shape=image;verticalLabelPosition=bottom;labelBackgroundColor=default;verticalAlign=top;aspect=fixed;imageAspect=0;image=data:image/png,iVBORw0KGgoAAAANSUhEUgAAAHUAAABvCAYAAADSSY9BAAAAAXNSR0IArs4c6QAAAARnQU1BAACxjwv8YQUAAAAJcEhZcwAAEnQAABJ0Ad5mH3gAADVDSURBVHhe7b1pjGXJdef3OxFx79tyr6y9qqs3drPZzZ5usrmJFEWOpJFMaYT5MmPIMmAIkOEZ+4s9MAzDHwTZMGDAwPibgYENeGALHo+gsTUDSKPNkkhRFCmJ4q5ms7faq7IqK7eXb7lLRBx/iPsyX2VXvtq6LDbR/0JUvuXe++6Nf5wTJ06cOCGqqryPHymYgx+8j/c+3if1RxDvk/ojiPdJ/RHE+6T+CELux/qdHKqqe68Ph6ICqCBYUND0ligQjRIJKAElIkQMimlaWkDxRASDiQarBqMGE8EoBF9T1xXGOmyWITZHjSUqRMAYsE2TjRoI0ROjJwSPagQMxhhEHMZYjGQYkb27L8ceYo3LLFlmMFYQIKoSVPfvVNM5zZ8GipUSwTdf3KHsfc7eZyKpAEzdyn3jnkmNMd4DkftQiSAxkaoW1KbPJ8QaiBIbUgNCRKZIjYAHBANREBWIIFFBFWcFlzmIkTp4fFBUBRGHGEfUiMaAmESwsYIxiRgBgkZi1HT9PYJSK1AFZ8FKasBRPVEDIgpiEGNRlVQw6aEk/QEQiRitEcIUkRwgdOr93ut9iIAxD6ZI74nU+yUUQMWjpgYFoxmiDok2kTpFbCI/wERaVREFFUeULFHdaIaoihJB0zlCAA2IRixCZg3WuPT76gjRItK0eplU217VTxWDarqspjazd23VQCTdH6KIsRhjAYti07l7hDRPJ81z7P3WRJRvJ+6d72+HiDwQsXcl9UEIBVAJqKkQlYbQDKOpVStJBauAGkWnSBUSqTFmeO+aukiqOkoAaVR2rImxxhpwApkxuKaKAWJsEbQ1uZspAtP3zjrEWGJUYtD0nFGZPGqeW4yTPTKT7oiEEAlREeMQsY1umVxXm2O1eW5zoBHdPx6E2JmkqqaHfRBo02LBYKJtHnLyXUOqARUlSlK/iViSqvU5oWoqwkQwNWoqMB7EYw1kYoGYCPEBDRFiI8mmh5i51E8Zgxj3zo6q4WGv0Ghigboo8aFCjDaqG8QKxlhEDFEhyeKksUS0IV8AYpZsiWlpvQ2Tzw/7fv9eU99/743ikZFK88ATMhuBu43QKI2USgS0Ub3pHKuu6eMUpAQpgDFoBdTsWUTRgDowObg2GJsqRFug+e2ETb8+iEmdTf5OulqFGDwx1I36NYgxqYHsVbSiElNXQkiX0TzdV/P9OyV11s3w6Eh9UNWbYJLEHTh93/qNqd9FG8sXjAomSlLTsYAwasoQ6l2o+uAL8BVlqZQV2GwR11rC5IuomyPg8GoYDjy7uyV1HSiKimJcMR5XlEVNXQeccziXIQLWGvLc0WrndDpt8jzjxKnjzC9mqY0YYNJWaqWsK7I8w1jTNMjYNE7f2Aegmk2Ryh1Incas7+5fBc8kNYR0gw+GpJZkYvJPSiOdk0oQPIaIU4XQFB+huIHffpNYD6jLAfV4gC928UVNqBWkR5YvY/IjqF1mUGesbVVcvbHJ2q0dNjZ22e1XeB+oSk9ZesqipqoC3k+sIYMx4Jyl3c7pdtt0uh1a7Zy87VhaWeSxc2d48qnHOXPmJItLbbK8ebSJJJNUkOLB1HtGXyQZU9N1kSoimU/7dvjk++m/vEOKrZ1c6+54dKRKREy6tKo0BklM40UNGPG0WmBiiVBDDDAe4tdvsbl2HfwVlhd3GPY3GPT7+DKQSUYrWyAzCyBLjKsO127WXLg65PLNITe2Pf1xYFyDDw6N+dRQxTZ/U9HUwvYMm4khNDGK6lhhrNDu5rTbOfMLXc6cPclzzz/L0x94khOnFmm3gSydXvsKlQqXKSYTyqpCBaxN42ARIUYIPuB9pNVqN30uU6QfJHWfmh8KUlUCXsvmVg0WgygYAqhPfaQUUG4TdtaodtYJu5uU/S3K/jYxrpPn23gfsNKh21klc8sMBpabN2ouXN7lwuUBOwPL1q5ltzCUsUUgRyUH00plIlZ7xE7EbFKJezpkr28HpfIlEQ8SCbEmak2r7Vg5ssTyyiJPPv04Tz59jg9+8CmOnWhjO+m5fT3Ga4nJlUBAjMFZRwiRuvZkrkWet4mxaVRwO6mTz/buJeGHgtRIoPBjnDFkYnFIskpD0fSR22j/CuXuVYZbF6j712C8ifUjMi2pg6cm0p07Tt46xqicY+0mXLnuWbsl3LwVuHkrUNQ5Zd0iaoYxHYzJQTI8UGlSdKmyJlKaKk5kQixTpE6qQnGZxThQDYRY431J1MZYsmCcsrg0x5NPn+XvvPQcL7z4AY4eb2Pa6QqVDqh1jDGWVquFwVJWFSEozmXNeHpPf783SFWSqs0NyRPjSygHMFiH0U2qwXW2br5BrNaJ1TpS75DFES0TaVnALhPdMUbVHBvbwsUrgbcuVVy5EdkadPA6B2aBOjhCcAgOKw7UokEIJhJNPFBZ+5IhYhpiD0Hj7YKIGLBWEKNEjfhQE2JNWY9QqVldXeC555/iox//MC98+FmWVy3Sg2hqQvDEqFhrsdbi68BoPKbX7TUW7bS0Tv7uN64JfihINYAYgViBH8N4A7avUm2cp9i+gB9fB79B9DuoDrASaGWW3DksFs9jbI9O8eoPtvn+G5vc2MwZVav0iy7rfUsgpzO/kvpGMTgsDpMG/EEJ1Kjxzd00FTUlmPukNh/qtEoGVU+MNSF6QDHWYqxBNRJCIG9lGCfUoWBc9FEpOXnqCC995AVeeOkDPPvSWeaP5LhMGI8qqqpkbm4O54S6DhgzcXHdqfonGmYfPxSkWg3Je1v1k3TuXKLceIti602q/kUkbNNpe2pfElFca568tQzSpaoMV290+Ob3aq5c91y/4RmMF1B7Es2WqbSHGoHMEtUDAYNgVNAgxBpEPMZM3//t6gyRfQt0opqniHVOMER88ESNIMnxAIIqhBixzmAzIWpFWQ9QStpdS3fB8fHPPc9Ln/ggTz31FL0eeN/4c216bS1TRtp02bvB24j94SA1FlBsov1rjDbOU268Dv23MNVVsriOlQIxnjJkRLuIaZ/Fy0k2diyXroz4wdslr71VEHWFEBYoqx6VX0BcB9fqoS5QhiE+jomUjYPdoMESvNC2lq6bHvxPLNvpypsmdDIgTTMve75fQEmTBZMBqxiLxjSOx0SyliVvG5SK4WiH3fEtVs91+MALZ/jUpz7JSy+/yMJCGkVVdSI3yyc+6cbqZt/FmG65GRg3eNdIrdSDklzWU0cln4Ihik3qLyb3tpOIaA2xhPoWbL5BuXWJ3ZuXqLcv4sqrtM0OvXyIcUpR1UR3hJifpOQMN7bm+f4bI779N1usrSuSHaf2HTR2ksuPOeqQzsN6srYQqUFqxNjkjyUDtUiImDBNYHOje6+nHmaPzH1JFWKa1TGNZIbk91UVEIs1DmNMYzsk6xiJuExwLWUY1zHtmieePMePffqTvPTyC6wcyTGuIdSQrGvS0C9GTdpADFEVs2dEJVg77ciYjZmkDihT24yK1eTGUxGCCF4yolgqD6GCnoVuFqDuw+4abL/K9rUvM9q4ShyVzGeBnhtj4g4adyhDZFAJC8c+SO1O8/pF4S+/s8sbb0F/dBxlkaCdZhgycZyn1ppuWBtf6wHJa/6Kmka9TnDoY+6ftzfEmLycPmfquwP93W0Np3GuVLpLpSNCLFlZnefTP/4xfvYLn+fU2S6jcsz8Ys643MVYcJljOCxxWYt2e46iKGll9rZfeQSkCkbT5LQCwQgBy9grRgwtK3SlAr8F25epbr1FtfV9Qv9v8IMNqAJtG8ntGA1F8rq4JVz3NP1qhR9cqvn697Y5f80yqk4wLk9Q+xy7N858EOxPYN83Gu/moRVzN4iitiZQ4mMBxrN0pMOLLz/LT/70p/jgC6cxGVT1EHFgrKGqAoolzzsYgRjTlOIE1ma3/cQszLDpwapgokHUgeao5ig5aAYKsRzRloKuGUK8CbtvMLj5DTbX/oL++quE4RbWj8nMCJFdgu7iJaBuDslOUfpzvP6m4evfGPLGW4FbWy2GRZta01jznRLx3oGVDCstWlkP0YzLF9f40h9/lS/9yde4cW1IqCHPexhpU4wCxmQ4lxEbO0YOl7W7YiapRtP8JppmKSOps0fBKvQy6JgCwi3YPc/4xrcZ3PwW9c6rSHEVV4/J1OOkBCmJxkPWIWbHGNTH+farka99fcTrb2VU/iwmO8W4yqmCYPPJXOh7ECp4D8EbDC267UV6nWXGw8DX//J7/Pr//q85/+YtfAlWLHUFGgyZdaCKPvDMWMJsUvEYTZbZhNTYCI9F6bYNxF3YuUhx7bsM175N3HmNVrjCnOnTUU+LiJUKTI3kluDmGNRLXLrR4S++UXDh6iKD8eNU8TECR1GzQDSO8BAt9W8fQl1HYrBodBBzeu1lFnpH2Vof8+U/+Tp/8Lt/xoW3t/EFdPI5DC4FdDCRnAfHTFKFGsSjEpvpsn370VJCHMFwnerG24zW3iRsXSWvtunqmK6pyUQxIqhasHOoW2UUVrh4I+M7Pyh4+6ojmLOY1hkGRcaoVLJWG+sMta8evDv9IYDBkNkMoqUY1ZTjiJU2uZuH2OJP/+Qv+KPf/zMuXdjFCjgr+DpNsFsrD9Oj34VUqRGpm6myRkoNGPGIFlDvwNYVivWLhJ012vWAOTyd6DFVBRoIEQIt1C4T7Em2R8t8/y3Pt14dsDNeoeIokq0grotKGiIYEzHTY7b3IPIsx5ksebjUosEQvSWzXRZ6RxntBv78T/+aL/7RV7ixVkAEDY2UThlID4KZpPrYTF9LCo1UwEjEyRh0F3auMLp1gWr7Glk1oE2kjWCDEHxATaCMEOwimp2iXxzj4vWcNy4pV28J3swzrCIeT7uT08otGgISSK38Qa3Xe4GwH71wsDRj1QctAlhjUsyVKrlztLIWopboBWLGQu8o165s8JU//Trf+9YPGA/BmRTDFUMTEjO55H1iJqlFqQR1KJYQajTUZFIhZgj1BrvXX+PGxe9R7VynY2qyGKCKQI6xGZXxDGJA2keJ7gzff0v50tducuG6JZt7DNtZBGeo4wgfhlipyY3BaQbhAZ7mvrA/Tf2Ocgee76cgQgg1wddo9GmuOMZmqtaiwVIXSq+9zMW3r/P7/+6PufDmtcYF0niOGjfm7WPte8NMUo1dJMY2MVicMXRcxDKC0U3i1nlGm2+TxW06WYnVghiK5OpyGbicYQhk80fwdpXzVyPff7NifauL2mPYbLGJKPSIVI1RJhi1SMxTBOIDPNAPB1KIzu2lCVFr4qCjNywtrLK8cJQrF2/w51/+KzbXS4wxjTSnGLEZboRDMZNU61qoWjRAhiWTAGEXv32Z/trrjLfOk+s2bTsGHaJUyeljLN4YKmsxvSPslD2+9/ouf/P6mP5oHpOtgm0nFxk1hgpDwKikUNLYSmPj9yhSU1SEgDSRkpPQV1FBmrF/K5uj11li89aAr/zZX/HNr3+PegjOZI0vO5F6v8TOJNVMfMhRyaWGOITRTYqN84zW38TVG7RkiIlDYhil451BY6AIlqx7inG9zMUryutvjFjfyDD2KC6bp/b7AdkpirBxqmsKjn4vOx6ARKQkKU2NdyKtgmDIXYfRoCbWGZ3WEmtXt/nTL/4lb75+DUi2UnwAQrkbqZPJKosHLaDagq1LVJsXCLtXmLdj2jJCwwDVEpsJGBj7mkpzsvYZrt90vPaDMdfWLCIn6HRPgOTUVYXgG2Oi8dVqE479Hrd895yMuk9oktzUO4kanG3T3x5TjJTjRx6j5Rb55l9/n6/++Tcph5Pw5RTNeb/E3pVUEcXZCsIu9K8zWr9I3b9G5nfpmIqMGqMpuBorVN5TxYhxC9T1ES5e8Fw4X1JXi3Q6J7CmR/Tpoff7mX2nfZRINBXR+Pc0rdOG174nefJEaXwoMQ112vk8870V+ltjvvPN13jt1csEv69631VSfQyIFGSugLCD9q9TbF1Bh7doa4ENY4xWWFFcmvVlXFUEEVqdVfo7Xa5eVjZvZeTuBK38CGWh1HVNnmVNP5OWZYBL695MJNoCleq9La17t34HQlWoSs/iwgrtvMfuzhhn2sz3Vrh+dYP/9w++SAiPiFSnBvU1mBLiDrtbFyl3rtOJNR0RpFkQYwxgBAI4bdFxRzCyyhtvDVnfclQsEPIOlasZ06c2A0wWiSnil4BLniqpgapZMeZRqYniH7DUM4tKhUr9yEo0gWgiQbRZiRCJ4lFToaYkMKDdDbi8ZlzuEEPNwtwidaF8+xuvsX59G0sb0RbR3/sEOdxl6i0Ag91bLM5vo5uvcv4r/4Zs8wJney7Nm8qIQIGYkKL4fAu0C60jXB8+zv/0L15ns3yCneoYI3XUWURshZERNnTI6iVMzJHowIzBDJo+yBBJ60Af2F7SyUj0zpheC3onKA/u+0iTIHtvbkdzUWXfxWuMIKL44KmqijJs80u/8gX+0X/49+n1HFWpdJYOXuhwzCQ1Boh+B6tvM7z6NTa/98e0+9c4lgnEktIPwXryHMRkaOkYVjljWeT68DH+xW9dZ6c6R78+SiEGnwXElVgzJgtd8rCCCcnTginA7DZ9rSE2C48Pvbm7YGKUHAYReWeFH8CDknovCD4QVRGhWfQsxBipfU0VBnzoI2f55f/4P+DZDz4GgGviiu8FM0kNI7CtAfXWX3Dz9T+EtW8yV2zSCx5nhBqPmkDmIiKOqjIMQ4cyO0qRPc/a8Dn69RmG4SiVcYQ8YFyJNSOcb5P5JSS2kJhIVTtKbVgFFSE+MKUJs0hNHpvD8TCSei+Y9JUiksJHTZreDCFQxzEjv8GnfvwVzp1bxXto9w5e4XDMJDXuVpjOgOGF3+Paq7/NYnmehThExjV5nkOWE6kxWhGwVD6jdEfQpSewSx+hfeQzDP1JCj2CN2kRmnMV1owwdY4U3bTYvKlAtVVDY7PK9J3rq+4Z8hCam/8fSK2res8AmsQEp6UZEa8V0ZS0Oo6VlQWcA5cfvMLhmEkq/TGYm2y99pvcfP13OWFvsGBr6lHA2jbR5ogoRiqCOkahxTg7hq4+h116nto9RRFWKXWJaC2SB5wtsTrA+AzKdoqowCUDxhbNQMcAkvyoD4qHIHVSIYdXzMNjf0WhYozFOouRJq44BrKWYzja5fTp06yuzt/Xw8wmdbQB22+w9tr/zfjaVzjuNuhmSiwNQTPqKFgLufV4cga+xzA/S1x9Cbf8LIWuUsRFap0Ha5DM46TA6BDjDTb0UE0BbFEC0VbNkt3kIpxpmt8DZtVDeurDH/3wb94diDF7xE5UsJG0Ii7GlNykqkpOnz7F0tIieefeY5Rmk1pdYfT2X7L15m/jdr7Hit0kywyENrUX1DgEj6Oiii2GHKFeeJ7s7E/QPfYhxr5NrR08XcSC2BrLGBOGmGBwdNFmSBNMJBiPSnIXCoKZxcpdcLdTH2T8924jhZymudPphcWxST7hMsv8/Bzj8Zjlo0cOnH04ZpMaXmXjW3/M+NIXWfBX6dQbZNaAmaesAiKQZxDKPpXMIfPPUHRfxK98hrljLzAoDDVtAi3ERIypsY3TQqJgtUUUixdLFCWYiGLQtEbuoSV1Fiaq728LzrrbGlayxhOpqoEQSkSU8XjEmTOnyZfuvTZmk+q/xNWv/gHc+CZH3S4M1jEq2NYSRVnjrJLNZcTdm3h7BLPwYb57dZFvXT6Gdp5gVDkCGVFcWhohFVYrslinGRl1RDF4MQSjBKNNZLprDJ3Db+1e8DBn303SHxazrx9otWA83uXm+k3+yT/5x5x5YengQYdiNqnb/wdXvvEV7MYbrLoSxn2IgsnnqaqaTi8DKrTYQTpn2PRn+a0/usXvfKViHE9hWqvNelEBIoYapx4XfXIPYghi8EYITbiMqG2ymjwcqfqQ1uvDWs93w8xcGhJwzhNjRVkW/NN/+l/wc7/88sGjDsVMUuPbv8rV1/+G1s51VjKFqiQGENvD+4pOC4rRFlFruic/zE55jt/4nWv80ddAWs+StU8TJEOlyeugAasRG5twDZpofwNRBJWUJ8LERGqarXkwKHcVh8PR/OyDnv7w8IgpCWHM7m6fX/zFX+SX/quPHDzoUMxU1MWtK9iyj9MSUZ+W+xslSo0xCt021mRpwlta9MvIqArMz81x4vgxnDNkVnA2ZRBzNq2qdi7H2hzrMqxze8VZR2YcmXVk1pJZi3vQ4tLY74GKu8P13uWSO0eeZYeUnPm5ReZ6y4jkvPHG+YPUzMRMSe3/4ReodrdpVQN6zqAoPoBKhlXI8gw/GuJdjs4/xXcvt/i3v3eFt8+vsLDyd9gtOgRsk9xCm6UbKdcggEpMfanQWL0Gq4KNgqLEJmfEgyA+hOMC0hKTRympuvffHSBpNZ3LDFtbG5w+fZr/9Xf+04NHHYqZpO782x/H1CV5GJFJJBohREXJyMRhfSCoULoO2xzlr9+GP/ziDS68PY/rPE4wi41aTQt3pYlBMjGNQ+MUqTQRATYKLkqyhh9G/U5CWh8QZjpbwCNAGrYc/LSBQFlVzM33KIoxy8tL/Ksv/urBow7FTFKHv/kKuSgujFFqggWvIGS0bYs4rFDbYZT12NKjXBqscOFqj8H2aUx2nCJkBEPKVEZjBEWHjSk93WQYMyHVaCI1C4kQ/xDiEt8FQ2lm3/SQOLTSARBiFLrdHqPxiG6nw3/23/7MwYMOxUxSy9/4KM4oNlQoNbVTPApiyMURdgswc4TWMrfCKn7pw/SOfYJgn8Fkq5R1Wm6YcieANMv3pVmbk3IqJXKFZm5WU5IsJqllHxAPq34fFg9x6+lsMVibUZYF1lmefLF78KBDMZPU8K8+2litHpVA7QLeRKLEtLxxHBHpQes4l/odOPZRjj77k+zoaSptpzSuD4iHEFJoJOFh1K8+ZKOQRtoPg0adMbEoyN4q+ISnnz1x2/tZmElq/RuvYDRiNaVnq2xs3HkRG8FVijFzqDvCleEccfVlFp/4LJv+FMPKJu/TQ+AhODm0uu4HD3ONu937xD14JyhgD9Tdh1586rb3szCT1Oo3XsGo4hpSa6v4CamqtKNB6FDpPDfrZfToK8w//lmG9knGddZkxj708rPxLkjKw1xA7oGYwzD52dk/P+tbxRptjkl38thTpw8edChmkjr+zVewUcljyifkbcSbZNwYjWQhItqi0h5F+3H02MfIj3+SMPdhAnM8zMLZR63+7oaHGE3BPdz/7GnFyeTj5ArC/PF3aZZm8K9fwUWlFQJC8s16E/FWMRpwtScEQ00XXXyWmzzB5d3j7JoPoGYJE2dHF8yCppUHDwx5SGIe1k14d1JnX/1g8pSf/fc/Pf31TMwkdfv/+RhZjHR8wGgzpjRKbcAQ6QgU45qibsHis3z9ouW3//wmV3dPgqxifbOU7wFwt0q5Gx5WUh81EqeziL39u3/5B//jbe9nYSapt/7Nx8lipFd7nAaiKN5AbVJoWMfCsD+mDm16Jz/Cl79f8+u//Tpr43N0O48TBikr94PgYYYzEzwwqY2WeJh7uJvzQmbm75Umtez+DfzWX/z3tx0xCzNJvfxbnyKPgSNEXPQp6aI1aCuHGMhjYNAfgXSZP/0K37nS4td/+w0ubp3k+PGXGW5ERA/rC2ZPUivMXCafQjwPrxjVuyWgns3Y3TxSabuTww8wd2lUs7SvYjAuZ2t7B2OEpcUl/pff+ccHDzsUh9cKoO05KnF4sWBtmtSNEdPkpY9RscbSchmIsNTrsdTtUY3GFMOCGCyhSQj5juIdfkZR7xBtHVoIOdocd8cS8ybl+iGFFjKj3O37GDJCsHcs0VvCXYqvZxVD7noU40BVKN3O4kFqZmKmpG7+1a8wWLvK/GiLJRcI9ZBaPXQ6WBGyEAhFwGiOWXyW85sL/Mt/9xZf+k6FaT1BCEuoHhYGN1tSBTAzJAHSPjOHIarODDE9/JuEw6+8j1nGzt2ufze0Wy3W1tZYWVnhk5/6BP/dP/+HBw85FDNJjZf+B66+9l3c+kVWc4/EIaUv0HabzDlaQaGKaC2E/AxXhqt86TtDvnulR2w9ThEXiYeq39kPbgAjKfHzHSGzKzWmHWwOhc6IUZJGdR5+9dm/zUMbeooRZePWOidPnuDzn/scv/DLLxw86FDMJJXd3+TqN75KuPw9Vt2YjF2qMCa2MjLrkLIkV4NEg7rjbMtZrhcnGLU/TOfoC/TrOQJ3ltRUJYdXjDGCm5G6TTXtI3MozL30uQc/3ceE2MNwt/MfjtRIt5OzfvMGvV6XZ559itXHDx5zOGaTGr7Kjb/+MtVbf8WibpLLNioFMW9WrI1L2pJCxFSW2YzH2M2eon3q08yd/gjroxaBQ5JcCTPXujDDM0ojKbOkZZYkwkRNzPj+LqTKXbYVmXHq3SGRbidjc/MWrXaL48eOMXfk8N86iNmkxlfZ+u7XKN/8c9rjyzi9hWt5tJURfU0rRGxdJ4kwS9yqFtmxj5Gf/BS9ky+xWc/jDyFVYKYJKJIyeB4G1Sbz5iEwIrdtyPcOzPquwawhzWyH/OwGcVeIYp0wGPSZm+tx7Pgx5pfuXI93wmxS64v03/gG5VtfQbZ/gIvX6fYUWo66LOjlLWJ/BxMj5Ets1nNscwp77GO0jn2YbV3B094zsnVCJqnD2hsWTNee0PSI+yGTd8LdJPFuccOzJF0n5c5fQ/P7szDxZu1fYvJq9nlMdJRVRsWI5aUlTp85Tbt9527sTphNanUTf/0t1l/7MsWNb7GYXaeXDyEUmKBk0kkZnWyNx7BVGcZ6knzuJdyxF5l/5uMUskjUHopD1WCkxlCmBMlR0/AidvYeWqREZJzCW8gPzf1wCB97SEvrZyWhvodVbwc/mIKxs9XvfmNNncxkf54mBh8RpSjGZJnDWEtV+2a7E5fWstqa1998jRMnTnDs2DHa7XdLUsc7MLjJ2g++xvalr7Jkz7NgNnBln1xyCD3IDJoVFFQUGqn9UUx4lvHc05inPsqWX8CHFYydT2tm/ABLn8wqzjgIc2hcbHZbUsQMMGY7NQJp39bW7wdpamuW/ftwmEmo7Gd52A8MmEivIs1GhEUxIsvSHnSD0Zgsb9HKu5T1mItrb7K4MsdLL71Enufk+eGjiIOYTepgFxgzvPht1t74E+zo2yzYdXpxSEscME8MgYoRMQfNLXW9xGj3GFcGy/zxawPWhwuU4QiutQqmS+0HEHdwJvmT0S6EeZQstWoZY2TQpL+43VV2f5hthj0sDq+0hKS+m33uNOVkmfSzQiTPHYgiRiirgqIqabXbKMLG9hrbo2v8N7/6X/KJT3yM2kdarcMt+YOYSWq5M6TVFdg8z/Xv/yHDtS8xp9dZdGPaCMICvqqo4hhywXQctZ9jsLvA+Rvz/J+/9zZrO4sMqlVc5wRky3g/JoYdnKnJnULMUe01uYQdQoWRIsX8ysOk3kmb1j4qyF3U96RSkwJOHfS+GlaqqiLLHD56xsUIl1vanRbb/S0uX3+T514+zf/8z/8Zjz9+isGgYn7xXepT+/0xC3M5VJv0X/8it97+ffLqPItuh3YMZNol+EAdK6IJkIFKD+8XuLlzjN//yg4Xbsxxa3eZmJ+B/ARBAyEMMBQYxk3upEmC6Cz1N4SmFR+8o3uHKo+W1BmGVmPqNCZwkxSLyb53Kb1QiEqW5xRlQeULFpa6iA1cW7vMjc0L/Of/9X/EP/zFn09WvirzC++S+t0e1Sy2M0RHxLXvcOON3yVsf5eurpH7ES3NsWqIBHysCNRgWrhsiWF5hj/7q4pX3855e63LSE8TW+eI4tBY4kxJnhWkiXSDkhE1b3LmS2MBT/aVeQBI6s8eFe4WjgIpeUfSNSkHROpfU3qhEMG6nOFogOKZX8rZ2V1nY/s6cyvC//Z//TOWj7UoxgW9Xpv7yLY++6lNyzAOFUiOWT7F3PLjSOsYtfQooqEmEE2NMRErEUNAYgl+QG53+cATbU4eD8x1Bzizg2GMNUrm2ljbInghhEiMFTGUzZZhJYSa6Gt85R+4xNqjTZLMR1FCXeGr8o4l1CXeF/i6wNdj6nqM9+O0D1xd4OsSI4I1hsxZ2u2MqCVbO2v05gw/9dOf5uixFrUf0ek5xB4qd3fEbFItFHWVFgFni7Tmz0B+lEq7lOoIBgIexWOtkhnFak0odwjlOieOBpYXBrSyTdANYuyjsWr6l7TdSNrJKWLEp0LAEtOEQbP04kGKNYKR5EN9FMVZIXPmjsVNlpq4VDLXLDtxuvcZGjCitHJHr9dKe/RUOxw/ucDP/f2/22xwVJNlynC0fZCamZhJqjImbyVpwlvyuZMsH3sG0znBsM6JrkV0FowikmxVlwYuWEY4t8Xp08K5c5b5uQHCBs4MEWrqqt7PRdgYD+AR6iYJpUckpiUID1BEUn6XR1bu8JvTvx1CRQxVk3QyIhJQ9angcRls76yjUhKl4PLVN8jakU/82Is88fRxjI3kedohK8/vL9BgJqlCibMTZ1gO+RFa86dxvZNI+wiVtPBYwuR4MVhjyI0htzWZ67O6Gjh7xnH0aKCdbyO6jaHEmZSGXTU5JVLPHhKx6pvdm0Iz1rz/kuZokqHyaEqz9/kdihKx1pA5lxZcGZPmoIU90nf6GxibHDc31i8xGG3y/Isf4BM/9jJZm7RI2wpKxGXvIqkmKlbTjAnWQT6H7R6jvXiO7soTjJmj0A5lzPCaJ+JNC4zDGSEzgcUenD2Rce6kY7m3i9Rr2LBDy6bMoaoZkTaBnEiW8u0/YFzTbVBpNid6REXdOz+b+i5zHZxrY6TVbPmSIeSIZCCWqq6Ym+9S1WOu37jCidPH+Plf+ALPPf9MstyRVA+Tch+YebRVwWKSD9UYyLvQW6WzfI7e6tPUZpmCOcrYoQwZQfNm61+TrL5Q0XE1x5bhiVOO00dqetk24m8hYYAoTc6HnCg5QRwqdnp09w75uNcCptEEj6bMuj5q0WgIXqgrpa7BB0NstFJUOHrsKNjIra0bzC20+PxP/jif+ezHac/D1k4fnWziu1fuHTNJdbGFUZcG8gawBtpdsqWTdFaeQHrniPkpSo5QhHmq0CbGJr1rVLSoMeWIOTvk9ErNUydrzhwZ0rU3idWNxskQ02ryJvdDENOslGta6wNCmWobj6Dc7fo+ROo6lRAESH5djEEl0u451m5dZlhs8rFPvcTP/cLfY2EFQgDjTPMjqYGklAn3jpmk2tiG6NK6VA3UEog2g84ybv40c6vPkM8/QcyOUek8ZWxTa0ZAkrO+8kg5IPNbLLf7PHnC88xZ4cRyQcvtYGQEUhNFCGIIzT5ycS/oq1lg9QAFSVNjf1v/kl9CELFpd6gsxzqHGCHiuXHrKlv9m5x78gQ/84XP8fjTS/gIo7JkbqHXzFiYqXLvmH10k1Q5qlLHkiKUlERq24L2MisnnmF+5QmyzgmiXSRIhygZ2kwgW404rcnjDh3Z4vjSmKfPOp48m3F02WOkDzImmopgfLNOJ6RcvxISOe9QrPdaQspK+siKv8Nn+9+JiYiNiFOMU9JGFoHKjxkVfbb7N3n8yeP8/D/4aT7+Yy+QtaH0JXlbSAEfBw29e8dsUhtEjdTRU4WKWiO1OoLp4ZbO0lo4g3SOE7JlajtHbbt42wabpX7YKkJJFneYbw84ddTz+KnIidWSzKzhzC2s6WNk1OyBE5O0Ypr0O7PSr0/0XaOupo95R4N4p4XMOzYvmC6Tijxw/t7QZXpY0wT5TjSExCSvkra7DhrwWlHWI4bjbfrDdfKu8slPv8zPfuFzzC/Ddn+AzSBrGTY2bt7Ber932F/7tV/7tYMfTuA17SQSRRFjcNZixWIxWLGYJndDK88JKKOyYFzXRGPJMoeLBVCDKiZr4bIWzma0WkK7o4yLdapqk6rcIRMlt12ILeq6RYw5xqTkWZi0dbTYlDYghECMgkiG4PY0yh6pkjKR3mY96mSXxmnyG3/sO46zNNNOjUE0dW1AkZQOXVNfiWQgjqgGH6CuI3lrDh+EoEqr4xDrGRQb7IxuUMUdfuU/+SU++/mPc+rsQuo+CWS5beZUU+6J6d80M4O/b8dMUivY659Ekk2bdiVtUleFlNbUOgdGUr8bAmWMxFCR2wqRlEIghEioK2KsyXJPuw3ICNWCUJcQBA05GlsYM48xbXwNISohRqKmnYcn01Uidu9u0r/UDSXKtBlaJCt1j/BJpMUUsXvznbddy4A2G+zuYSq8UCBEEGOxNkfVUPuAj5Esa9Gdm2c4LDDWMb/YJVKztn6Jrf4aJ8+u8JnPvcLnf/rTnD13PM2CAUjEOYeIwTn3jqC2+yF1pkO/2tspuFEzaHoiFUSVUNe0bQQpoVin2jjP5o032F5/G3YvctRt0rUFRj2xLglViUiGa80T7Ao3dzLeuqL84GLg8s02G/1lSr+Cy08hssRonIw0FY9qiUiNcUqWCaBoDI3LcX8GZPI+YproCabU17Qqm37saelt3jdEK2lCG5kKOhWIUQgp2xxiLM6lyW7va+q6IstbuNyB1OwON9javsbykS4/9TOf4ed/4ac5cXqBTi+1vVAHfPS02ikoHpRwIP4qSe69YaakxtjMMkzNNqTHl8aAEowxGGchs9g8AzEUPuJjTV2PwTpslmMzi7NgrWKNxxilnTuccxgMwSt1UROqAkKNqMVKj8w6nEnj3rR7hCKiiAlJteMR8Xt94ETyaKzod/RHQtP3TXE5EfEpYtNHU9uQ7DXqdFzalzxNi4mR1N1YQ4yeui5ZPbZEf7DB5avn8WHEBz/0BD/19z7LT3z+x3jq6SXybjP8jFD7Ou1xZw2Q9hhIkrl/P++apHpfN5U1XfYNmNTfBIx4nKkgDqhGG/S3rlFsXaB/9bu0wg65DugwoMuATEdIGBOCQaVLFZfZ3O1yec1w/pJy5XrN5o5lWJ2mNs+C6YLYpMKjEiSAjYjxYOrGgAlNprTUv4qmOJ996znhTq/eKaUJKT2B7FmhKo2U7jXvlJPBGEuIgaouAaXdyel0c7Z2b3Jj/SreFzz3/Af4937uJ/n0Z15h9ThETfl7VZIRGrROcc7OEmKkqivy/PZdnu9HUmeSGvZIbaxBTSEaikWxiDXUXvGxwognsx50jK8HhOE6m1e+T7VzlWr7MrZYY162mXNDWgyQEIgRXH4EzxLbux3WbhouXx1z+dqQq7dW2Sw+QB17RM1RaaOmgxqLh5TGx6YV7iphL0FIItU20pvmYycPOJHl2zEh9fZqEE297KQx65SUKgYxyZBJY1JBJRBiTVEOKasBNzYvcezEAh995WU+/ZlP8uJLz3HipMNkycGQuvkIJoWDTm5DVfEhYOR2SX3XSE2SCtLseNw8QpJUsUQsXpWgaRbC2DSFhlaIH1MPthltXKZ/4y3KzTfJiit0ZYs5N6AlFRoKrGkDLWrfpaw7bO8Erl7b4e3rS1zaOMvWbsZgZPCxh7gV1PaotUVQUGtRItok35rmxmmFo2oqninyUr97e1BEerK9IKJmPzajSR0mSaUhN10jqhIVxKSRm0pNWQ3p724xGG5y7gNHeeUTz/MTn/ssz33oHJ0u+ABiIWslaVUJGEOKb566HwViuJ2Wd43U2nsk9Z6IaupbGnojhjqCmiSxYkgVHD2qNRIjLZsRxlsM1i/Qv/4qxa0fYMprzNltuq7E6ZBQFdRVhZGcTmsR1YzNW7tcXF/k0uYprqxVrN0YMyy6YI8SzQqF7+G1BbZLnPSdEhujJo0nM63JY3WbJZBK020clM3GA7X/Nkn8PqnTZwj9QZ/5hXmWVxbZHexw4dIbDEdbnH3sFM89/xR/92c/zhNPn+TU6dWU/16bXaEExChiNBlejVEeVQkxYExKcxceFalVkxjSaEz7sU2sv6aCAs0GBo2hMZFjNKIqeC84amw9II7WKLcuMNx4m2L7PKG4iYt9MkocNY5ILikARX1kt1zmZn+J9U3PtbVdrt30bOxYdkc9inqJwCJqV8B0kKyLzSwqER8qynpMFpW2nWQNNkmkMElUMISY1sQZY5tKjc3EdFKndeVBBZdZjBUgDatCTHtwiCi7gx02ttbxoeD4qRU+/OKzvPyRD/Pk02d49vnTdOaa/fImUiip4U8cI/vS3wyhNR0jjTaZxrtGaqGNslXFavo73b5VGp/MVABWeqWNajY4gUw9UvWpBzcZ71yl6F+lGlxntH0ZpwNMGODCiJwqTcBJJNKjqLvsjiIbW2NubHjWbnnWNx3bu13G5QKlX8HTI8ocJssxzoFEIoFYKVorgkVSWnDEuPRXLOOixIeAtcmxkdrpJPW5EDWk/QGcoKTGUtcFdaiJGhgM+iCBhcUup84e55kPPs6HXniaZ555guMn52l194fHB6U9/W3qcELoVO1B6tOn8a6ROkaRhswJsZMeatLS9m+qiXFNzZEohmANBsESkVhDNSaUfXyxQzW8xdb6ebTcIhQb6HgLW+/iYkmuNc5EbDNTU/nI7ljZ2KlZ34DNbcutzYxbGxmjssu46uI1Q00bY20y5mKbqB0EixELxiGSCmLxMY0FJ/1ZUE/UFDmfdsSqiZRU1ZhxMaQoh9S+REwieuXIImfOnuK5Dz3Ns889xZnHjrOyOs/CQgvbohnATsIHGsU+JZk0NXknQid1OY13jdRRY/UapZFUmui/ZJQkIyUdmxwATQtrDJFaQhPVJyk1XYxIDKA1Wo8oRhuEYotqcJOqfxM/WCeO+0g1QPw2Nm5jnWBd2j6srJXh2DEc59zaMFy/HugPW2z1MwYjYVxaKq/UATCLGLfUTDAna33yVzFkeRvrMgIR72sqX1L7ihBT+Ekdd6n8Lt4XhFiT58Li0hxHjx9h+cgSz7/wHOeeOMPpMyc4emyZVhsiAaVCjOJs8lAxRVzq2/dfp+TW7/yuURq34V0jdczE+p3kDEw/mFrYhNxJ+OPkuKY/kEigbtqlQaMAae8VFcGQLGX1I3yxgx9uUvVvUfQ38aMdQnmTUF5DtUJjQDU2u0PkQJuybLE7MOwOM7Z2DDt9ZXtX6e9WDMeBYWEpqxzVlLwxRkOIQoiGGA1FVVN7DwKRSIgeJWCsYJ3QnTN0ukKv12LlyCInTx/j8SfP8OSTj3Pi5DEWlubIcod10vSbjecJ32zrkhrzPln7r/eMt9vInhzXyPGUV5J3k9SKiog2+e6blpc2eJoaAqTT0zGJ1NQfhDSOVE0Vq42UiCE2Ki/5kyOGCvEFOh5Qj3bx4yGhXqf2NyjHu4yHu5SjIaEuIIIVC9IiBEdR5YzGjtHYsTsU+oPAYBjZ2ByxtV2mSIMAIZjGwZ7uxYe0ss5lFpdn5C1Hq53T6bVpdzJWV+dZWZ5jeWWe1aNLHDm6yPLKPAuLc2R52ic2RqWqUx9rneCyFCWihJSXsdG509b35PWdpHRChDAJAG/eS/Lc3StmkuqpCfgmF1IzuJ/qC/a9LIl406RKT1lAY5pbhL1hRDKqDEHS7I9XxZrkLUvb2XvEe/A1niFl3MFXJdWooB6PCMUYrUskVsQQCMHjo8UHRx1aVL5FWVvKylEMS+pxlRqSmtSo1BE1ja/nF5aYn1/AOIvLLVnuaHUyOr0OnU5OZoRWJrS7aVwpBnwIVHWBDxW93hzGWnwISRfZtDtljJEQPJlJT71P5KTupsltak8mx6W6lETM3hHT25vcC2aSqkRqysZT0wwJpkmd6N2m3xVNhKZMZxENVbqZRuUyiW4gRTakPL/pfNtEAqe5F/BUFHGMM4ITi4kBvEfrEdGP8HVBXY8JEYIKSBukQ9QWIea0XEZnwobYxkiyE4HB++TZiTQzQRpSX5g58lzIDWSpO963Ypu5UZqpvZQLaUJQuoaqopqMvH2jUpr6mxDafDaFfYMp4ZGRChA17R44USV7aCzfqbckjqdXd00w8Z1OmfV736V5SdH9/VhFJR1v07Gp2hofbxNGuu+TbSpVU8QxJIlMDoZmqNIgVT3pf20M1Ob7vbUxzXsT03PsP3aa+E5Oiv0r7htBE9xu6U6OS3VyOzH7dXZ7XcJkQfbUfd0H7koqzWzNPRx2AE3r3Ot3kyGRyGmIah5UtTk2Jo2gmmJkUyUnDxEycQemqAPloFV5uzaJWKLse4TS7zYzLZLmzCb9lpAqLiX+aCozTiWbPvhYU2+nuZp8nrTY7biN4+a90FTPHTAh8n760gnu6Yz7Ff8fBij7KQTuVN5R6z9kuF/jaBr3fJYxZq+81wh+r2BC5MPW8T2p3/fx3sI9S+r7eO/gfVJ/BPE+qT+CeJ/UH0G8T+qPIP4/z9jZH68Yw5IAAAAASUVORK5CYII=;" vertex="1" parent="1">
          <mxGeometry x="613.51" y="77.5" width="73.78" height="70" as="geometry" />
        </mxCell>
        <mxCell id="bNeFM68Or8PcbVmSaTlK-44" value="Language&amp;nbsp;" style="text;html=1;whiteSpace=wrap;strokeColor=none;fillColor=none;align=center;verticalAlign=middle;rounded=0;fontSize=14;fontColor=light-dark(#000000,#FFFF00);" vertex="1" parent="1">
          <mxGeometry x="530" y="40" width="60" height="30" as="geometry" />
        </mxCell>
        <mxCell id="bNeFM68Or8PcbVmSaTlK-45" value="IDE" style="text;html=1;whiteSpace=wrap;strokeColor=none;fillColor=none;align=center;verticalAlign=middle;rounded=0;fontStyle=1;fontSize=14;fontColor=light-dark(#000000,#FFFF00);" vertex="1" parent="1">
          <mxGeometry x="613.51" y="40" width="60" height="30" as="geometry" />
        </mxCell>
        <mxCell id="bNeFM68Or8PcbVmSaTlK-49" value="" style="html=1;shadow=0;dashed=0;align=center;verticalAlign=middle;shape=mxgraph.arrows2.arrow;dy=0.74;dx=30;direction=north;notch=0;" vertex="1" parent="1">
          <mxGeometry x="115" y="347.5" width="40" height="70" as="geometry" />
        </mxCell>
        <mxCell id="bNeFM68Or8PcbVmSaTlK-50" value="" style="html=1;shadow=0;dashed=0;align=center;verticalAlign=middle;shape=mxgraph.arrows2.arrow;dy=0.74;dx=30;direction=north;notch=0;" vertex="1" parent="1">
          <mxGeometry x="210" y="347.5" width="40" height="70" as="geometry" />
        </mxCell>
        <mxCell id="bNeFM68Or8PcbVmSaTlK-53" value="Development" style="text;html=1;whiteSpace=wrap;strokeColor=none;fillColor=none;align=center;verticalAlign=middle;rounded=0;fontStyle=1;fontColor=light-dark(#000000,#FFFF00);fontSize=15;" vertex="1" parent="1">
          <mxGeometry x="155" y="510" width="60" height="30" as="geometry" />
        </mxCell>
        <mxCell id="bNeFM68Or8PcbVmSaTlK-54" value="" style="html=1;shadow=0;dashed=0;align=center;verticalAlign=middle;shape=mxgraph.arrows2.arrow;dy=0.6;dx=40;notch=0;" vertex="1" parent="1">
          <mxGeometry x="300" y="359.5" width="90" height="50" as="geometry" />
        </mxCell>
      </root>
    </mxGraphModel>
  </diagram>
</mxfile>
